<svg xmlns="http://www.w3.org/2000/svg" width="605" height="441" fill="none" xmlns:v="https://vecta.io/nano"><g clip-path="url(#A)"><path fill-rule="evenodd" d="M829.619 343.703h0l.706 4.092.707 4.109.707 4.126.705 4.144.698 4.164.69 4.185.676 4.205.66 4.228.639 4.25.613 4.273.582 4.296.547 4.318.507 4.34.46 4.362.41 4.382.352 4.402.289 4.42.221 4.438.146 4.452.066 4.464-.02 4.476-.111 4.483-.209 4.488-.312 4.491-.419 4.49-.534 4.484-.651 4.477-.775 4.465-.902 4.449-1.034 4.428-1.168 4.405-1.308 4.376-1.448 4.343-1.591 4.306-1.737 4.264-1.883 4.219-2.031 4.168-2.179 4.114-2.328 4.055-2.476 3.992-2.625 3.925-2.773 3.853-2.92 3.777-3.067 3.697-3.211 3.613-3.355 3.525-3.496 3.433-3.634 3.337-3.77 3.238-3.904 3.135-4.034 3.029-4.16 2.92-4.282 2.808-4.401 2.693-4.515 2.576-4.625 2.457-4.729 2.335-4.829 2.212-4.924 2.088-5.013 1.962-5.096 1.835-5.175 1.708-5.246 1.58-5.312 1.452-5.372 1.325-5.425 1.197-5.474 1.071-5.514.945-5.55.822-5.579.699-5.601.578-5.617.46-5.629.345-5.632.231-5.631.12-5.624.013-5.612-.09-5.593-.192-5.57-.288-5.542-.381-5.508-.47-5.471-.554-5.429-.636-5.383-.711-5.333-.783-5.279-.851-5.223-.913-5.163-.972-5.1-1.026-5.036-1.074-4.968-1.12-4.9-1.159-4.829-1.195-4.757-1.227-4.684-1.253-4.611-1.275-4.535-1.292-4.459-1.304-4.384-1.311-4.307-1.314-4.232-1.311-4.156-1.303-4.082-1.291-4.007-1.274-3.935-1.252-3.864-1.226-3.794-1.194-3.726-1.16-3.66-1.12-3.597-1.076-3.536-1.027-3.478-.976-3.423-.919-3.371-.859-3.321-.794-3.277-.725-3.235-.652-3.197-.574-3.164-.492-3.135-.406-3.11-.315-3.09-.222-3.075-.124-3.066-.025-3.061.077-3.063.179-3.07.283-3.082.387-3.101.49-3.124.593-3.153.694-3.187.793-3.227.891-3.272.984-3.322 1.075-3.376 1.162-3.434 1.244-3.498 1.321-3.564 1.394-3.634 1.46-3.707 1.521-3.784 1.575-3.861 1.623-3.942 1.664-4.024 1.699-4.107 1.724-4.191 1.744-4.275 1.756-4.359 1.76-4.442 1.756-4.524 1.745-4.606 1.726-4.684 1.699-4.762 1.664-4.836 1.623-4.907 1.574-4.975 1.518-5.04 1.455-5.099 1.385-5.157 1.308-5.207 1.226-5.255 1.138-5.296 1.043-5.333.945-5.364.841-5.391.732-5.411.62-5.425.504-5.435.384-5.438.262-5.436.137-5.428.01-5.414-.119-5.396-.248-5.371-.379-5.343-.511-5.307-.642-5.269-.773-5.225-.903-5.179-1.032-5.129-1.157-5.077-1.28-5.022-1.4-4.967-1.517-4.91-1.629-4.853-1.737-4.795-1.843-4.739-1.943-4.682-2.039-4.626-2.131-4.571-2.219-4.517-2.303-4.465-2.384-4.414-2.462-4.363-2.535-4.314-2.606-4.265-2.675-4.217-2.741-4.17-2.806-4.121-2.868-4.073-2.931-4.022-2.992-3.97-3.052-3.915-3.114-3.858-3.174-3.798-3.234-3.736-3.294-3.67-3.355-3.602-3.413-3.53-3.473-3.456-3.531-3.379-3.59-3.298-3.646-3.215-3.704-3.129-3.758-3.041-3.814-2.949-3.866-2.855-3.919-2.759-3.97-2.66-4.019-2.559-4.067-2.456-4.113-2.352-4.156-2.246-4.2-2.138-4.239-2.03-4.278-1.921-4.313-1.812-4.348-1.702-4.379-1.593-4.408-1.484-4.435-1.375-4.459-1.267-4.482-1.161-4.502-1.056-4.519-.953-4.535-.851-4.548-.751-4.558-.654-4.568-.559-4.575-.467-4.581-.377-4.583-.29-4.586-.205-4.585-.124-4.585L3 371.085l.03-4.578.103-4.574.174-4.568.241-4.562.307-4.554.37-4.546.43-4.539.489-4.529.547-4.52.603-4.511.657-4.501.711-4.49.764-4.48.817-4.47.87-4.459.924-4.447.979-4.435 1.037-4.423 1.099-4.41 1.165-4.395 1.235-4.378 1.311-4.36 1.393-4.341 1.48-4.317 1.575-4.293 1.676-4.263 1.783-4.231 1.897-4.196 2.018-4.155 2.144-4.111 2.277-4.062 2.415-4.008 2.557-3.949 2.704-3.886 2.854-3.816 3.007-3.742 3.161-3.664 3.317-3.579 3.472-3.49 3.626-3.398 3.778-3.3 3.926-3.2 4.07-3.096 4.211-2.988 4.346-2.878 4.476-2.766 4.601-2.65 4.719-2.534 4.831-2.415 4.937-2.295 5.033-2.176 5.125-2.055 5.206-1.934 5.28-1.815 5.347-1.696 5.403-1.578 5.453-1.463 5.492-1.349 5.523-1.239 5.546-1.132 5.559-1.028 5.564-.929 5.561-.833 5.548-.743 5.528-.657 5.5-.578 5.464-.503 5.42-.436 5.369-.373 5.313-.319 5.249-.271 5.18-.229 5.105-.194 5.025-.168 4.942-.147 4.854-.135 4.763-.129 4.669-.131 4.572-.139 4.476-.155 4.376-.177 4.277-.207 4.177-.241 4.079-.283 3.981-.33 3.885-.382 3.79-.44 3.7-.503 3.612-.568 3.526-.639 3.447-.713 3.369-.788 3.298-.868 3.231-.948 3.17-1.029 3.114-1.112 3.063-1.195 3.019-1.277 2.981-1.358 2.949-1.438 2.922-1.518 2.901-1.595 2.885-1.671 2.875-1.747 2.87-1.821 2.87-1.892 2.876-1.963 2.885-2.031 2.9-2.097 2.919-2.161 2.944-2.223 2.972-2.281 3.005-2.337 3.041-2.39 3.083-2.439 3.127-2.486 3.176-2.528 3.227-2.567 3.283-2.603 3.341-2.634 3.402-2.662 3.465-2.686 3.532-2.706 3.601-2.723 3.67-2.736 3.744-2.746 3.817-2.752 3.893-2.754 3.97-2.752 4.049-2.746 4.128-2.736 4.208-2.721 4.288-2.702 4.37-2.677 4.45-2.648 4.532-2.613 4.611-2.574 4.692-2.529 4.771-2.479 4.848-2.423 4.924-2.362 4.998-2.296 5.071-2.225 5.14-2.148 5.208-2.066 5.273-1.979 5.334-1.887 5.392-1.79 5.447-1.689 5.497-1.583 5.545-1.472 5.587-1.357 5.624-1.239 5.659-1.116 5.687-.99 5.712-.861 5.73-.728 5.744-.593 5.752-.456 5.756-.316 5.754-.174 5.746-.03 5.734.115 5.715.261 5.691.407 5.662.555 5.628.702 5.588.849 5.543.996 5.493 1.142 5.437 1.287 5.379 1.431 5.313 1.574 5.244 1.714 5.171 1.853 5.094 1.989 5.012 2.122 4.926 2.253 4.838 2.381 4.746 2.506 4.651 2.627 4.552 2.745 4.453 2.859 4.35 2.969 4.245 3.075 4.139 3.177 4.032 3.274 3.924 3.367 3.816 3.455 3.706 3.538 3.599 3.617 3.489 3.69 3.382 3.759 3.276 3.824 3.169 3.883 3.066 3.938 2.963 3.989 2.861 4.035 2.763 4.077 2.665 4.116 2.571 4.149 2.478 4.179 2.388 4.207 2.299 4.229 2.214 4.25 2.131 4.266 2.051 4.281 1.971 4.293 1.896 4.302 1.821 4.309 1.75 4.315 1.68 4.317 1.612 4.319 1.546 4.319 1.484 4.317 1.422 4.314 1.364 4.31 1.306 4.304 1.252 4.297 1.199 4.29 1.149 4.281 1.101 4.272 1.055 4.261 1.011 4.251.969 4.24.93 4.227.893 4.216.857 4.203.826 4.19.794 4.178.767 4.164.741 4.152.717 4.138.696 4.126.677 4.114.661 4.101.646 4.09.634 4.078.625 4.068.616 4.058.611 4.049.608 4.041.605 4.033.606 4.027.607 4.021.611 4.017.616 4.015.622 4.013.628 4.013.637 4.014.645 4.016.654 4.021.664 4.026.672 4.034.681 4.042.689 4.053 1.397 8.143" fill="#cf5754"/></g><defs><clipPath id="A"><path fill="#fff" d="M0 0h605v441H0z"/></clipPath></defs></svg>