<svg xmlns="http://www.w3.org/2000/svg" width="435" height="482" fill="none" xmlns:v="https://vecta.io/nano"><path fill-rule="evenodd" d="M71.85 373.326h0l-1.64-2.186-1.572-2.239-1.502-2.288-1.432-2.335-1.361-2.379-1.291-2.419-1.221-2.457-1.152-2.49-1.084-2.519-1.017-2.545-.952-2.568-.888-2.587-.826-2.603-.765-2.616-.706-2.625-.649-2.633-.594-2.637-.541-2.638-.489-2.638-.441-2.635-.395-2.629-.351-2.622-.31-2.612-.271-2.6-.236-2.587-.203-2.571-.173-2.556-.146-2.537-.122-2.519-.101-2.499-.082-2.478-.067-2.457-.055-2.435-.046-2.413-.04-2.39-.037-2.368-.038-2.345-.042-2.322-.05-2.3-.062-2.278-.077-2.257-.096-2.237-.119-2.216-.144-2.199-.174-2.182-.207-2.166-.243-2.152-.282-2.141-.324-2.131-.368-2.123-.415-2.119-.464-2.116-.514-2.116-.567-2.119-.62-2.125-.674-2.135-.729-2.146-.783-2.161-.838-2.18-.891-2.2-.944-2.225-.995-2.253-1.044-2.283-1.091-2.316-1.136-2.351-1.178-2.391-1.216-2.431-1.251-2.475-1.282-2.52-1.309-2.568-1.332-2.616-1.35-2.667-1.363-2.719-1.371-2.771-1.375-2.824-1.372-2.878-1.365-2.932-1.352-2.986-1.335-3.039-1.311-3.092-1.282-3.144-1.248-3.195-1.209-3.244-1.165-3.293-1.116-3.338-1.062-3.383-1.005-3.425-.944-3.465-.879-3.503-.811-3.54-.741-3.573-.667-3.605-.592-3.634-.514-3.66-.434-3.685-.353-3.707-.269-3.726-.184-3.743-.097-3.756-.008-3.767.082-3.775.175-3.779.269-3.78.366-3.777.465-3.769.566-3.757.671-3.739.779-3.716.888-3.688 1-3.654 1.114-3.614 1.23-3.568 1.346-3.517 1.463-3.46 1.581-3.397 1.698-3.329 1.815-3.256 1.932-3.177 2.047-3.093 2.161-3.004 2.273-2.91 2.383-2.811 2.49-2.708 2.595-2.601 2.697-2.49 2.796-2.375 2.891-2.257 2.982-2.136 3.069-2.012 3.152-1.885 3.231-1.756 3.304-1.626 3.373-1.493 3.438-1.36 3.497-1.226 3.551-1.091 3.6-.957 3.644-.822 3.682-.688 3.715-.554 3.743-.422L92.34.506l3.784-.163L99.92.306l3.803.088 3.806.209 3.804.328 3.797.443 3.785.555 3.77.663 3.749.767 3.726.868 3.698.963 3.666 1.055 3.632 1.142 3.594 1.224 3.554 1.301 3.51 1.373 3.464 1.44 3.417 1.502 3.367 1.56 3.315 1.614 3.264 1.663 3.209 1.709 3.156 1.752 3.1 1.791 3.045 1.827 2.989 1.86 2.932 1.891 2.876 1.918 2.819 1.943 2.763 1.965 2.707 1.984 2.651 2 2.595 2.013 2.54 2.023 2.486 2.029 2.432 2.032 2.38 2.031 2.329 2.026 2.279 2.016 2.23 2.002 2.185 1.983 2.141 1.959 2.099 1.931 2.06 1.898 2.025 1.861 1.991 1.82 1.961 1.774 1.935 1.725 1.912 1.673 1.893 1.618 1.877 1.56 1.866 1.499 1.858 1.436 1.854 1.371 1.855 1.305 1.86 1.238 1.868 1.17 1.88 1.102 1.897 1.033 1.918.965 1.942.898 1.969.831 2.002.767 2.036.704 2.074.643 2.115.585 2.158.529 2.205.477 2.254.429 2.303.384 2.356.343 2.41.306 2.463.274 2.519.247 2.575.224 2.631.206 2.686.194 2.742.186 2.796.184 2.849.186 2.9.195 2.951.208 2.998.226 3.045.25 3.087.278 3.128.312 3.165.35 3.198.392 3.23.44 3.256.491 3.279.546 3.298.605 3.314.668 3.324.733 3.33.802 3.332.874 3.329.949 3.322 1.025 3.308 1.106 3.291 1.186 3.267 1.27 3.239 1.354 3.206 1.441 3.167 1.528 3.122 1.615 3.072 1.705 3.016 1.793 2.955 1.882 2.888 1.97 2.814 2.06 2.736 2.147 2.651 2.234 2.561 2.32 2.462 2.405 2.36 2.488 2.249 2.57 2.134 2.648 2.012 2.726 1.885 2.799 1.755 2.869 1.62 2.935 1.482 2.997 1.343 3.055 1.201 3.108 1.059 3.155.917 3.198.775 3.235.635 3.267.498 3.294.364 3.316.232 3.331.106 3.343-.015 3.35-.13 3.35-.239 3.349-.342 3.341-.436 3.331-.522 3.316-.602 3.3-.672 3.281-.733 3.259-.787 3.236-.829 3.212-.865 3.186-.891 3.162-.907 3.137-.917 3.113-.916 3.091-.909 3.069-.894 3.05-.872 3.034-.843 3.019-.808 3.008-.769 3.001-.724 2.997-.676 2.996-.625 2.999-.571 3.006-.516 3.017-.46 3.031-.405 3.05-.35 3.071-.297 3.096-.247 3.125-.2 3.154-.158 3.188-.12 3.222-.087 3.259-.06 3.296-.039 3.335-.023 3.374-.013 3.413-.008 3.453-.008 3.492-.016 3.531-.029 3.569-.046 3.606-.072 3.641-.101 3.674-.137 3.705-.178 3.734-.226 3.76-.278 3.783-.335 3.802-.398 3.819-.466 3.831-.536 3.84-.613 3.845-.691 3.845-.773 3.843-.858 3.836-.946 3.826-1.035 3.811-1.126 3.792-1.22 3.769-1.316 3.741-1.413 3.708-1.512 3.671-1.613 3.629-1.714 3.58-1.817 3.528-1.92 3.47-2.024 3.408-2.128 3.338-2.231 3.265-2.335 3.187-2.437 3.103-2.539 3.015-2.639 2.921-2.738 2.823-2.834 2.721-2.928 2.614-3.02 2.505-3.108 2.39-3.194 2.273-3.276 2.152-3.354 2.029-3.429 1.905-3.499 1.776-3.565 1.648-3.627 1.518-3.683 1.387-3.735 1.255-3.783 1.124-3.825.993-3.862.862-3.894.733-3.922.606-3.944.479-3.962.355-3.974.234-3.983.115-3.986-.001-3.985-.114-3.98-.223-3.97-.328-3.958-.43-3.94-.528-3.92-.622-3.897-.711-3.87-.797-3.84-.878-3.809-.955-3.774-1.028-3.738-1.097-3.699-1.161-3.66-1.223-3.618-1.28-3.575-1.334-3.532-1.385-3.488-1.433-3.442-1.476-3.396-1.518-3.349-1.555-3.303-1.589-3.256-1.622-3.209-1.65-3.162-1.674-3.116-1.697-3.069-1.716-3.024-1.73-2.978-1.742-2.935-1.75-2.891-1.753-2.85-1.752-2.81-1.747-2.771-1.737-2.735-1.723-2.701-1.704-2.669-1.682-2.64-1.658-2.612-1.63-2.588-1.602-2.566-1.571-2.546-1.54-2.529-1.508-2.514-1.476-2.5-1.446-2.49-1.416-2.48-1.387-2.472-1.362-2.466-1.338-2.46-1.318-2.455-1.3-2.451-1.286-2.446-1.276-2.441-1.27-2.436-1.268-2.43-1.27-2.423-1.277-2.414-1.289-2.403-1.305-2.391-1.325-2.375-1.35-2.358-1.379-2.337-1.412-2.314-1.449-2.287-1.49-2.257-1.535-2.223-1.581-2.186-1.631-2.146-1.683-2.102-1.737-2.055-1.793-2.004-1.849-1.95-1.906-1.893-1.964-1.833-2.021-1.771-2.077-1.706-2.133" fill="#cf5754"/></svg>