<svg xmlns="http://www.w3.org/2000/svg" width="90" height="80" fill="none" xmlns:v="https://vecta.io/nano"><path d="M52.287 30.138c0-3.932-2.498-6.102-6.886-6.102h-8.071v12.667h6.806c5.253-.018 8.151-2.366 8.151-6.565zm29.386-2.277c-1.521-5.497-1.746-12.24-1.569-17.453C80.279 4.982 76.468 0 71.343 0H18.689c-5.141 0-8.936 4.999-8.76 10.408.16 5.213-.048 11.956-1.569 17.453C6.822 33.377 4.244 36.864 0 37.308v5.071c4.228.445 6.822 3.932 8.359 9.447 1.521 5.498 1.746 12.24 1.569 17.453-.176 5.426 3.635 10.408 8.76 10.408h52.639c5.141 0 8.936-4.999 8.76-10.408-.16-5.213.048-11.956 1.569-17.453 1.537-5.515 4.116-9.002 8.343-9.447v-5.071c-4.212-.445-6.806-3.932-8.327-9.447zM46.954 61.042H31.276V18.645h15.598c6.934 0 11.482 4.163 11.482 10.568 0 4.501-3.059 8.522-6.966 9.216v.231c5.317.641 8.888 4.733 8.888 10.372 0 7.49-5.013 12.009-13.324 12.009zm-1.601-19.339h-8.023v13.948h8.375c5.477 0 8.376-2.437 8.376-7.028 0-4.572-2.979-6.921-8.728-6.921z" fill="#cf5754"/></svg>