<svg xmlns="http://www.w3.org/2000/svg" width="54" height="44" fill="none" xmlns:v="https://vecta.io/nano"><path d="M48.938.469H5.063C2.268.469 0 2.521 0 5.05v33.591c0 2.529 2.268 4.581 5.063 4.581h43.875c2.795 0 5.063-2.052 5.063-4.581V5.05C54 2.521 51.732.469 48.938.469zm0 37.599c0 .315-.285.573-.633.573H5.695c-.348 0-.633-.258-.633-.573V5.622c0-.315.285-.573.633-.573h42.609c.348 0 .633.258.633.573v32.446zM37.6 15.986l-6.476 5.859 6.476 5.859c.485.439.485 1.155 0 1.603l-2.352 2.128a1.36 1.36 0 0 1-1.772 0L27 25.577l-6.476 5.859a1.36 1.36 0 0 1-1.772 0L16.4 29.308c-.485-.439-.485-1.155 0-1.603l6.476-5.859-6.476-5.859c-.485-.439-.485-1.155 0-1.603l2.352-2.128a1.36 1.36 0 0 1 1.772 0L27 18.114l6.476-5.859a1.36 1.36 0 0 1 1.772 0l2.352 2.128c.496.439.496 1.155 0 1.603z" fill="#000"/></svg>