<svg xmlns="http://www.w3.org/2000/svg" width="60" height="85" fill="none" xmlns:v="https://vecta.io/nano"><path d="M13.333 84.668C5.97 84.668 0 79.252 0 72.572s5.97-12.095 13.333-12.095h9.523c2.103 0 3.81 1.548 3.81 3.456v8.639c0 6.68-5.97 12.095-13.333 12.095zm33.333-60.477h-9.523c-2.103 0-3.81-1.548-3.81-3.456V3.456C33.333 1.548 35.04 0 37.143 0h9.523C54.03 0 60 5.416 60 12.095s-5.97 12.095-13.333 12.095zM13.333 0h9.523c2.103 0 3.81 1.548 3.81 3.456v17.278c0 1.908-1.707 3.456-3.81 3.456h-9.523C5.97 24.191 0 18.775 0 12.095S5.97 0 13.333 0zm0 30.238h9.523c2.103 0 3.81 1.548 3.81 3.456v17.278c0 1.908-1.707 3.456-3.81 3.456h-9.523C5.97 54.429 0 49.014 0 42.334s5.97-12.095 13.333-12.095zm33.333 0c-3.536 0-6.928 1.274-9.428 3.543s-3.905 5.345-3.905 8.553 1.405 6.284 3.905 8.553 5.892 3.543 9.428 3.543 6.928-1.274 9.428-3.543S60 45.542 60 42.334s-1.405-6.284-3.905-8.553-5.892-3.543-9.428-3.543z" fill="#cf5754"/></svg>