<svg xmlns="http://www.w3.org/2000/svg" width="71" height="71" fill="none" xmlns:v="https://vecta.io/nano"><path d="M35.623.1c-19.329 0-35 15.917-35 35.548 0 16.657 11.293 30.595 26.518 34.452-.163-.48-.268-1.037-.268-1.727v-6.076h-4.398c-2.395 0-4.524-1.046-5.556-2.989-1.146-2.16-1.345-5.463-4.185-7.483-.843-.672-.201-1.44.77-1.336 1.794.515 3.281 1.766 4.681 3.62 1.394 1.857 2.05 2.278 4.655 2.278 1.263 0 3.153-.074 4.932-.358.957-2.468 2.61-4.74 4.632-5.812-11.655-1.218-17.217-7.107-17.217-15.102 0-3.442 1.444-6.772 3.897-9.577-.805-2.785-1.817-8.463.309-10.626 5.244 0 8.415 3.454 9.176 4.387 2.613-.909 5.483-1.425 8.499-1.425 3.022 0 5.903.516 8.523 1.431.752-.927 3.926-4.393 9.182-4.393 2.135 2.165 1.111 7.868.297 10.647 2.438 2.799 3.873 6.12 3.873 9.557 0 7.989-5.553 13.876-17.191 15.099 3.203 1.697 5.539 6.467 5.539 10.06v8.099c0 .308-.067.53-.102.794 13.638-4.855 23.436-18.008 23.436-33.519C70.623 16.017 54.951.1 35.623.1z" fill="#fff"/></svg>