<svg xmlns="http://www.w3.org/2000/svg" width="71" height="70" fill="none" xmlns:v="https://vecta.io/nano"><path d="M63 0H8C3.859 0 .5 3.359.5 7.5v55C.5 66.641 3.859 70 8 70h55c4.141 0 7.5-3.359 7.5-7.5v-55C70.5 3.359 67.141 0 63 0zM43.828 59.953c-1.312.234-1.797-.578-1.797-1.25l.031-8.641c0-2.437-.812-3.984-1.766-4.797 5.781-.641 11.875-1.437 11.875-11.422 0-2.844-1.016-4.266-2.672-6.094.266-.672 1.156-3.437-.266-7.031-2.172-.672-7.141 2.797-7.141 2.797-2.063-.578-4.297-.875-6.5-.875s-4.438.297-6.5.875c0 0-4.969-3.469-7.141-2.797-1.422 3.578-.547 6.344-.266 7.031-1.656 1.828-2.437 3.25-2.437 6.094 0 9.937 5.828 10.781 11.609 11.422-.75.672-1.422 1.828-1.656 3.484-1.484.672-5.281 1.828-7.547-2.172-1.422-2.469-3.984-2.672-3.984-2.672-2.531-.031-.172 1.594-.172 1.594 1.688.781 2.875 3.781 2.875 3.781 1.516 4.641 8.766 3.078 8.766 3.078l.031 6.344c0 .672-.469 1.484-1.797 1.25C17.063 56.5 9.844 46.688 9.844 35.219c0-14.344 10.969-25.234 25.312-25.234s25.969 10.891 25.969 25.234c.016 11.469-6.984 21.297-17.297 24.734zM28.5 50.406c-.297.063-.578-.062-.609-.266-.031-.234.172-.437.469-.5.297-.031.578.094.609.297.047.203-.156.406-.469.469zm-1.484-.141c0 .203-.234.375-.547.375-.344.031-.578-.141-.578-.375 0-.203.234-.375.547-.375.297-.031.578.141.578.375zm-2.141-.172c-.062.203-.375.297-.641.203-.297-.062-.5-.297-.437-.5s.375-.297.641-.234c.313.094.516.328.438.531zm-1.922-.844c-.141.172-.437.141-.672-.094-.234-.203-.297-.5-.141-.641.141-.172.438-.141.672.094.203.203.281.516.141.641zm-1.422-1.422c-.141.094-.406 0-.578-.234s-.172-.5 0-.609c.172-.141.438-.031.578.203.172.234.172.516 0 .641zm-1.016-1.516c-.141.141-.375.063-.547-.094-.172-.203-.203-.438-.063-.547.141-.141.375-.062.547.094.172.203.203.438.063.547zm-1.047-1.156c-.063.141-.266.172-.438.063-.203-.094-.297-.266-.234-.406.063-.094.234-.141.438-.062.203.109.297.281.234.406z" fill="#fff"/></svg>