<svg xmlns="http://www.w3.org/2000/svg" width="80" height="80" fill="none" xmlns:v="https://vecta.io/nano"><path d="M10 0C4.477 0 0 4.477 0 10v60c0 5.523 4.477 10 10 10h60c5.523 0 10-4.477 10-10V10c0-5.523-4.477-10-10-10H10zm33.536 62.393c0 7.786-4.571 11.339-11.232 11.339-4.422 0-7.475-1.678-9.492-4.063-1.226-1.45-.556-3.559 1.07-4.54h0c1.785-1.078 3.869-.205 5.524 1.063.672.515 1.491.826 2.576.826 2.464 0 4.036-.964 4.036-4.732V40.491a3.76 3.76 0 0 1 3.759-3.759h0a3.76 3.76 0 0 1 3.759 3.759v21.902zm17.786 11.339c-5.336 0-9.233-1.94-11.755-4.8-1.292-1.466-.619-3.642 1.074-4.619h0c1.73-.999 3.856-.326 5.375.972 1.304 1.114 2.943 1.805 5.145 1.805 3.107 0 5.107-1.554 5.107-3.714 0-2.571-2.036-3.482-5.482-5l-1.875-.804c-5.429-2.303-9.018-5.214-9.018-11.339 0-5.643 4.304-9.928 11-9.928 3.654 0 6.517.968 8.764 3.366 1.257 1.342.703 3.427-.846 4.419h0c-1.679 1.075-3.78.238-5.54-.697-.693-.368-1.475-.534-2.396-.534-2.196 0-3.589 1.393-3.589 3.214 0 2.25 1.393 3.161 4.625 4.572l1.875.803c6.393 2.732 9.982 5.536 9.982 11.822 0 6.75-5.321 10.464-12.446 10.464z" fill="#cf5754"/></svg>