<svg xmlns="http://www.w3.org/2000/svg" width="71" height="70" fill="none" xmlns:v="https://vecta.io/nano"><path d="M.5 5.014C.5 2.244 2.801 0 5.641 0h59.719C68.199 0 70.5 2.244 70.5 5.014v59.973c0 2.769-2.301 5.014-5.141 5.014H5.641C2.801 70 .5 67.756.5 64.986V5.014zm21.626 53.585V26.989H11.621v31.609h10.504zm-5.25-35.927c3.662 0 5.941-2.424 5.941-5.46-.066-3.102-2.275-5.46-5.871-5.46S11 14.114 11 17.211c0 3.036 2.279 5.46 5.806 5.46h.07zm21.473 35.927V40.946c0-.945.07-1.89.35-2.564.757-1.886 2.485-3.841 5.39-3.841 3.802 0 5.32 2.896 5.32 7.149v16.909h10.504v-18.13c0-9.713-5.18-14.228-12.093-14.228-5.574 0-8.072 3.062-9.472 5.219v.109h-.07l.07-.109v-4.471h-10.5c.131 2.966 0 31.609 0 31.609h10.5z" fill="#fff"/></svg>