<svg xmlns="http://www.w3.org/2000/svg" width="50" height="50" fill="none" xmlns:v="https://vecta.io/nano"><path d="M0 3.581C0 1.603 1.644 0 3.672 0h42.656C48.356 0 50 1.603 50 3.581v42.838C50 48.397 48.356 50 46.328 50H3.672C1.644 50 0 48.397 0 46.419V3.581zm15.447 38.275V19.278H7.944v22.578h7.503zm-3.75-25.662c2.616 0 4.244-1.731 4.244-3.9-.047-2.216-1.625-3.9-4.194-3.9S7.5 10.081 7.5 12.294c0 2.169 1.628 3.9 4.147 3.9h.05zm15.338 25.662V29.247c0-.675.05-1.35.25-1.831.541-1.347 1.775-2.744 3.85-2.744 2.716 0 3.8 2.069 3.8 5.106v12.078h7.503v-12.95c0-6.937-3.7-10.162-8.638-10.162-3.981 0-5.766 2.187-6.766 3.728v.078h-.05l.05-.078v-3.194h-7.5c.094 2.119 0 22.578 0 22.578h7.5z" fill="#cf5754"/></svg>