<svg xmlns="http://www.w3.org/2000/svg" width="71" height="71" fill="none" xmlns:v="https://vecta.io/nano"><path d="M16.291 70.1H1.779V23.365h14.512V70.1zM9.027 16.99c-4.641 0-8.405-3.844-8.405-8.485 0-2.229.885-4.367 2.462-5.943S6.798.1 9.027.1s4.367.886 5.943 2.462 2.462 3.714 2.462 5.943c0 4.641-3.766 8.485-8.405 8.485zM70.607 70.1H56.126V47.35c0-5.422-.109-12.375-7.545-12.375-7.545 0-8.702 5.891-8.702 11.985V70.1H25.382V23.365h13.919v6.375h.203c1.938-3.672 6.67-7.547 13.731-7.547 14.688 0 17.388 9.672 17.388 22.235V70.1h-.016z" fill="#fff"/></svg>