<svg xmlns="http://www.w3.org/2000/svg" width="72" height="59" fill="none" xmlns:v="https://vecta.io/nano"><path d="M59.219 36.531h5.062c2.896 0 4.344.99 4.344 2.969 0 1.417-.51 2.521-1.531 3.313-1 .792-2.417 1.188-4.25 1.188h-5.938c-2.167 0-3.844-.448-5.031-1.344-1.167-.917-1.75-2.219-1.75-3.906 0-1.083.438-2.667 1.313-4.75l8.031-18.812-6.031 6.469C52 23.219 50.635 24 49.344 24c-1.688 0-2.781-1.156-3.281-3.469l-.875-3.875-7.625 18.813c-2.625 6.458-4.625 10.844-6 13.156-1.375 2.333-3.156 4.354-5.344 6.063-3.167 2.458-6.802 3.688-10.906 3.688-4.375 0-7.927-1.385-10.656-4.156C1.927 51.469.563 47.875.563 43.438.563 37.625 2.708 32.51 7 28.094c2.313-2.354 5.198-4.25 8.656-5.688 3.458-1.458 6.865-2.187 10.219-2.187 1.708 0 3.073.364 4.094 1.094S31.5 23.01 31.5 24.219c0 1.271-.542 2.302-1.625 3.094-.625.458-1.833.771-3.625.938-4.146.375-7.49 1.323-10.031 2.844-2.104 1.271-3.781 2.927-5.031 4.969-1.229 2.042-1.844 4.177-1.844 6.406 0 2.375.604 4.24 1.812 5.594 1.208 1.375 2.865 2.063 4.969 2.063 2.521 0 4.708-1.083 6.563-3.25 1.875-2.146 3.927-5.948 6.156-11.406L41.25 4.938C42.333 2.25 43.792.906 45.625.906c1.167 0 2.083.375 2.75 1.125.688.75 1.281 2.063 1.781 3.938l1.906 7.187 9.375-9.219C63.5 1.917 65.427.906 67.219.906c1.25 0 2.302.385 3.156 1.156.875.75 1.313 1.667 1.313 2.75 0 .688-.167 1.438-.5 2.25l-.719 1.75-11.25 27.719z" fill="#4675f4"/></svg>