<svg xmlns="http://www.w3.org/2000/svg" width="71" height="71" fill="none" xmlns:v="https://vecta.io/nano"><path d="M35.623.1c-19.32 0-35 15.68-35 35s15.68 35 35 35h17.5v-7h-17.5c-15.19 0-28-12.81-28-28s12.81-28 28-28 28 12.81 28 28v5.005c0 2.765-2.485 5.495-5.25 5.495s-5.25-2.73-5.25-5.495V35.1a17.51 17.51 0 0 0-17.5-17.5 17.51 17.51 0 0 0-17.5 17.5 17.51 17.51 0 0 0 17.5 17.5c4.83 0 9.24-1.96 12.39-5.145 2.275 3.115 6.195 5.145 10.36 5.145 6.895 0 12.25-5.6 12.25-12.495V35.1c0-19.32-15.68-35-35-35zm0 45.5a10.49 10.49 0 1 1 0-21 10.49 10.49 0 1 1 0 21z" fill="#fff"/></svg>