<svg xmlns="http://www.w3.org/2000/svg" xmlns:xlink="http://www.w3.org/1999/xlink" width="378" height="336" fill="none" xmlns:v="https://vecta.io/nano"><style><![CDATA[.B{stroke-linejoin:round}.C{stroke:#2e353a}.D{stroke-linecap:round}.E{fill:#fff}.F{fill:#2e353a}.G{fill:#4675f4}.H{stroke-miterlimit:10}.I{stroke-dasharray:2 4}.J{stroke-width:1.263}]]></style><use xlink:href="#B" class="G"/><use xlink:href="#B" opacity=".7" class="E"/><use xlink:href="#C" class="G"/><g class="E"><use xlink:href="#C" opacity=".5"/><use xlink:href="#D"/><use xlink:href="#D" opacity=".5"/></g><path d="M287.252 333.854h63.2c-1.21-7.662-6.18-6.314-6.84-18.188-.33-5.948 5.26-13.382 4.77-21.232-.4-6.473-6.83-13.104-7.33-20.508-.45-6.681 5-14.095 4.51-21.292-.51-6.799-7-13.331-7.61-20.409-.56-6.938 4.82-14.382 4.18-21.36s-7.27-13.391-8-20.27c-.73-7.068 4.48-14.68 3.68-21.44-.84-7.187-7.68-13.392-8.61-20.013-1-7.365 3.81-15.235 2.68-21.598-1.39-7.791-8.71-13.431-10.25-19.18-2.87-10.715-2.51-21.034-5.9-21.708-3.61-.714-4.44 9.407-7.18 20.717-1.38 5.679-8.53 11.438-9.71 19.239-.95 6.314 4.11 13.996 3.28 21.331-.74 6.572-7.41 12.886-8.06 20.032-.61 6.721 4.8 14.125 4.27 21.153-.52 6.829-7 13.341-7.43 20.28s5.13 14.194 4.75 21.043c-.39 7.018-6.74 13.649-7.07 20.399-.34 7.147 5.35 14.353 5.07 20.974-.31 7.345-6.57 14.066-6.8 20.489-.28 7.791 5.49 14.977 5.31 20.914-.38 12.886-6.33 10.2-6.54 20.568l1.63.059z" class="G"/><g stroke="#000" class="H"><path d="M314.382 107.244V330.96"/><path d="M324.251 130.696l-10.29 8.812-8.419-11.132m18.709 41.264l-10.29 8.802-8.419-11.121m18.709 38.935l-10.29 8.812-8.419-11.132m18.709 45.903l-10.29 8.802-8.419-11.121m18.709 46.359l-10.29 8.802-8.419-11.122"/></g><path d="M244.202 333.854h48.79c-.94-5.947-4.77-4.876-5.28-14.035-.26-4.619 4.05-10.329 3.68-16.395-.31-4.956-5.27-10.12-5.66-15.859-.35-5.154 3.89-10.903 3.48-16.434-.39-5.254-5.42-10.289-5.87-15.751s3.72-11.111 3.23-16.494-5.62-10.338-6.16-15.641c-.56-5.461 3.46-11.329 2.84-16.563-.65-5.541-5.93-10.328-6.64-15.433-.8-5.69 2.94-11.766 2.06-16.672-1.07-6.017-6.72-10.378-7.9-14.809-2.22-8.267-1.94-16.246-4.56-16.761-2.79-.555-3.43 7.255-5.54 15.998-1.06 4.381-6.59 8.831-7.5 14.868-.73 4.877 3.17 10.804 2.53 16.464-.57 5.075-5.71 9.912-6.22 15.463-.47 5.184 3.71 10.903 3.3 16.325-.4 5.273-5.39 10.299-5.74 15.651s4 10.963 3.67 16.246-5.2 10.537-5.45 15.751c-.27 5.511 4.12 11.071 3.91 16.186-.24 5.67-5.07 10.903-5.25 15.859-.22 6.007 4.24 11.568 4.1 16.137-.3 9.912-4.89 7.881-5.05 15.86l1.23.039z" class="G"/><g stroke="#000" class="H"><path d="M265.152 158.935V331.624"/><path d="M272.762 177.035l-7.94 6.8-6.5-8.594m14.44 31.847l-7.94 6.8-6.5-8.584m14.44 30.054l-7.94 6.799-6.5-8.584m14.44 35.426l-7.94 6.8-6.5-8.594m14.44 35.793l-7.94 6.79-6.5-8.584"/></g><path d="M200.711 333.389V132.986h10.67v200.403" class="F"/><path d="M200.711 333.389V132.986h10.67v200.403" class="B C D"/><path d="M195.381 333.389V132.986h10.67v200.403" class="G"/><path d="M195.381 333.389V132.986h10.67v200.403" class="B C D"/><g style="mix-blend-mode:multiply" opacity=".3" class="F"><path d="M206.051 132.986h-10.67v23.789h10.67v-23.789z"/></g><path d="M240.912 54.749h-79.06l34.46 83.896h79.07V88.906c0-4.486-.892-8.929-2.624-13.074a34.15 34.15 0 0 0-7.473-11.083 34.48 34.48 0 0 0-11.183-7.404c-4.182-1.716-8.664-2.599-13.19-2.597z" class="B C G"/><g style="mix-blend-mode:multiply" opacity=".3"><path d="M190.281 123.956l6 14.689h79.1V88.906l-.08-2.25h-85l-.02 37.3z" fill="#000"/></g><g class="C B"><path d="M240.331 86.656h-8.32m43.29 0h-25.18" class="D"/><path d="M161.851 54.749c9.142 0 17.91 3.6 24.374 10.007s10.096 15.098 10.096 24.16v49.739h-68.94V88.906c.003-9.06 3.636-17.748 10.1-24.153s15.23-10.004 24.37-10.004z" class="F"/><g class="G"><path d="M196.311 132.986h-59.4v5.659h59.4v-5.659z"/><path d="M196.311 132.986H73.381v5.659h122.93v-5.659z"/></g></g><path opacity=".3" d="M196.311 132.986h-59.4v5.659h59.4v-5.659z" fill="#000"/><g class="B C"><path d="M246.051 34.529h-24.67v17.178h24.67V34.529z" class="F"/><path d="M223.381 34.529h-5.33v53.525h5.33V34.529z" class="E"/><path d="M220.711 95.32c3.314 0 6-2.663 6-5.947s-2.686-5.947-6-5.947-6 2.663-6 5.947 2.687 5.947 6 5.947z" class="F"/></g><g class="D I B"><path d="M132.722 68.488c13.92 7.008 38.12 18.238 60.44 23.888" stroke="#fff"/><path d="M121.042 62.392s4.459 2.498 11.679 6.136" class="C"/></g><g class="J B C"><path d="M116.032 62.025l10.01-23.571-72.59-17.554 62.58 41.125z" class="E"/><path d="M120.912 41.309l-4.88 20.716-62.58-41.125 67.46 20.409z" class="G"/><g class="E"><path d="M120.912 41.309l-11.39 9.674-56.07-30.083 67.46 20.409z"/><path d="M126.042 38.454l10.14-4.084-82.73-13.471 72.59 17.554z"/></g></g><path d="M101.932 58.357l2.35 1.427m-15.171-9.218l7.87 4.778" class="D B C"/><g class="J B C"><path d="M80.272 107.145V81.581l73.779 11.756-73.779 13.808z" class="E"/><path d="M83.882 86.181l-3.61 20.964 73.779-13.808-70.169-7.156z" class="G"/><g class="E"><path d="M83.881 86.181l6.71 13.292 63.46-6.136-70.17-7.156z"/><path d="M80.271 81.581l-7.74-7.672 81.52 19.428-73.78-11.756z"/></g></g><g class="D B C"><path d="M106.691 106.669l6.4-1.289m-28.88 5.819l16.09-3.241"/><path d="M71.381 105.569s-58 9.912-69 61.455 47 54.516 57 29.736-34-34.692-44-10.903 20 64.428 61 66.411c34.07 1.645 129.59-37.775 189-47.737 0 0 44-12.073 112-9.426" class="I"/><path d="M357.711 267.136h16.67m-16.67 24.443h16.67"/></g><path d="M6.711 290.925h349V267.79h-349" class="E"/><path d="M6.711 290.925h349V267.79h-349" class="B C D"/><use xlink:href="#E" class="F"/><use xlink:href="#E" class="B C D"/><use xlink:href="#F" class="E"/><use xlink:href="#F" class="B C D"/><use xlink:href="#G" class="F"/><use xlink:href="#G" class="B C D"/><use xlink:href="#H" class="E"/><use xlink:href="#H" class="B C D"/><use xlink:href="#I" class="F"/><use xlink:href="#I" class="B C D"/><use xlink:href="#J" class="E"/><use xlink:href="#J" class="B C D"/><use xlink:href="#K" class="F"/><use xlink:href="#K" class="B C D"/><use xlink:href="#L" class="E"/><use xlink:href="#L" class="B C D"/><use xlink:href="#G" x="232" class="F"/><use xlink:href="#G" x="232" class="B C D"/><use xlink:href="#M" class="E"/><g class="B C D"><use xlink:href="#M"/><path d="M41.162 207.207v8.485m3.429-4.104v20.082m65.33-18.436v25.405m3.31-28.686v11.062m79.61-13.897v24.969m4.75-22.957v36.893m66.571-32.789v27.863m10.75-31.144v6.968m69.88-7.384v14.759m9.1-13.114v42.622m-16.541 19.675h-9.1m9.1 6.969h-31.84m-86.839 0h-14.47m-61.61 0h-14.47m-100.07-3.688h-14.47m14.469 6.552h-5.79"/><path d="M211.232 276.76h-7.03m-69.88 7.782h-7.03m-22.33 0h-7.03m267.529-4.094h-6.2m14.47 0h-3.72m-320.63-42.612l-5.5 43.098c-3 21.796 2.5 44.099 4 46.081m-8.39-46.062l.88-6.938m6.501 50.522s-9-1.983-9-17.842c0-6.512.42-13.183.92-18.833m83.589-75.302s2 1.487-1.5 18.337-3 41.631 1.5 55.508m5-42.622s-5 14.868-1.5 35.684m58.5-26.278l5 29.231c2.5 14.859.5 35.684-1.5 41.126s-4 9.912-4 9.912m9.92-7.286c-2.23 6.78-5-1.14-5-1.14m4.91-49.53s4.71 24.096 2.05 42.235m-12.38-34.306s5 10.408.5 20.32m92.801-18.853c.669 3.03 1.548 6.011 2.63 8.921m1.499-60.444a136.47 136.47 0 0 0-6 30.728c-.298 5.28 0 10.576.89 15.79m-4.389-.942s4.5 16.851 7 22.798 1.5 20.31-1.5 27.248m61.98-88.188s10 17.842.5 47.073m8.69-16.603c.06 5.571-.44 12.628-2.69 18.575-4.5 11.895-6.5 15.86-6.5 15.86"/><path d="M347.292 261.625s.33 2.131.53 5.412"/></g><defs ><path id="B" d="M312.381 75.832c-15.56-8.445-31.77-11.835-49.46-9.664-21.79 2.666-39 5.808-59.85-2.24-17.53-6.76-33.54-16.851-50.26-25.216-34.2-17.197-68.15-22.52-93.79 11.399-13.64 18.05-24 38.776-31.15 60.643-11.56 35.277-21.06 74.34-15.85 111.184 6.59 46.706 47 68.631 95.34 51.711 19.55-6.839 38.42-16.85 59.27-19.715 43.63-6.007 79.59 33.701 131.91 24.047 90.18-16.613 83.52-164.333 13.84-202.148z"/><path id="C" d="M326.031 37.78c-6.35-3.439-9.23-.575-11.54-3.439s6.35-10.299-11-17.733c0 0-1.15-16.018-24.82-16.593s-17.29 16.018-23.64 20.022-8.08-2.25-14.43 1.715-3.46 12.014-8.65 13.153-12.13-5.144-18.48-1.14-6.35 7.434-9.23 7.434-8.66-2.29-12.12 0-7.51 5.154-7.51 5.154h146s1.77-5.144-4.58-8.574z"/><path id="D" d="M160.461 166.369c-4.46-2.408-6.49-.406-8.11-2.408s4.46-7.236-7.7-12.46c0 0-.81-11.25-17.44-11.656s-12.16 11.25-16.62 14.065-5.67-1.606-10.13 1.209-2.44 8.435-6.08 9.238-8.52-3.618-13-.803-4.46 5.224-6.48 5.224-6.09-1.606-8.52 0-5.27 3.618-5.27 3.618h102.59s1.22-3.618-3.24-6.027z"/><path id="E" d="M30.971 333.547V217.159c0-.285.059-.568.172-.83s.279-.499.488-.696l9.12-8.515a2.14 2.14 0 0 1 3 .089l8 8.436a2.14 2.14 0 0 1 .57 1.437v116.467"/><path id="F" d="M28.381 334.538V217.159c0-.286.059-.57.174-.832a2.08 2.08 0 0 1 .496-.694l9.12-8.515c.203-.19.441-.338.702-.436s.538-.144.817-.136a2.14 2.14 0 0 1 .807.184c.254.114.483.276.674.477l8 8.435c.367.39.571.904.57 1.438v117.458"/><path id="G" d="M107.872 333.547V217.159a2.08 2.08 0 0 1 .172-.83 2.09 2.09 0 0 1 .488-.696l9.13-8.515a2.11 2.11 0 0 1 .701-.436 2.15 2.15 0 0 1 .817-.136c.279.008.553.071.807.184a2.13 2.13 0 0 1 .675.477l8 8.435c.367.39.571.904.57 1.438v116.467"/><path id="H" d="M105.711 334.538V217.159c0-.286.059-.57.175-.832a2.08 2.08 0 0 1 .495-.694l9.12-8.515c.411-.38.957-.585 1.519-.568a2.14 2.14 0 0 1 1.481.657l8 8.436c.37.389.578.902.58 1.437v117.458"/><path id="I" d="M185.202 333.547V217.159c-.001-.286.059-.57.174-.832a2.07 2.07 0 0 1 .496-.694l9.12-8.515a2.14 2.14 0 0 1 3 .089l8 8.436a2.1 2.1 0 0 1 .58 1.437v117.458"/><path id="J" d="M183.051 334.538V217.159a2.1 2.1 0 0 1 .172-.83 2.12 2.12 0 0 1 .488-.696l9.13-8.515c.203-.19.442-.338.702-.436s.538-.144.817-.136.553.071.807.184.483.276.674.477l8 8.435c.367.39.571.904.57 1.438v117.458"/><path id="K" d="M262.542 333.547V217.159a2.08 2.08 0 0 1 .172-.83 2.09 2.09 0 0 1 .488-.696l9.12-8.515a2.14 2.14 0 0 1 3 .089l8 8.436c.362.392.566.904.57 1.437v116.467"/><path id="L" d="M260.381 334.538V217.159c0-.286.059-.57.175-.832a2.08 2.08 0 0 1 .495-.694l9.12-8.515c.203-.19.442-.338.702-.436s.538-.144.817-.136.553.071.807.184.483.276.674.477l8 8.435a2.09 2.09 0 0 1 .57 1.438v117.458"/><path id="M" d="M337.711 334.538V217.159c0-.286.06-.57.175-.832a2.08 2.08 0 0 1 .495-.694l9.12-8.515c.411-.38.957-.585 1.519-.568a2.14 2.14 0 0 1 1.481.657l8 8.436c.37.389.578.902.58 1.437v117.458"/></defs></svg>