<svg xmlns="http://www.w3.org/2000/svg" width="74" height="52" fill="#fff" xmlns:v="https://vecta.io/nano"><path d="M72.435 6.974L53.601 26.158c-.14.14-.14.35 0 .49l13.18 14.038a2.27 2.27 0 0 1 0 3.221c-.438.438-1.033.665-1.61.665s-1.173-.227-1.61-.665L50.433 29.921a.36.36 0 0 0-.508 0l-3.203 3.256a14.09 14.09 0 0 1-10.047 4.236c-3.868.018-7.544-1.61-10.257-4.358l-3.081-3.133a.36.36 0 0 0-.508 0L9.702 43.906c-.438.438-1.033.665-1.61.665s-1.173-.227-1.61-.665a2.27 2.27 0 0 1 0-3.221l13.18-14.038a.37.37 0 0 0 0-.49L.81 6.974c-.228-.228-.595-.07-.595.245v38.385a5.62 5.62 0 0 0 5.601 5.601h61.613a5.62 5.62 0 0 0 5.601-5.601V7.219c0-.315-.385-.455-.595-.245zm-35.812 25.87a9.51 9.51 0 0 0 6.844-2.871L70.93 2.02A5.5 5.5 0 0 0 67.464.795H5.799c-1.313 0-2.521.455-3.466 1.225l27.463 27.953c1.803 1.838 4.236 2.871 6.826 2.871z"/></svg>