<svg xmlns="http://www.w3.org/2000/svg" width="85" height="80" fill="none" xmlns:v="https://vecta.io/nano"><path d="M69.428 25.824l-2.689-.907.415-1.974c2.042-10.601.697-19.12-3.835-21.931-4.366-2.686-11.488.107-18.693 6.83a46.95 46.95 0 0 0-2.075 2.045c-.448-.462-.913-.925-1.378-1.37-7.554-7.186-15.124-10.209-19.656-7.381-4.35 2.704-5.644 10.725-3.818 20.757a62.89 62.89 0 0 0 .614 2.97c-1.062.32-2.108.676-3.088 1.049C6.358 29.203 0 34.397 0 39.768c0 5.549 6.773 11.117 15.987 14.496.747.267 1.494.534 2.258.765a68.07 68.07 0 0 0-.664 3.202c-1.743 9.871-.382 17.698 3.968 20.383 4.483 2.775 12.02-.071 19.357-6.954.581-.551 1.162-1.121 1.743-1.725.73.765 1.494 1.494 2.258 2.206 7.105 6.545 14.128 9.195 18.461 6.51 4.482-2.775 5.943-11.188 4.051-21.433a79.22 79.22 0 0 0-.498-2.401c.531-.16 1.046-.338 1.56-.516C78.061 50.902 85 45.406 85 39.768c0-5.389-6.541-10.618-15.572-13.944zM46.966 10.723c6.176-5.763 11.936-8.022 14.56-6.403 2.806 1.725 3.885 8.698 2.125 17.858a30.48 30.48 0 0 1-.382 1.779c-3.686-.889-7.421-1.53-11.173-1.885a89.07 89.07 0 0 0-7.072-9.445c.648-.658 1.278-1.281 1.942-1.903zM27.758 48.999c.847 1.547 1.71 3.095 2.623 4.607-2.59-.302-5.163-.747-7.703-1.334.73-2.561 1.644-5.211 2.706-7.915.764 1.565 1.544 3.113 2.374 4.642zm-5.03-21.397c2.391-.569 4.931-1.032 7.57-1.387-.88 1.476-1.743 2.988-2.557 4.518a107.75 107.75 0 0 0-2.357 4.625c-1.046-2.65-1.926-5.247-2.656-7.755zm4.549 12.255c1.096-2.454 2.291-4.856 3.553-7.221s2.623-4.66 4.051-6.919c2.49-.196 5.03-.302 7.62-.302a96.88 96.88 0 0 1 7.62.302 125.9 125.9 0 0 1 4.034 6.883 124.24 124.24 0 0 1 3.602 7.186 121.12 121.12 0 0 1-3.586 7.257c-1.262 2.366-2.606 4.66-4.018 6.937-2.474.196-5.047.285-7.653.285s-5.13-.089-7.57-.249c-1.444-2.259-2.806-4.571-4.084-6.937a114.93 114.93 0 0 1-3.569-7.221zm29.982 9.107a125.81 125.81 0 0 0 2.424-4.749 86.29 86.29 0 0 1 2.806 7.879 68.51 68.51 0 0 1-7.803 1.423c.897-1.494 1.743-3.024 2.573-4.553zm2.391-13.606c-.78-1.565-1.577-3.13-2.407-4.66-.813-1.512-1.66-3.006-2.54-4.482 2.673.356 5.23.836 7.62 1.423-.764 2.632-1.66 5.194-2.673 7.719zm-17.116-20.01c1.743 2.028 3.387 4.162 4.914 6.368a101.7 101.7 0 0 0-9.878 0c1.627-2.294 3.304-4.429 4.964-6.367zM23.275 4.444c2.789-1.743 8.981.747 15.506 6.937.415.391.83.818 1.262 1.245-2.573 2.97-4.947 6.136-7.122 9.445a82.12 82.12 0 0 0-11.156 1.85c-.216-.907-.398-1.832-.581-2.757-1.561-8.609-.531-15.101 2.092-16.719zm-4.067 46.885a40.3 40.3 0 0 1-2.059-.694c-3.536-1.192-7.554-3.077-10.459-5.549-1.677-1.245-2.806-3.166-3.121-5.318 0-3.255 5.246-7.417 12.816-10.245.946-.356 1.909-.676 2.872-.978a98.79 98.79 0 0 0 4.067 11.312c-1.594 3.717-2.972 7.559-4.117 11.472zM38.565 68.76c-2.739 2.686-5.91 4.82-9.363 6.279-1.843.943-3.968 1.032-5.86.231-2.64-1.636-3.735-7.915-2.241-16.364.183-.996.382-1.992.614-2.97 3.719.854 7.471 1.441 11.272 1.743 2.191 3.326 4.599 6.51 7.172 9.498-.531.551-1.062 1.085-1.594 1.583zm4.067-4.322a83.07 83.07 0 0 1-5.03-6.456c1.594.071 3.237.107 4.898.107a94.3 94.3 0 0 0 5.047-.124 75.95 75.95 0 0 1-4.914 6.474zm21.698 5.336c-.15 2.17-1.146 4.198-2.739 5.567-2.64 1.636-8.268-.498-14.344-6.083-.697-.64-1.395-1.334-2.108-2.045 2.54-3.006 4.881-6.19 7.006-9.534a76.8 76.8 0 0 0 11.322-1.868 56.6 56.6 0 0 1 .448 2.17c.814 3.842.946 7.844.415 11.792zm3.021-19.12c-.465.16-.93.32-1.411.462-1.162-3.877-2.59-7.666-4.233-11.348 1.594-3.628 2.939-7.364 4.067-11.188.863.267 1.693.551 2.49.836 7.736 2.846 13.165 7.079 13.165 10.316 0 3.486-5.794 7.986-14.078 10.921zM42.5 47.985c4.2 0 7.603-3.646 7.603-8.146S46.7 31.693 42.5 31.693s-7.603 3.646-7.603 8.146 3.403 8.146 7.603 8.146z" fill="#cf5754"/></svg>