<svg xmlns="http://www.w3.org/2000/svg" width="80" height="80" fill="none" xmlns:v="https://vecta.io/nano"><path d="M40 55a15 15 0 0 1-15-15 15 15 0 0 1 15-15 15 15 0 0 1 15 15 15 15 0 0 1-15 15zm0 5a20 20 0 0 0 20-20 20 20 0 0 0-20-20 20 20 0 0 0-20 20 20 20 0 0 0 20 20zm0-60a2.5 2.5 0 0 1 2.5 2.5v10A2.5 2.5 0 0 1 40 15a2.5 2.5 0 0 1-2.5-2.5v-10A2.5 2.5 0 0 1 40 0zm0 65a2.5 2.5 0 0 1 2.5 2.5v10A2.5 2.5 0 0 1 40 80a2.5 2.5 0 0 1-2.5-2.5v-10A2.5 2.5 0 0 1 40 65zm40-25a2.5 2.5 0 0 1-2.5 2.5h-10A2.5 2.5 0 0 1 65 40a2.5 2.5 0 0 1 2.5-2.5h10A2.5 2.5 0 0 1 80 40zm-65 0a2.5 2.5 0 0 1-2.5 2.5h-10A2.5 2.5 0 0 1 0 40a2.5 2.5 0 0 1 2.5-2.5h10A2.5 2.5 0 0 1 15 40zm53.285-28.285a2.5 2.5 0 0 1 0 3.535l-7.07 7.075a2.5 2.5 0 0 1-1.769.731 2.5 2.5 0 0 1-2.31-1.546 2.5 2.5 0 0 1 .544-2.726l7.07-7.07a2.5 2.5 0 0 1 3.535 0zM22.32 57.68a2.5 2.5 0 0 1 0 3.535l-7.07 7.07a2.5 2.5 0 0 1-3.504-.031 2.5 2.5 0 0 1-.03-3.504l7.07-7.07a2.5 2.5 0 0 1 3.535 0zm45.965 10.605a2.5 2.5 0 0 1-3.535 0l-7.07-7.07a2.5 2.5 0 0 1 .031-3.504 2.5 2.5 0 0 1 3.505-.031l7.07 7.07a2.5 2.5 0 0 1 0 3.535zM22.32 22.325a2.5 2.5 0 0 1-3.535 0l-7.07-7.075a2.5 2.5 0 0 1-.763-1.777 2.5 2.5 0 0 1 .732-1.79 2.5 2.5 0 0 1 1.79-.732 2.5 2.5 0 0 1 1.777.763l7.07 7.07a2.5 2.5 0 0 1 .735 1.77 2.5 2.5 0 0 1-.735 1.77z" fill="#fff"/></svg>