<svg xmlns="http://www.w3.org/2000/svg" width="115" height="80" fill="none" xmlns:v="https://vecta.io/nano"><path d="M112.1 15.345c-2.338-1.031-5.046-.01-6.181 2.351-1.073 2.231-2.506 3.601-4.379 4.174-2.933.911-6.435-.259-8.074-1.26-2.161-1.32-4.667-3.322-7.316-5.439C77.694 8.407 67.172 0 52.712 0 41.146 0 35.205 6.171 25.369 16.401c-1.873 1.947-1.888 5.115-.014 7.057a4.63 4.63 0 0 0 6.622.149c.048-.045.096-.095.144-.139 2.645-2.122 19.309-.06 26.591 5.957 10.823 8.94 18.638 15.4 27.54 15.4 12.74 0 23.376-8.671 28.46-23.199.867-2.48-.278-5.234-2.611-6.28zM88.143 50.208c-2.338-1.031-5.045-.01-6.181 2.351-1.073 2.231-2.506 3.601-4.379 4.174-2.932.896-6.435-.259-8.073-1.26-2.161-1.32-4.667-3.322-7.316-5.439-8.457-6.764-18.978-15.17-33.438-15.17-11.566 0-17.507 6.171-27.344 16.401-1.873 1.947-1.888 5.115-.014 7.057 1.821 1.902 4.748 1.967 6.626.149.048-.045.096-.095.144-.139 2.64-2.122 19.314-.06 26.591 5.957 10.819 8.94 18.633 15.4 27.535 15.4 12.74 0 23.376-8.671 28.46-23.199.867-2.48-.278-5.235-2.611-6.28z" fill="#cf5754"/></svg>