<svg xmlns="http://www.w3.org/2000/svg" width="71" height="70" fill="none" xmlns:v="https://vecta.io/nano"><path d="M63 0H8C3.859 0 .5 3.359.5 7.5v55C.5 66.641 3.859 70 8 70h55c4.141 0 7.5-3.359 7.5-7.5v-55C70.5 3.359 67.141 0 63 0zm-7.641 24.813c.031.438.031.891.031 1.328 0 13.547-10.312 29.156-29.156 29.156A29.02 29.02 0 0 1 10.5 50.703c.828.094 1.625.125 2.469.125 4.797 0 9.203-1.625 12.719-4.375-4.5-.094-8.281-3.047-9.578-7.109 1.578.234 3 .234 4.625-.187a10.25 10.25 0 0 1-8.203-10.063v-.125a10.24 10.24 0 0 0 4.625 1.297c-1.405-.935-2.558-2.203-3.354-3.692s-1.211-3.151-1.209-4.839a10.12 10.12 0 0 1 1.391-5.172c5.047 6.219 12.625 10.281 21.125 10.719-1.453-6.953 3.75-12.594 10-12.594a10.21 10.21 0 0 1 7.484 3.234 20.08 20.08 0 0 0 6.5-2.469 10.22 10.22 0 0 1-4.5 5.641c2.063-.219 4.062-.797 5.906-1.594a21.57 21.57 0 0 1-5.141 5.313z" fill="#fff"/></svg>