<?xml version="1.0" standalone="no"?>
<!DOCTYPE svg PUBLIC "-//W3C//DTD SVG 20010904//EN"
 "http://www.w3.org/TR/2001/REC-SVG-20010904/DTD/svg10.dtd">
<svg version="1.0" xmlns="http://www.w3.org/2000/svg"
 width="1152.000000pt" height="1152.000000pt" viewBox="0 0 1152.000000 1152.000000"
 preserveAspectRatio="xMidYMid meet">
<metadata>
Created by potrace 1.14, written by Peter Selinger 2001-2017
</metadata>
<g transform="translate(0.000000,1152.000000) scale(0.100000,-0.100000)"
fill="#000000" stroke="none">
<path d="M7257 10334 c-1 -2 -20 -4 -41 -6 -20 -1 -40 -6 -42 -10 -3 -5 -9 -6
-14 -3 -5 3 -17 2 -27 -3 -10 -5 -45 -22 -78 -37 -147 -71 -280 -220 -389
-441 -41 -82 -118 -265 -125 -296 -1 -4 -17 -41 -36 -83 -19 -41 -35 -77 -35
-80 0 -3 -7 -21 -15 -41 -8 -20 -15 -38 -15 -39 0 -1 -10 -24 -22 -51 -11 -27
-20 -50 -19 -52 1 -1 -5 -15 -13 -31 -9 -16 -12 -31 -9 -35 4 -3 1 -6 -5 -6
-7 0 -12 -9 -12 -19 0 -11 -4 -22 -9 -25 -5 -3 -12 -18 -16 -33 -3 -16 -13
-41 -20 -58 -28 -60 -48 -110 -51 -123 -1 -8 -9 -28 -17 -45 -22 -47 -81 -190
-83 -202 -2 -9 -30 -75 -54 -130 -5 -11 -24 -56 -41 -100 -17 -44 -36 -91 -42
-105 -6 -14 -11 -27 -12 -30 -1 -3 -7 -18 -13 -33 -7 -16 -21 -52 -33 -80 -12
-29 -25 -61 -30 -72 -34 -79 -109 -272 -109 -282 0 -7 -4 -13 -10 -13 -5 0
-10 -5 -10 -12 0 -10 -105 -278 -130 -333 -20 -43 -187 -457 -188 -465 -1 -7
-58 -144 -83 -197 -10 -24 -19 -46 -19 -49 0 -3 -6 -20 -14 -37 -8 -18 -33
-79 -56 -137 -23 -58 -50 -124 -61 -147 -10 -23 -19 -47 -19 -53 0 -5 -4 -18
-10 -28 -5 -9 -25 -55 -44 -102 -19 -47 -43 -103 -52 -125 -10 -22 -19 -44
-20 -50 -1 -5 -28 -71 -59 -145 -31 -74 -58 -139 -59 -145 -4 -15 -15 -42 -49
-119 -16 -38 -30 -74 -31 -80 -2 -6 -11 -29 -21 -51 -10 -22 -17 -46 -16 -52
1 -7 -3 -13 -9 -13 -5 0 -10 -7 -10 -15 0 -8 -11 -39 -25 -69 -14 -30 -25 -58
-25 -61 0 -3 -11 -31 -25 -60 -13 -30 -27 -66 -31 -80 -3 -14 -10 -28 -15 -31
-5 -3 -9 -12 -9 -19 0 -8 -12 -40 -26 -72 -15 -31 -37 -86 -51 -122 -13 -36
-30 -79 -38 -96 -12 -27 -26 -62 -30 -75 0 -3 -9 -20 -18 -38 -10 -17 -15 -32
-12 -32 3 0 -1 -10 -9 -22 -8 -13 -16 -27 -17 -33 -7 -32 -12 -45 -18 -45 -4
0 -8 -6 -8 -13 0 -6 -16 -48 -35 -92 -62 -137 -71 -160 -70 -167 1 -5 -3 -8
-8 -8 -6 0 -10 -6 -10 -12 0 -16 -60 -143 -181 -383 -139 -273 -151 -295 -161
-295 -5 0 -7 -4 -3 -9 3 -5 0 -16 -7 -23 -7 -8 -24 -34 -37 -58 -45 -84 -197
-315 -238 -365 -5 -5 -27 -35 -50 -65 -23 -30 -57 -73 -77 -94 -20 -22 -36
-43 -36 -46 0 -4 -11 -13 -25 -20 -14 -7 -23 -15 -21 -17 3 -4 -94 -96 -154
-147 -85 -73 -333 -209 -397 -219 -10 -1 -22 -5 -28 -9 -15 -8 -152 -39 -210
-46 -64 -9 -319 -8 -365 0 -71 13 -96 18 -120 25 -14 4 -29 7 -35 8 -17 2
-124 44 -168 66 -89 46 -205 133 -261 198 -12 13 -28 31 -37 40 -31 30 -121
172 -149 234 -84 188 -123 381 -123 622 -1 102 7 243 17 290 2 11 6 38 10 60
14 80 58 250 68 263 6 6 8 12 5 12 -8 0 48 140 84 211 10 20 16 39 12 43 -3 3
-2 6 4 6 6 0 16 12 22 28 13 35 69 132 87 153 8 8 14 20 14 25 0 5 20 36 45
69 25 33 45 62 45 65 0 3 12 19 28 36 15 17 45 53 67 80 82 101 309 315 341
322 8 2 14 7 14 11 0 5 19 21 43 37 23 16 44 32 47 35 12 14 223 140 289 173
41 20 81 42 89 49 8 6 16 10 17 7 1 -3 24 5 51 16 89 39 109 48 114 48 3 1 19
6 35 13 54 20 70 26 80 29 6 1 33 10 60 19 28 10 55 19 60 20 6 1 17 5 25 8
19 7 176 47 209 54 39 7 44 9 66 16 11 3 37 8 57 11 21 3 57 10 80 15 24 5 62
12 85 16 79 11 98 14 123 19 38 7 119 17 175 22 28 2 70 6 95 9 25 3 65 8 90
10 25 3 65 8 90 11 25 4 54 8 65 9 42 6 91 16 130 26 22 6 47 13 56 14 34 7
166 66 194 88 64 48 159 152 170 186 3 12 11 21 16 21 5 0 9 9 9 20 0 11 4 20
8 20 12 0 55 183 54 225 -6 162 -44 275 -122 368 -32 39 -97 99 -118 111 -10
5 -23 16 -30 23 -7 7 -19 13 -27 13 -7 0 -15 4 -17 9 -1 5 -32 22 -68 38 -55
26 -79 34 -130 48 -3 0 -14 4 -25 8 -31 10 -106 23 -190 33 -82 9 -298 11
-322 3 -15 -5 -23 -5 -23 2 0 6 -5 7 -11 3 -6 -3 -43 -8 -83 -10 -77 -3 -158
-11 -221 -20 -22 -4 -46 -7 -52 -7 -7 0 -13 -3 -13 -6 0 -3 -17 -6 -37 -6 -43
-1 -99 -10 -188 -30 -33 -8 -72 -16 -87 -19 -66 -14 -79 -17 -103 -26 -14 -5
-29 -9 -33 -8 -7 2 -86 -19 -112 -29 -8 -3 -19 -7 -25 -9 -5 -1 -48 -14 -95
-30 -47 -15 -91 -27 -97 -27 -7 0 -13 -4 -13 -9 0 -4 -8 -8 -17 -8 -10 0 -90
-30 -178 -66 -88 -36 -170 -68 -182 -71 -13 -3 -23 -9 -23 -14 0 -5 -3 -8 -7
-7 -11 4 -264 -119 -363 -176 -25 -14 -56 -31 -70 -38 -14 -7 -44 -25 -67 -40
-23 -15 -46 -28 -52 -28 -6 0 -11 -4 -11 -10 0 -5 -11 -12 -25 -16 -14 -3 -25
-9 -25 -13 0 -4 -19 -18 -43 -31 -23 -13 -46 -29 -50 -37 -4 -7 -13 -13 -18
-13 -11 0 -191 -132 -221 -162 -10 -10 -18 -15 -18 -12 0 3 -6 -1 -14 -8 -7
-7 -45 -40 -82 -73 -121 -104 -349 -338 -438 -448 -25 -32 -55 -68 -66 -79
-11 -12 -22 -29 -25 -39 -3 -9 -12 -20 -20 -23 -8 -3 -15 -12 -15 -20 0 -8 -3
-16 -8 -18 -12 -5 -113 -148 -105 -148 5 0 3 -4 -3 -8 -15 -9 -112 -165 -160
-257 -67 -126 -133 -262 -139 -285 0 -3 -11 -27 -23 -54 -12 -26 -19 -52 -16
-57 3 -5 1 -9 -5 -9 -5 0 -13 -15 -16 -33 -4 -17 -11 -36 -15 -42 -6 -8 -31
-84 -46 -140 -1 -5 -11 -41 -22 -80 -35 -127 -72 -298 -87 -410 -2 -22 -9 -67
-13 -100 -4 -33 -8 -81 -7 -107 0 -27 -3 -48 -7 -48 -8 0 -2 -507 6 -570 27
-197 34 -236 62 -353 2 -9 6 -25 8 -35 32 -141 102 -326 184 -487 31 -60 59
-112 62 -115 10 -10 50 -69 50 -75 0 -6 40 -66 50 -75 3 -3 17 -21 30 -40 46
-65 133 -163 230 -257 103 -100 108 -104 181 -159 35 -27 66 -51 69 -54 3 -3
12 -9 21 -15 9 -5 34 -22 55 -36 55 -37 119 -73 194 -111 36 -18 68 -37 72
-43 4 -5 8 -6 8 -2 0 5 12 1 28 -7 47 -26 247 -98 303 -110 13 -3 49 -12 79
-20 30 -9 71 -18 90 -21 20 -3 47 -7 60 -10 24 -5 49 -9 115 -20 163 -27 637
-27 785 -1 14 3 43 7 65 11 22 3 61 9 88 13 26 5 47 7 47 4 0 -2 7 2 17 9 9 8
18 12 20 11 4 -4 98 12 106 18 1 1 9 3 18 5 32 6 195 56 214 66 12 6 27 11 35
13 8 2 32 10 52 20 21 9 40 16 43 16 4 0 58 25 120 55 63 30 119 55 125 55 5
0 10 4 10 8 0 4 21 18 46 30 40 20 270 167 284 182 3 3 34 27 70 55 121 93
193 158 330 296 136 137 178 184 283 319 47 59 117 161 117 170 0 5 4 10 9 10
6 0 16 11 23 24 7 13 30 52 52 87 51 84 72 120 118 204 44 82 261 515 264 530
3 13 141 314 154 337 6 10 10 25 10 33 0 8 5 15 10 15 6 0 10 5 10 12 0 9 178
432 270 643 5 11 35 83 66 160 31 77 76 187 100 245 24 57 44 110 44 117 0 7
5 13 12 13 6 0 9 3 6 6 -5 4 42 129 82 219 5 11 25 61 45 110 19 50 40 98 45
107 6 10 10 23 10 28 0 6 9 30 21 53 11 23 22 49 24 57 3 13 28 75 68 170 6
14 11 27 12 30 1 3 7 17 13 33 29 68 35 83 37 92 2 6 12 32 24 57 11 26 21 51
21 55 0 5 9 25 20 46 11 20 20 38 19 39 -1 4 13 40 33 88 8 19 15 37 16 40 0
3 8 22 16 42 9 21 16 42 16 48 0 5 5 10 12 10 6 0 9 3 6 6 -5 4 38 116 137
359 4 11 7 23 7 28 -1 4 3 7 8 7 5 0 9 3 8 8 0 4 2 16 7 27 4 11 19 47 32 80
13 33 28 69 33 80 5 11 45 112 90 225 45 113 88 219 95 235 7 17 23 55 35 85
12 30 26 64 31 75 8 19 31 75 34 85 1 3 7 18 13 33 7 16 12 30 12 33 0 2 10
26 21 52 12 26 28 62 36 80 13 30 29 46 20 20 -2 -7 0 -26 5 -43 5 -16 11 -39
13 -50 3 -11 7 -31 10 -45 6 -29 9 -40 31 -135 9 -38 18 -79 19 -90 1 -11 5
-27 8 -35 4 -8 9 -26 11 -40 6 -31 14 -68 22 -100 3 -14 7 -35 9 -47 2 -11 11
-47 20 -80 67 -236 155 -368 294 -441 64 -33 96 -43 166 -49 67 -6 108 -3 165
10 69 17 110 31 110 38 0 5 3 8 8 7 8 -3 74 23 82 32 3 3 28 20 56 38 28 18
62 42 75 53 13 11 44 36 68 57 55 46 167 162 356 368 50 54 110 119 135 145
38 40 131 139 269 288 38 41 202 216 286 306 46 49 54 54 41 28 -9 -18 -14
-33 -11 -33 4 0 -3 -17 -13 -37 -11 -21 -30 -63 -42 -93 -20 -47 -43 -102 -80
-185 -5 -11 -34 -81 -65 -155 -31 -74 -65 -154 -76 -177 -10 -24 -19 -45 -19
-47 0 -2 -15 -37 -33 -78 -36 -78 -101 -230 -103 -238 0 -3 -8 -22 -17 -42
-41 -92 -50 -114 -53 -123 -2 -9 -73 -173 -106 -245 -6 -14 -12 -29 -14 -35
-1 -9 -13 -35 -69 -160 -7 -16 -23 -54 -35 -84 -12 -30 -33 -80 -48 -110 -14
-31 -28 -65 -29 -75 -2 -11 -11 -28 -20 -38 -9 -10 -13 -18 -9 -18 3 0 0 -14
-9 -30 -9 -16 -12 -30 -8 -30 5 0 3 -4 -2 -8 -10 -7 -19 -25 -45 -87 -7 -16
-18 -43 -25 -60 -22 -49 -56 -130 -56 -132 0 -1 -27 -63 -59 -137 -32 -74 -55
-137 -52 -140 3 -3 0 -6 -6 -6 -8 0 -32 -52 -37 -80 0 -3 -8 -21 -17 -40 -25
-52 -156 -364 -159 -378 -1 -4 -10 -29 -21 -57 -28 -70 -80 -226 -83 -250 -2
-11 -4 -20 -5 -20 -1 0 -3 -7 -5 -15 -1 -8 -7 -33 -13 -55 -41 -155 -36 -377
11 -525 14 -44 81 -172 104 -201 66 -80 165 -166 221 -190 17 -8 32 -17 32
-21 0 -5 9 -8 20 -8 11 0 20 -4 20 -9 0 -5 10 -11 23 -14 12 -3 54 -16 92 -30
85 -30 120 -40 160 -43 17 -1 32 -3 35 -5 11 -5 121 -20 170 -22 19 -2 40 -6
47 -10 6 -4 14 -4 17 1 6 10 71 6 88 -4 7 -4 8 -3 4 4 -5 9 0 9 18 2 16 -6 27
-6 31 1 4 6 13 6 23 0 9 -5 26 -5 39 0 14 5 23 5 23 -1 0 -6 9 -6 23 -1 13 5
30 5 39 0 11 -6 19 -5 23 1 4 7 13 7 26 0 13 -8 19 -7 19 0 0 7 6 8 19 0 13
-6 22 -7 26 0 3 6 15 6 30 0 15 -6 27 -6 30 1 4 6 13 6 23 0 9 -5 26 -5 39 0
15 5 23 5 23 -2 0 -6 4 -7 10 -4 15 9 91 12 96 3 3 -5 14 -4 24 2 10 6 21 6
24 2 3 -5 28 -6 56 -2 28 4 53 3 56 -2 3 -4 13 -4 23 1 9 5 23 6 30 2 7 -5 30
-5 52 -1 22 4 42 4 45 -1 2 -4 16 -4 29 1 14 5 25 6 25 2 0 -4 20 -7 45 -7 25
0 45 2 45 5 0 3 21 5 48 6 56 1 170 12 192 19 8 2 26 6 40 9 50 8 183 57 239
88 69 37 108 67 165 121 42 41 133 167 120 167 -3 0 1 11 10 25 24 36 53 174
52 244 -1 34 3 61 7 61 5 0 5 5 1 11 -3 6 -8 27 -10 46 -8 85 -48 168 -113
232 -52 52 -162 111 -236 127 -5 1 -32 7 -60 14 -89 21 -173 24 -632 24 -249
1 -453 5 -453 9 0 5 7 25 16 45 59 138 194 477 194 490 0 7 4 12 9 12 4 0 14
21 21 48 7 26 19 54 26 62 7 8 12 19 12 23 0 8 53 145 84 214 10 23 18 44 18
48 0 3 9 24 19 48 16 36 30 70 36 87 1 3 7 17 13 32 6 15 28 67 48 115 20 48
41 99 47 113 5 14 11 30 12 35 2 6 11 31 22 55 11 25 26 61 33 80 7 19 24 59
37 88 12 29 23 55 23 58 0 3 6 20 14 37 8 18 38 91 66 162 28 72 58 143 66
159 8 16 14 33 14 38 0 5 12 34 26 64 14 30 27 60 28 67 2 7 8 23 13 37 6 14
23 54 37 90 15 36 31 74 35 85 50 117 76 181 77 188 1 4 3 9 4 12 1 3 3 8 4
13 1 4 10 25 20 47 10 22 31 74 47 115 16 41 34 84 39 95 5 11 30 72 56 135
25 63 51 126 57 140 5 14 11 30 13 35 2 8 50 127 89 220 5 11 9 22 10 25 1 3
6 16 12 30 62 148 126 307 126 318 0 6 4 12 9 12 4 0 8 6 8 14 0 7 13 44 29
82 28 66 43 103 45 114 1 3 7 14 13 25 6 11 11 23 12 28 0 4 8 24 17 45 8 20
31 75 50 122 19 47 39 93 44 102 6 10 10 23 10 28 0 6 9 30 19 54 11 23 30 67
41 97 12 30 28 68 35 84 35 79 95 239 95 254 0 10 3 21 7 25 4 3 8 12 9 19 1
7 5 26 9 42 13 54 13 242 0 287 -21 77 -39 116 -79 178 -36 54 -173 190 -192
190 -3 0 -19 9 -35 21 -30 21 -139 68 -174 75 -11 2 -31 7 -45 10 -82 20 -226
23 -310 7 -19 -4 -39 -8 -45 -9 -5 -1 -13 -3 -17 -4 -5 -1 -11 -3 -15 -4 -116
-30 -239 -88 -361 -170 -113 -76 -143 -97 -158 -111 -6 -5 -39 -35 -74 -65
-62 -54 -203 -191 -730 -709 -145 -144 -268 -261 -272 -261 -5 0 -8 -4 -8 -9
0 -5 -41 -48 -91 -97 -50 -49 -164 -160 -252 -246 -88 -87 -164 -158 -170
-158 -6 0 -8 -3 -5 -6 6 -5 -73 -84 -88 -87 -4 -1 -13 21 -20 48 -7 28 -14 52
-15 55 -1 3 -3 10 -4 15 -2 6 -8 30 -15 55 -7 25 -15 54 -16 65 -2 11 -19 76
-38 145 -19 68 -32 128 -30 132 3 5 0 8 -6 8 -7 0 -10 6 -7 14 3 7 2 17 -3 22
-5 5 -11 23 -14 39 -6 35 -37 158 -62 240 -9 32 -18 65 -19 74 -2 9 -4 16 -5
16 -2 0 -7 19 -15 57 -3 15 -10 39 -15 53 -5 14 -7 25 -5 25 2 0 0 12 -6 28
-6 15 -13 36 -15 48 -5 28 -58 199 -77 249 -8 22 -18 49 -23 60 -4 11 -6 23
-6 28 1 4 -2 7 -8 7 -6 0 -9 3 -8 8 2 8 -61 144 -71 152 -3 3 -13 18 -21 34
-21 40 -139 166 -156 166 -8 0 -14 4 -14 9 0 10 -130 71 -152 71 -8 0 -18 3
-22 7 -4 4 -26 8 -49 10 -23 1 -68 4 -99 6 -32 2 -59 3 -61 1z"/>
</g>
</svg>
