<svg xmlns="http://www.w3.org/2000/svg" xmlns:xlink="http://www.w3.org/1999/xlink" width="411" height="374" fill="none" xmlns:v="https://vecta.io/nano"><style><![CDATA[.B{stroke-linejoin:round}.C{fill:#cf5755}.D{stroke:#263238}.E{stroke-width:1.013}.F{fill:#fff}.G{fill:#263238}.H{stroke-linecap:round}.I{opacity:.1}.J{stroke:#fff}.K{stroke-width:.987}.L{stroke-width:.91}.M{stroke-miterlimit:10}.N{stroke-width:.507}.O{stroke-width:2.027}.P{stroke-width:1.023}]]></style><use xlink:href="#B" class="C"/><use xlink:href="#B" opacity=".8" class="F"/><path d="M221.033 373.992c93.22 0 168.79-5.182 168.79-11.574s-75.57-11.575-168.79-11.575-168.79 5.182-168.79 11.575 75.57 11.574 168.79 11.574z" class="G"/><g class="C"><use xlink:href="#C"/><use xlink:href="#D"/><use xlink:href="#E"/></g><use xlink:href="#E" fill="#000" class="I"/><g class="C"><use xlink:href="#F"/><use xlink:href="#G"/><use xlink:href="#H"/><path d="M30.533 272.979s4.15-5.488 4.8-8.487c.55-2.55.54-5.976-1.27-8.048-.41-.505-.923-.918-1.504-1.214s-1.218-.466-1.869-.5-1.303.067-1.912.298a4.67 4.67 0 0 0-1.625 1.047c-2.7 2.839-1.25 9.752.43 12.81.17.269 2.9 4.144 2.95 4.094z"/></g><g fill="#000" class="I"><use xlink:href="#F"/><use xlink:href="#G"/><use xlink:href="#H"/><path d="M30.533 272.979s4.15-5.489 4.8-8.487c.55-2.55.54-5.976-1.27-8.048a4.65 4.65 0 0 0-1.504-1.214c-.581-.295-1.218-.466-1.869-.501s-1.303.067-1.912.299a4.67 4.67 0 0 0-1.625 1.047c-2.7 2.839-1.25 9.752.43 12.81.17.269 2.9 4.144 2.95 4.094z"/></g><g fill="#000" class="I"><use xlink:href="#C"/><use xlink:href="#D"/></g><use xlink:href="#I" class="C"/><g class="J L M"><path d="M356.183 356.481l-.48-113.026m.17 40.172l-13.95-12.023m14.25 30.7l17.1-24.902"/><path d="M356.003 313.072l-20.6-18.149m20.88 32.652l20.22-18.109m-20.17 30.63l-15.93-12.451"/></g><use xlink:href="#J" class="C"/><g class="J L M"><path d="M346.793 363.145l-43.86-48.838m15.59 17.352l-10.7.128"/><path d="M325.863 339.647l-2.2-17.352m6.28 22.094l-15.94.02m21.67 6.155l1.78-15.598m3.08 21.017l-11.72.697"/></g><use xlink:href="#K" class="C"/><g class="J L M"><path d="M364.853 362.059l45.62-47.214"/><path d="M394.263 331.629l-.93-10.619m-6.52 18.508l17.21-3.476m-21.65 7.888l-1.21-15.837m-4.55 21.983l15.75.598m-20.81 4.632l-1.58-11.595"/></g><g fill="#000" class="I"><use xlink:href="#I"/><use xlink:href="#J"/><use xlink:href="#K"/></g><path d="M338.223 45.213H91.543v316.269h246.68V45.213z" class="B D F K"/><g class="C"><path d="M130.893 45.213h-39.35v316.269h39.35V45.213z" style="mix-blend-mode:multiply"/><path d="M283.413 91.94h-75.65v8.865h75.65V91.94z" class="B D K"/><path d="M329.953 167.473h-207.37v8.865h207.37v-8.865zm0 121.842h-207.37v8.865h207.37v-8.865z"/><path d="M255.443 107.21h-47.68v8.865h47.68v-8.865zm0 14.951h-47.68v8.865h47.68v-8.865zm-54.24 63.939h-4.91v4.891h4.91V186.1zm0 62.903h-4.91v4.891h4.91v-4.891zm69.29-62.903h-4.91v4.891h4.91V186.1zm0 62.903h-4.91v4.891h4.91v-4.891z" class="B D K"/></g><g class="G"><path d="M338.223 45.213H91.543V61.3h246.68V45.213z" class="B D K"/><use xlink:href="#L"/><path d="M252.583 196.479h-43.42a1.41 1.41 0 0 1-.99-.414 1.4 1.4 0 0 1-.41-.99c0-.37.148-.725.41-.986s.619-.409.99-.409h43.42a1.4 1.4 0 0 1 .99.409 1.39 1.39 0 0 1 .41.986c0 .371-.147.726-.409.99a1.41 1.41 0 0 1-.991.414z"/><use xlink:href="#L" y="13.955"/><path d="M252.583 210.425h-43.42c-.371 0-.727-.147-.99-.409s-.41-.616-.41-.986.148-.725.41-.986.619-.409.99-.409h43.42a1.4 1.4 0 0 1 .99.409 1.39 1.39 0 0 1 0 1.972 1.4 1.4 0 0 1-.99.409z"/><use xlink:href="#M"/><use xlink:href="#N"/><path d="M318.263 196.479h-43.42a1.41 1.41 0 0 1-.991-.414c-.262-.264-.409-.619-.409-.99a1.39 1.39 0 0 1 .41-.986 1.4 1.4 0 0 1 .99-.409h43.42c.371 0 .727.147.99.409a1.39 1.39 0 0 1 .41.986 1.4 1.4 0 0 1-.41.99 1.41 1.41 0 0 1-.99.414zm0 6.973h-43.42a1.4 1.4 0 0 1-.99-.409 1.39 1.39 0 0 1 0-1.972c.262-.261.619-.408.99-.408h43.42c.371 0 .727.147.99.408a1.39 1.39 0 0 1 .41.986c0 .369-.148.725-.41.986s-.619.409-.99.409zm0 6.973h-43.42a1.4 1.4 0 0 1-.99-.409 1.39 1.39 0 0 1 0-1.972 1.4 1.4 0 0 1 .99-.409h43.42c.371 0 .727.147.99.409a1.39 1.39 0 0 1 .41.986c0 .37-.148.725-.41.986s-.619.409-.99.409z"/><use xlink:href="#O"/><path d="M252.583 251.354h-43.42c-.372-.003-.728-.152-.99-.415a1.4 1.4 0 0 1-.41-.99c0-.369.148-.724.41-.986s.619-.408.99-.408h43.42c.371 0 .728.147.99.408a1.39 1.39 0 0 1 .41.986c0 .371-.147.727-.409.99a1.42 1.42 0 0 1-.991.415z"/><use xlink:href="#L" y="68.83"/><use xlink:href="#M" y="47.902"/><use xlink:href="#L" y="82.775"/><use xlink:href="#M" y="61.857"/><path d="M318.263 251.354h-43.42a1.42 1.42 0 0 1-.991-.415c-.262-.263-.409-.619-.409-.99a1.39 1.39 0 0 1 .41-.986c.262-.261.619-.408.99-.408h43.42c.371 0 .727.147.99.408s.41.617.41.986a1.4 1.4 0 0 1-.41.99c-.262.263-.618.412-.99.415z"/><use xlink:href="#N" y="68.83"/><use xlink:href="#O" y="47.902"/><use xlink:href="#N" y="82.775"/><use xlink:href="#O" y="61.857"/><use xlink:href="#O" y="93.692"/><use xlink:href="#P"/><use xlink:href="#N" y="135.548"/><path d="M318.263 329.228h-43.42a1.4 1.4 0 0 0-1.4 1.395c0 .77.627 1.394 1.4 1.394h43.42c.773 0 1.4-.624 1.4-1.394a1.4 1.4 0 0 0-1.4-1.395z"/><use xlink:href="#P" y="20.928"/><path d="M314.063 229.958c-1.324.001-2.604.468-3.615 1.32s-1.685 2.032-1.905 3.332h-6.7a5.57 5.57 0 0 0-1.932-3.25c-1.004-.827-2.266-1.279-3.568-1.279s-2.564.452-3.568 1.279a5.57 5.57 0 0 0-1.932 3.25h-6.7a5.57 5.57 0 0 0-1.932-3.25c-1.004-.827-2.266-1.279-3.568-1.279s-2.564.452-3.568 1.279a5.57 5.57 0 0 0-1.932 3.25h-6.79c-.234-1.283-.913-2.444-1.918-3.28s-2.273-1.293-3.582-1.293-2.577.458-3.582 1.293-1.684 1.997-1.918 3.28h-6.71c-.234-1.283-.913-2.444-1.918-3.28s-2.273-1.293-3.582-1.293-2.577.458-3.582 1.293-1.684 1.997-1.918 3.28h-6.71c-.234-1.283-.913-2.444-1.918-3.28s-2.273-1.293-3.582-1.293-2.577.458-3.582 1.293-1.684 1.997-1.918 3.28h-6.71a5.57 5.57 0 0 0-2.09-3.477 5.61 5.61 0 0 0-3.901-1.15c-1.399.117-2.702.753-3.653 1.783s-1.477 2.377-1.477 3.775a5.57 5.57 0 0 0 1.477 3.776c.951 1.029 2.254 1.665 3.653 1.783s2.792-.294 3.901-1.151a5.57 5.57 0 0 0 2.09-3.477h6.71c.234 1.284.913 2.444 1.918 3.28a5.6 5.6 0 0 0 7.164 0c1.005-.836 1.684-1.996 1.918-3.28h6.71c.234 1.284.913 2.444 1.918 3.28a5.6 5.6 0 0 0 7.164 0c1.005-.836 1.684-1.996 1.918-3.28h6.71c.234 1.284.913 2.444 1.918 3.28a5.6 5.6 0 0 0 7.164 0c1.005-.836 1.684-1.996 1.918-3.28h6.71a5.57 5.57 0 0 0 1.932 3.25c1.004.827 2.266 1.279 3.568 1.279s2.564-.452 3.568-1.279a5.57 5.57 0 0 0 1.932-3.25h6.7a5.57 5.57 0 0 0 1.932 3.25c1.004.827 2.266 1.279 3.568 1.279s2.564-.452 3.568-1.279a5.57 5.57 0 0 0 1.932-3.25h6.7a5.56 5.56 0 0 0 1.372 2.811c.717.788 1.646 1.355 2.675 1.635a5.63 5.63 0 0 0 3.138-.056 5.6 5.6 0 0 0 2.615-1.728c.688-.813 1.129-1.804 1.271-2.858a5.55 5.55 0 0 0-.472-3.09 5.58 5.58 0 0 0-2.067-2.352c-.899-.572-1.945-.876-3.012-.876h.08z"/></g><g class="B D K"><path d="M183.443 308.818c-1.867-.002-3.693.548-5.247 1.58a9.41 9.41 0 0 0-3.481 4.218 9.37 9.37 0 0 0-.542 5.434c.363 1.824 1.262 3.501 2.582 4.817a9.44 9.44 0 0 0 4.833 2.576c1.831.364 3.73.178 5.455-.533a9.44 9.44 0 0 0 4.239-3.463c1.037-1.547 1.591-3.365 1.591-5.226.001-1.234-.241-2.456-.715-3.597s-1.167-2.178-2.043-3.051-1.916-1.566-3.061-2.039-2.372-.716-3.611-.716zm0 14.085a4.73 4.73 0 0 1-2.62-.786c-.776-.515-1.382-1.248-1.739-2.106s-.452-1.801-.271-2.712a4.69 4.69 0 0 1 1.29-2.405c.659-.657 1.499-1.104 2.414-1.284s1.862-.087 2.723.269 1.597.959 2.114 1.732.791 1.682.789 2.61a4.68 4.68 0 0 1-1.379 3.308c-.881.877-2.075 1.371-3.321 1.374z" class="C"/><path d="M186.253 321.957l4.5 2.181c1.123-1.375 1.832-3.039 2.046-4.799a9.36 9.36 0 0 0-.838-5.146c-.762-1.603-1.963-2.958-3.465-3.909a9.46 9.46 0 0 0-5.023-1.466v4.712c.982.01 1.937.327 2.729.905s1.383 1.39 1.688 2.319.311 1.932.016 2.865-.877 1.751-1.663 2.338h.01z" class="G"/><path d="M187.983 339.279h-9c-.295.001-.587-.056-.86-.167a2.25 2.25 0 0 1-.73-.483 2.23 2.23 0 0 1-.66-1.581c0-.595.237-1.165.659-1.585s.994-.657 1.591-.657h9c.597 0 1.169.237 1.591.657s.659.99.659 1.585c0 .293-.058.584-.172.856a2.23 2.23 0 0 1-.488.725 2.25 2.25 0 0 1-.73.483c-.273.111-.565.168-.86.167zm23.59-30.461a9.47 9.47 0 0 0-5.245 1.585c-1.552 1.033-2.762 2.502-3.477 4.22s-.901 3.609-.537 5.433a9.39 9.39 0 0 0 2.584 4.814c1.32 1.315 3.002 2.211 4.833 2.574a9.48 9.48 0 0 0 5.454-.535c1.725-.712 3.2-1.917 4.237-3.463a9.38 9.38 0 0 0 1.591-5.225 9.37 9.37 0 0 0-.716-3.6c-.474-1.141-1.169-2.178-2.046-3.051a9.44 9.44 0 0 0-3.064-2.039 9.47 9.47 0 0 0-3.614-.713zm0 14.085c-.932 0-1.843-.275-2.618-.791s-1.378-1.25-1.735-2.107a4.68 4.68 0 0 1 1.026-5.114c.66-.656 1.5-1.102 2.414-1.282s1.862-.086 2.722.271a4.71 4.71 0 0 1 2.112 1.732 4.68 4.68 0 0 1 .789 2.609 4.66 4.66 0 0 1-.359 1.794c-.237.569-.584 1.086-1.021 1.52a4.72 4.72 0 0 1-1.528 1.015 4.74 4.74 0 0 1-1.802.353z" class="C"/><path d="M220.963 317.235c-.248-2.3-1.337-4.429-3.059-5.982s-3.958-2.419-6.281-2.435v4.712c1.241.013 2.426.513 3.298 1.391s1.362 2.065 1.362 3.3c-.01.181-.03.36-.06.538l4.74-1.524z" class="G"/><path d="M216.073 339.279h-9a2.27 2.27 0 0 1-.861-.167 2.26 2.26 0 0 1-.73-.483 2.23 2.23 0 0 1-.659-1.581c0-.595.237-1.165.659-1.585s.994-.657 1.591-.657h9a2.26 2.26 0 0 1 1.591.657c.422.42.659.99.659 1.585 0 .293-.059.584-.172.856a2.23 2.23 0 0 1-.488.725 2.25 2.25 0 0 1-.73.483c-.273.111-.565.168-.86.167zm23.8-30.461c-1.867 0-3.692.552-5.244 1.585a9.41 9.41 0 0 0-3.477 4.22c-.714 1.718-.902 3.609-.538 5.433a9.4 9.4 0 0 0 2.584 4.814c1.32 1.315 3.002 2.211 4.833 2.574a9.48 9.48 0 0 0 5.455-.535c1.725-.712 3.199-1.917 4.236-3.463a9.38 9.38 0 0 0 1.591-5.225 9.37 9.37 0 0 0-.716-3.6c-.474-1.141-1.169-2.178-2.046-3.051a9.44 9.44 0 0 0-3.064-2.039 9.47 9.47 0 0 0-3.614-.713zm0 14.085c-.932 0-1.843-.275-2.618-.791a4.7 4.7 0 0 1-1.734-2.107c-.357-.858-.449-1.802-.267-2.712a4.68 4.68 0 0 1 1.292-2.402c.66-.656 1.5-1.102 2.414-1.282a4.72 4.72 0 0 1 2.722.271c.861.357 1.596.959 2.112 1.732a4.68 4.68 0 0 1 .789 2.609 4.66 4.66 0 0 1-1.38 3.314c-.438.435-.957.78-1.528 1.015a4.74 4.74 0 0 1-1.802.353z" class="C"/><path d="M239.923 308.818v4.712c.792.001 1.572.202 2.266.583a4.7 4.7 0 0 1 1.705 1.597c.424.667.673 1.43.722 2.218s-.101 1.575-.438 2.29a4.71 4.71 0 0 1-1.491 1.797c-.641.464-1.389.76-2.176.86s-1.585.001-2.322-.289a4.7 4.7 0 0 1-1.896-1.366l-3.74 2.908c1.001 1.231 2.299 2.189 3.773 2.785a9.46 9.46 0 0 0 4.653.627 9.45 9.45 0 0 0 4.38-1.686 9.41 9.41 0 0 0 3.021-3.581c.687-1.429 1.001-3.007.912-4.589a9.36 9.36 0 0 0-1.423-4.457c-.844-1.343-2.015-2.451-3.404-3.222a9.46 9.46 0 0 0-4.542-1.187z" class="G"/><path d="M244.373 339.279h-9c-.295.001-.587-.056-.86-.167a2.25 2.25 0 0 1-.73-.483 2.23 2.23 0 0 1-.488-.725c-.114-.272-.172-.563-.172-.856s.056-.587.169-.86a2.22 2.22 0 0 1 .487-.728c.209-.208.458-.373.731-.486a2.26 2.26 0 0 1 .863-.168h9c.597 0 1.169.237 1.591.657s.659.99.659 1.585a2.23 2.23 0 0 1-.66 1.581 2.25 2.25 0 0 1-.73.483c-.273.111-.565.168-.86.167z" class="C"/></g><g class="F"><use xlink:href="#Q"/><path d="M155.753 355.894s6.1 9.134 5.26 12.75-6.2 2.5-8.74-1.395-9-9.712-7.83-12.212 9.03-1.365 11.31.857zm-26.21-.508s-7.37 10.897-6.19 13.875 5 2.092 7.92-.598 8.75-10.239 8.75-10.239-4.9-6.017-10.48-3.038z" class="B D P"/></g><path d="M123.353 369.261c1.999.274 4.032-.122 5.78-1.125 3.36-1.694 9.22-9.334 9.22-9.334m8.14-1.942s3.19 5.976 6.78 9.363 5.35 4.353 7.71 2.42" stroke-width=".767" class="H B D"/><path d="M119.193 219.399s-6.45 13.109-6.16 18.468 1.47 32.472 3.23 41.407 3.49 31.188 4.69 40.083 8.89 29.733 8.89 29.733-1.18 4.772-.3 6.256 10.19 3.934 10.48 3.038 1.76-3.576 2-6.256-4.1-31.277-2.34-37.532 2.1-48.311 2.34-52.644-.07-11.953-.07-11.953c.523.161 1.082.162 1.606.004a2.75 2.75 0 0 0 1.334-.89c1.17-1.494 5.05 38.997 6.23 48.529s-1.47 12.212-2.35 18.169-2.93 25.311-2.93 27.701-2.64 10.121-1.47 11.615 3.66 1.245 4.68 1.524c3.06.846 5.45-.478 6.62-.777s2.16-4.612 2.16-4.612 9.42-26.516 11.18-37.543 4.69-31.486 4.11-43.997-4.11-37.852-4.11-37.852l-.88-7.45-48.94-5.021z" class="B D G P"/><g class="H J B"><path d="M115.073 234.56s-.57 7.351 4.26 12.152m-3.98-1.693s2.84 4.811 6.25 5.369" class="N"/><path d="M138.053 325.463s-4 9.503-4.54 14.692 4.54 3.168 5.68 6.624-6.81 3.178-5.39 4.034 5.67 1.445 5.67 1.445m6.28-3.168c.85-.289 10.5-1.992 9.36-7.201s-6.81-5.479-6-11.525 9.64-19.314 9.64-23.06-6.24-17.7-6.81-26.346" stroke-width=".512"/><path d="M159.623 234.002l-7.38 10.738c-.85 1.414 7.66-6.216 7.66-6.216m-17.36-7.819l.71 8.218v7.759m0-4.223s3.07-.468 3.77-2.819.48-7.052.48-7.052" class="N"/></g><use xlink:href="#R" class="B C D E"/><use xlink:href="#R" fill="#000" class="I"/><g class="B D"><g class="H"><path d="M119.893 178.311a58.62 58.62 0 0 0 4.83-8.756m2.55.847a11.2 11.2 0 0 1-2.84 3.675" stroke-width=".76"/><g class="E"><path d="M191.943 167.104c.039 1.684.413 3.343 1.1 4.881s1.672 2.927 2.9 4.084"/><path d="M193.103 171.816c-.239 2.659.359 5.325 1.71 7.63"/></g><path d="M105.123 191.937s-2.16-2.042-7.49-1.155m-2.95-1.176s1.48-2.36 7.09-.597m74.52-29.744c-1.18.289-6.21 8.836-6.21 8.836l12.13-3.238" stroke-width=".76"/></g><g class="E F"><path d="M141.463 153.438s2.27 3.108 7.38 1.703 6.81-6.783 6-10.18-17.92-.567-13.38 8.477z"/><path d="M136.603 134.084s-3.43 2.271-3.88 4.323.68 8.636 1.59 10.908 3.89 7.5 3.89 7.5l11-6.365c.73-.458 8 3.636 9.59 2.988s-3.88-14.553-6.39-17.501-12.15-4.592-15.8-1.853z"/><path d="M134.753 126.574l.69 9.094c.46 5.459 2.31 9.772 5.31 12.272s7.3 3.865 8.44 2.5 2.51-7.042 2-10.459-1.14-10.678-1.14-10.678l-15.3-2.729z"/></g></g><g style="mix-blend-mode:multiply" opacity=".5" class="C"><path d="M150.753 135.728l-.65-6.425-15.35-2.729.69 9.094a23.29 23.29 0 0 0 1.73 7.341l13.58-7.281z"/></g><g class="B D E"><path d="M129.753 121.135s-3.42-3.407-4.11-.458 2.06 7.51 5.94 6.365v-2.719l-1.83-3.188z" class="F"/><path opacity=".5" d="M129.753 121.135s-3.42-3.407-4.11-.458 2.06 7.51 5.94 6.365v-2.719l-1.83-3.188z" class="C"/><path d="M126.753 114.979s5.71 15.23 10.73 18.189 15.06 5.678 17.8-4.981-4.56-26.147-7.07-30.699-11.87-5.907-17.8-1.365-7.28 8.846-3.66 18.856z" class="F"/></g><g style="mix-blend-mode:multiply" opacity=".5" class="C"><path d="M133.083 102.08c2.424-1.117 5.051-1.727 7.72-1.793l5.69-4.772c-3.74-2.869-11.09-3.217-16.05.588-5.94 4.552-7.31 8.865-3.66 18.876 0 0 5.71 15.23 10.73 18.189a20.62 20.62 0 0 0 5.72 2.281c-2.42-3.108-6.14-8.049-7.32-10.569-1.8-3.845-2.57-11.783-4.89-16.395s-1.54-4.612 2.06-6.405z"/></g><g class="B D"><g class="H"><path d="M145.043 110.427s2.28 4.094 1.37 4.98a2.37 2.37 0 0 1-2.28.459" class="E"/><path d="M134.543 109.75s.46-2.729 3.88-2.729" class="O"/><path d="M136.603 112.479s2.51 1.136 3.42-1.364m7.53-.459s2.51 1.136 3.43-1.364" class="E"/><path d="M145.473 105.437c.61-.619 1.433-.983 2.303-1.018a3.43 3.43 0 0 1 2.377.828" class="O"/></g><path d="M155.753 119.432c-2.66-1.156-9-3.706-11.12-2.64-2.74 1.365-9.82 6.146-9.82 9.782 0 0-4.56-6.136-4.56-8.417s1.82-2.988.23-5.907-3.89-3.187-3.2-6.594c.63-3.158 6.94-6.505 10-6.973a10.35 10.35 0 0 0 6.85 2.431c5 0 9.13-3.198 9.13-7.162s-4.09-7.152-9.13-7.152a11.12 11.12 0 0 0-3.31.488c-4.78-.349-5.69 3.178-9 5.11s-5.39 7.63-5.39 7.63h.14c-2.42 3.526-2.41 7.779.22 14.941 0 0 5.71 15.231 10.73 18.189s15.06 5.678 17.8-4.98c.665-2.867.811-5.829.43-8.746z" class="E G"/></g><path d="M150.303 119.203s-3.42 4.771-7.3 1.593" class="B E H J"/><g class="D B"><path d="M117.433 215.604c1.356.852 2.548 1.938 3.52 3.208 1.192 1.625 2.467 3.187 3.82 4.681 0 0 3.22.289 2.93 1.753s-.88 2.331-2.35 2.331-4.69-2.918-4.69-2.918l-4.69 7.301s-4.4-3.207-5.87-7.301l7.33-9.055z" class="E F"/><use xlink:href="#Q" class="O"/><path d="M181.093 113.635s-2.94-.299-3.52 1.454-1.47 3.506-1.47 4.681.29 2.042 1.76 2.331 2.35-1.753 2.35-1.753l.88-6.713zm.58-2.052s-1.46 7.889-1.46 10.229c.064 1.8.678 3.538 1.76 4.981a3.65 3.65 0 0 0 2.05 1.165l1.47-1.753s-1.76 2.341.58 5.259 4.11 2.63 6.16 1.754 2.64-2.042 1.76-5.26-1.46-8.477-2.05-11.684-2.64-4.383-3.81-4.383-4.38-1.185-6.46-.308z" class="E F"/><path d="M180.603 123.456s-.52-1.813 1.69-2.072l5.86-.647m-7.29-1.943s5.07-1.305 6.9-1.046m-6.51-2.589c1.892-.335 3.809-.508 5.73-.518m-4.04 10.239a3.39 3.39 0 0 0 1.404.756c.522.137 1.069.147 1.596.031" class="H N"/></g><defs ><path id="B" d="M393.973 233.136a223.49 223.49 0 0 0-8.65-38.639c-4.29-13.945-9.29-28-8.77-42.543.37-10.25 3.48-20.191 5-30.341 2.49-16.226.95-32.93-3.34-48.808-3.09-11.405-7.67-22.581-15-31.875-6.56-8.317-15.14-14.941-24.38-20.101-24.42-13.756-53-18.089-81-19.922-26.88-1.793-54.31-1.464-80.18 5.977-16.088 4.603-31.056 12.445-43.981 23.04s-23.529 23.718-31.159 38.559c-16.63 32.433-26.25 68.879-49.55 97.617-12.3 15.17-28.34 28.069-35.38 46.258-10.07 26.008 2.44 57.345 25.26 73.482 14.39 10.18 31.82 15.041 47.46 23.199 14.43 7.52 27.25 17.8 41.46 25.729 52.2 29.115 116.99 23.438 174.62 7.739 28.82-7.819 59-19.404 75.54-44.186 12.68-19.036 14.83-42.095 12.05-65.184z"/><path id="C" d="M119.633 275.22c-.7-3.367-1.63-8.198-2.48-14.035l-.71-5.309c.76-.139 6.8-1.315 9.15-2.988 2.14-1.504 4.44-3.984 4.53-6.774.052-.652-.037-1.308-.259-1.925s-.573-1.178-1.03-1.649-1.008-.84-1.619-1.082-1.265-.353-1.922-.324c-3.92.269-7.54 6.325-8.39 9.722-.05.219-.4 2.849-.55 4.203l-.38-3.376c-.18-1.674-.32-3.437-.46-5.15 0-.897-.09-1.793-.13-2.7s0-1.793 0-2.709c0-1.335.1-2.719.17-4.094 1.72-.08 6.75-.408 9-1.544s5-3.297 5.51-5.976c.14-.633.145-1.288.016-1.923s-.391-1.236-.768-1.765a4.65 4.65 0 0 0-1.42-1.302c-.559-.331-1.182-.542-1.828-.618-3.91-.319-8.42 5.12-9.76 8.347-.05.099-.26.817-.51 1.663l.4-4.044c.46-3.835 1.06-7.739 1.64-11.654l.35-2.44c1.44-.07 6.9-.369 9.27-1.554s5-3.307 5.51-5.977c.142-.633.148-1.288.019-1.924s-.39-1.237-.767-1.766a4.64 4.64 0 0 0-1.422-1.303 4.66 4.66 0 0 0-1.83-.615c-3.92-.319-8.42 5.12-9.77 8.347 0 .11-.3.996-.58 1.913.29-2.122.54-4.253.73-6.365.352-3.641.455-7.302.31-10.957.51 0 6.91-.249 9.55-1.564 2.35-1.165 5-3.297 5.51-5.977.142-.632.148-1.287.019-1.922s-.39-1.236-.768-1.764-.861-.971-1.421-1.3-1.184-.538-1.83-.612c-3.92-.328-8.42 5.12-9.77 8.338-.1.229-1 3.317-1.27 4.422-.005-.043-.005-.086 0-.129a60.57 60.57 0 0 0-1.64-10.609 82.93 82.93 0 0 0-2.8-9.183c-1-2.79-2.09-5.29-3.07-7.491a108.44 108.44 0 0 0-1.55-3.267h.08c.07 0-.12-4.732-.16-4.981-.54-3.446-3.61-9.801-7.49-10.419a4.66 4.66 0 0 0-1.93.151 4.63 4.63 0 0 0-1.701.922 4.62 4.62 0 0 0-1.175 1.533c-.279.587-.43 1.227-.444 1.877-.16 2.759 1.91 5.458 3.9 7.152s7.37 3.346 8.69 3.725l1.55 3.436c.93 2.222 2 4.732 2.89 7.541.25.747.49 1.564.74 2.341-.69-1.236-1.66-2.919-1.78-3.068-2.07-2.819-7.74-7.053-11.46-5.817a4.63 4.63 0 0 0-1.644 1.018 4.62 4.62 0 0 0-1.083 1.598 4.6 4.6 0 0 0-.335 1.899c.024.649.184 1.286.472 1.869 1.13 2.521 4.22 3.985 6.78 4.553s8.26-.439 9.48-.678c.52 1.743 1 3.546 1.42 5.459a59.29 59.29 0 0 1 1.34 10.449v.627a110.41 110.41 0 0 0-1.93-4.492c-1.75-2.988-6.92-7.859-10.76-7.042a4.65 4.65 0 0 0-1.748.835c-.518.398-.945.9-1.254 1.473s-.495 1.205-.542 1.854.042 1.302.264 1.914c.85 2.619 3.77 4.402 6.24 5.259 2.85.996 9.48.359 9.72.339a80.79 80.79 0 0 1-.53 10.558c-.29 2.6-.69 5.22-1.12 7.84-.33-.867-1.77-4.194-1.91-4.423-1.74-2.988-6.91-7.849-10.75-7.032a4.65 4.65 0 0 0-2.998 2.304c-.309.573-.494 1.203-.543 1.851a4.62 4.62 0 0 0 .261 1.911c.85 2.629 3.76 4.402 6.24 5.269 2.78.996 9.13.389 9.67.339l-.59 3.576-1.9 11.654c-.2 1.345-.34 2.669-.48 3.984-.53-1.285-1.54-3.596-1.65-3.785-1.75-2.988-6.92-7.859-10.76-7.032a4.65 4.65 0 0 0-1.745.834 4.64 4.64 0 0 0-1.252 1.471c-.309.572-.494 1.202-.543 1.85a4.62 4.62 0 0 0 .261 1.911c.85 2.63 3.76 4.403 6.24 5.269s7.83.488 9.34.369a92.64 92.64 0 0 0-.47 6.584c0 .936-.09 1.902 0 2.799s0 1.813.06 2.699l.36 5.27.23 2.52c-.34-1.375-.92-3.556-1-3.746-1.27-3.257-5.64-8.805-9.57-8.576a4.67 4.67 0 0 0-1.85.567 4.66 4.66 0 0 0-1.46 1.266 4.64 4.64 0 0 0-.817 1.748c-.147.633-.158 1.29-.034 1.928.44 2.719 3 4.92 5.36 6.145 2.56 1.345 8.71 1.744 9.46 1.793l.65 5.917c.74 5.917 1.57 10.808 2.2 14.234a132.71 132.71 0 0 0 1.08 5.369c.03.188.099.368.202.527s.239.297.399.402a1.37 1.37 0 0 0 1.093.188 1.37 1.37 0 0 0 .879-.674c.092-.166.148-.35.164-.54s-.006-.38-.067-.56c0 0-.52-1.823-1.22-5.2z"/><path id="D" d="M116.273 178.44s6.6-1.992 8.89-4.054c2-1.733 4-4.492 3.71-7.252a4.6 4.6 0 0 0-.494-1.862 4.62 4.62 0 0 0-1.213-1.501 4.64 4.64 0 0 0-1.722-.878c-.629-.168-1.287-.203-1.931-.102-3.86.718-6.77 7.152-7.21 10.619-.04.299-.1 5.05-.03 5.03z"/><path id="E" d="M119.753 282.193c.163.112.3.258.401.427s.165.359.187.555 0 .394-.062.582-.165.358-.3.503-.299.258-.482.334a1.38 1.38 0 0 1-.578.103 1.39 1.39 0 0 1-.569-.144c-.177-.089-.333-.214-.457-.368l-3.87-3.895c-2.41-2.5-5.83-6.136-9.72-10.658l-3.82-4.582c-.65.369-6 3.417-8.88 3.696-2.61.249-6-.15-7.88-2.182a4.63 4.63 0 0 1-1.04-1.624c-.229-.608-.326-1.257-.287-1.905s.216-1.281.517-1.857a4.63 4.63 0 0 1 1.23-1.487c3.15-2.351 9.87-.119 12.73 1.903.17.119 1.86 1.613 2.9 2.57l-1.59-1.993c-1.07-1.344-2.1-2.719-3.21-4.203l-1.55-2.211c-.54-.728-1-1.564-1.52-2.351-1.15-1.853-2.22-3.785-3.25-5.758-1.19.927-5.45 4.174-8 4.822s-6 .757-8.12-.997a4.63 4.63 0 0 1-1.277-1.449 4.62 4.62 0 0 1-.574-1.842 4.61 4.61 0 0 1 .229-1.915 4.63 4.63 0 0 1 .992-1.657c2.76-2.789 9.74-1.603 12.87 0 .2.1 2.32 1.475 3.47 2.252l-1.81-3.606c-1.68-3.526-3.27-7.152-4.87-10.768l-1.49-3.307c-.42.339-5.4 4.313-8.25 5.03-2.54.648-6 .757-8.12-.996a4.63 4.63 0 0 1-1.277-1.449c-.319-.568-.514-1.195-.574-1.842a4.62 4.62 0 0 1 .229-1.916c.21-.615.548-1.179.992-1.656 2.75-2.789 9.73-1.604 12.87 0 .24.12 3.29 2.102 4 2.64-1.1-2.421-2.21-4.821-3.41-7.152-1.602-3.147-3.406-6.188-5.4-9.105-.2.16-5.37 4.333-8.3 5.071-2.54.637-6 .757-8.12-.997-.524-.388-.959-.882-1.278-1.449a4.61 4.61 0 0 1-.34-3.76c.212-.615.552-1.178.998-1.654 2.75-2.789 9.73-1.603 12.86 0 .25.12 3.53 2.252 4.1 2.68-.12-.169-.22-.349-.34-.518-2.094-2.856-4.437-5.522-7-7.969-1.4-1.374-2.81-2.61-4.21-3.785-.89.877-5 4.831-7.53 5.787s-5.83 1.405-8.18-.079c-.562-.328-1.049-.771-1.428-1.299s-.643-1.13-.773-1.766-.124-1.293.017-1.927a4.61 4.61 0 0 1 .804-1.752c2.43-3.078 9.5-2.669 12.79-1.454.18.07 1.92.936 3.18 1.584l-1.91-1.544c-2.34-1.833-4.59-3.367-6.59-4.702a93.9 93.9 0 0 0-3.19-1.992c-1.32.408-6.65 1.992-9.31 1.663s-5.83-1.434-7.23-3.825a4.62 4.62 0 0 1-.661-1.81c-.091-.643-.045-1.298.134-1.922s.488-1.204.906-1.702a4.67 4.67 0 0 1 1.521-1.19c3.58-1.613 9.66 1.993 12 4.582.2.23 3 4.084 2.92 4.104h-.08c1 .558 2 1.176 3.1 1.873 2 1.295 4.33 2.779 6.72 4.562 2.587 1.898 5.064 3.94 7.42 6.116a62.16 62.16 0 0 1 7.24 7.969c.017.04.041.077.07.109a111.6 111.6 0 0 1-1.39-4.382c-.66-3.427.09-10.449 3.53-12.332.581-.296 1.217-.467 1.868-.502a4.65 4.65 0 0 1 3.536 1.346c.462.459.821 1.01 1.055 1.616 1.08 2.55 0 5.788-1.26 8.049-1.48 2.55-6.69 6.265-7.1 6.554 2.132 2.965 4.066 6.066 5.79 9.284 1 1.872 2 3.785 2.92 5.717l-.58-1.912c-.66-3.427.08-10.449 3.53-12.332.581-.296 1.218-.467 1.87-.501s1.304.068 1.913.301a4.65 4.65 0 0 1 1.624 1.051c.461.46.82 1.012 1.053 1.619 1.08 2.54 0 5.778-1.26 8.039s-5.71 5.548-6.88 6.395l1.06 2.231 5.09 10.628c.61 1.215 1.26 2.391 1.9 3.576l-.5-1.663c-.66-3.427.09-10.439 3.53-12.322.581-.296 1.217-.467 1.868-.502a4.65 4.65 0 0 1 3.536 1.346c.462.459.821 1.01 1.055 1.616 1.08 2.54.05 5.788-1.26 8.049s-5.28 5.219-6.67 6.235c.7 1.186 1.39 2.381 2.12 3.507l1.52 2.251 1.6 2.181 3.24 4.034 2.19 2.61c-.63-1.205-1.8-3.596-1.87-3.805-1.18-3.297-1.51-10.339 1.61-12.72.529-.381 1.132-.646 1.77-.779s1.298-.132 1.936.006 1.239.406 1.765.79a4.64 4.64 0 0 1 1.289 1.437c1.45 2.351.92 5.718 0 8.148-1 2.68-5.43 6.973-6 7.511l3.54 4.044c3.94 4.393 7.39 7.909 9.84 10.339s3.93 3.696 3.93 3.696zm-60.33-82.606s4.39-5.309 5.17-8.267c.66-2.521.8-5.977-.91-8.089a4.65 4.65 0 0 0-1.447-1.284c-.567-.323-1.197-.522-1.847-.586a4.66 4.66 0 0 0-1.926.215 4.65 4.65 0 0 0-1.671.978c-2.82 2.719-1.68 9.682-.13 12.82.09.269 2.71 4.263 2.76 4.213z"/><path id="F" d="M94.123 347.885a225.73 225.73 0 0 1-3.1-13.945l-.94-5.27c.74-.179 6.73-1.613 9-3.376 2.07-1.604 4.26-4.214 4.23-6.973.015-.646-.107-1.288-.357-1.884s-.622-1.133-1.093-1.577a4.64 4.64 0 0 0-1.642-1 4.65 4.65 0 0 0-1.908-.251c-3.91.439-7.26 6.654-8 10.081 0 .219-.28 2.869-.36 4.223l-.54-3.356c-.25-1.654-.47-3.417-.69-5.12l-.24-2.69c-.11-.916-.09-1.803-.14-2.709v-4.094c1.71-.16 6.72-.707 8.94-1.943s4.85-3.516 5.23-6.245a4.61 4.61 0 0 0-.067-1.928c-.159-.63-.449-1.221-.852-1.732s-.91-.933-1.487-1.236-1.213-.481-1.864-.523c-3.92-.159-8.18 5.479-9.39 8.766 0 .099-.22.817-.42 1.673 0-1.344.11-2.679.21-4.044.3-3.865.72-7.779 1.13-11.714l.24-2.46c1.44-.13 6.87-.678 9.19-1.992s4.85-3.517 5.24-6.256c.112-.64.088-1.296-.071-1.926a4.62 4.62 0 0 0-.852-1.731c-.403-.511-.909-.932-1.485-1.235a4.67 4.67 0 0 0-1.862-.527c-3.92-.149-8.19 5.489-9.39 8.766 0 .12-.26.996-.49 1.942.19-2.141.35-4.273.45-6.394.187-3.653.127-7.313-.18-10.957.51 0 6.89-.558 9.48-1.993 2.28-1.265 4.85-3.516 5.23-6.255a4.61 4.61 0 0 0-.067-1.928 4.62 4.62 0 0 0-.852-1.732c-.403-.512-.91-.933-1.487-1.236a4.66 4.66 0 0 0-1.864-.523c-3.92-.149-8.18 5.489-9.39 8.766-.08.229-.84 3.347-1.07 4.472v-.129a59.87 59.87 0 0 0-2.1-10.529c-.895-3.074-1.967-6.093-3.21-9.044-1.12-2.75-2.32-5.2-3.4-7.362-.59-1.165-1.15-2.211-1.69-3.197h.08c.07 0-.32-4.711-.38-4.98-.69-3.427-4-9.643-8-10.091a4.65 4.65 0 0 0-3.55 1.25c-.471.444-.844.982-1.093 1.578s-.371 1.238-.357 1.884c0 2.759 2.15 5.369 4.22 6.972s7.5 2.989 8.84 3.347c.54.996 1.1 2.132 1.7 3.357 1 2.181 2.16 4.642 3.22 7.411.29.737.56 1.534.84 2.311-.74-1.205-1.79-2.849-1.91-2.988-2.19-2.72-8-6.694-11.71-5.3-.602.249-1.145.622-1.593 1.093s-.792 1.032-1.009 1.644a4.62 4.62 0 0 0 .302 3.758c1.24 2.47 4.39 3.775 7 4.253s8.23-.807 9.44-1.106c.6 1.724 1.17 3.507 1.66 5.399.932 3.417 1.551 6.911 1.85 10.439v.618c-.26-.658-2-4.174-2.12-4.403-1.88-2.988-7.26-7.54-11.06-6.554-.627.18-1.209.491-1.707.91s-.902.939-1.185 1.525-.439 1.224-.458 1.874.101 1.296.35 1.897c1 2.589 4 4.243 6.46 4.98 2.89.867 9.48-.06 9.73-.09a83.05 83.05 0 0 1-.07 10.569c-.18 2.61-.46 5.239-.77 7.879-.36-.847-2-4.114-2.1-4.333-1.88-2.988-7.26-7.54-11.06-6.554-.627.18-1.209.49-1.707.91s-.902.939-1.185 1.525-.439 1.224-.458 1.874a4.6 4.6 0 0 0 .35 1.896c1 2.59 4 4.234 6.46 4.981 2.82.836 9.14 0 9.68-.09l-.43 3.596-1.39 11.734c-.13 1.345-.21 2.679-.3 3.984-.59-1.255-1.7-3.526-1.82-3.705-1.88-2.988-7.25-7.541-11-6.554a4.64 4.64 0 0 0-1.704.912 4.63 4.63 0 0 0-1.184 1.525c-.283.585-.439 1.223-.458 1.872s.099 1.295.346 1.896c1 2.59 4 4.234 6.46 4.981s7.85.149 9.35-.05c-.13 2.221-.21 4.432-.18 6.604 0 .946 0 1.902.09 2.799l.18 2.699.59 5.25.35 2.5-1.16-3.696c-1.42-3.197-6-8.546-9.94-8.148a4.67 4.67 0 0 0-1.823.645 4.65 4.65 0 0 0-1.402 1.327 4.62 4.62 0 0 0-.738 1.78c-.118.639-.1 1.295.053 1.926.56 2.71 3.26 4.791 5.63 5.907 2.61 1.235 8.77 1.365 9.53 1.375l.91 5.896c1 5.867 2 10.728 2.82 14.115l1.32 5.319a1.38 1.38 0 0 0 .677.747c.312.155.672.186 1.006.088s.619-.32.797-.619a1.37 1.37 0 0 0 .16-.993s-.61-1.683-1.46-5.03z"/><path id="G" d="M86.473 251.344s6.51-2.291 8.7-4.433c1.87-1.833 3.75-4.671 3.4-7.411-.061-.647-.258-1.274-.579-1.841a4.64 4.64 0 0 0-1.282-1.446c-.524-.387-1.125-.66-1.762-.801a4.68 4.68 0 0 0-1.937-.016c-3.82.887-6.44 7.441-6.73 10.957-.03.289.12 5.021.19 4.991z"/><path id="H" d="M90.373 349.29a242.25 242.25 0 0 1-10.29-9.902l-3.7-3.874c.52-.558 4.71-5.051 5.64-7.77.84-2.47 1.22-5.847-.34-8.138a4.64 4.64 0 0 0-1.349-1.38c-.542-.36-1.154-.603-1.797-.712s-1.301-.082-1.932.08-1.221.453-1.732.857c-3 2.51-2.37 9.542-1.05 12.769.08.21 1.36 2.55 2 3.726l-2.31-2.51c-1.13-1.235-2.28-2.59-3.41-3.885l-1.7-2.112c-.59-.707-1.06-1.454-1.61-2.181-.78-1.086-1.53-2.251-2.28-3.417 1.34-1.066 5.22-4.283 6.39-6.524s2.1-5.598.9-8.088c-.26-.596-.643-1.131-1.124-1.57s-1.05-.771-1.669-.976-1.275-.278-1.924-.213a4.64 4.64 0 0 0-1.844.587c-3.36 1.992-3.79 9.064-3 12.461 0 .12.28.817.58 1.644l-2.07-3.497c-1.89-3.386-3.71-6.883-5.55-10.389l-1.16-2.181c1.13-.897 5.36-4.343 6.59-6.694s2.09-5.598.9-8.088c-.26-.596-.643-1.131-1.124-1.57s-1.05-.771-1.669-.976-1.275-.277-1.924-.213a4.67 4.67 0 0 0-1.843.587c-3.36 1.992-3.79 9.065-3 12.461 0 .13.33.996.67 1.893-1-1.893-2.08-3.755-3.17-5.588-1.869-3.138-3.943-6.149-6.21-9.015.41-.318 5.45-4.253 6.81-6.863 1.21-2.311 2.1-5.598.9-8.088a4.61 4.61 0 0 0-1.122-1.572 4.64 4.64 0 0 0-1.669-.98c-.619-.205-1.275-.279-1.924-.215s-1.278.263-1.845.586c-3.36 1.992-3.79 9.074-3 12.471.06.239 1.16 3.257 1.58 4.323l-.07-.11c-2.302-2.756-4.842-5.305-7.59-7.62-2.414-2.071-4.945-4.003-7.58-5.787-2.46-1.674-4.82-3.058-6.91-4.264-1.14-.647-2.2-1.215-3.18-1.733h.07c.07 0-2.88-3.755-3.1-3.984-2.47-2.48-8.7-5.817-12.2-4.044-.574.309-1.075.734-1.472 1.249s-.681 1.108-.833 1.74a4.6 4.6 0 0 0-.049 1.926 4.61 4.61 0 0 0 .744 1.778c1.5 2.331 4.77 3.307 7.39 3.507s7.93-1.614 9.22-2.072l3.28 1.872c2.06 1.246 4.38 2.68 6.79 4.403.65.458 1.32.996 2 1.464-1.28-.597-3.07-1.384-3.25-1.444-3.34-1.066-10.42-1.175-12.71 1.992a4.64 4.64 0 0 0-.721 1.788c-.112.64-.088 1.296.07 1.926s.448 1.22.849 1.731a4.65 4.65 0 0 0 1.482 1.239c2.41 1.365 5.76.737 8.17-.289s6.42-5.199 7.27-6.106c1.45 1.106 2.91 2.281 4.37 3.586 2.666 2.34 5.116 4.914 7.32 7.69.13.159.24.339.37.508-.59-.408-4-2.391-4.22-2.5-3.2-1.425-10.23-2.311-12.85.607-.421.496-.734 1.074-.916 1.697s-.232 1.278-.144 1.921.31 1.261.653 1.814a4.65 4.65 0 0 0 1.337 1.392c2.24 1.623 5.65 1.364 8.15.607 2.89-.866 7.88-5.259 8.07-5.419 2.125 2.823 4.062 5.781 5.8 8.856 1.3 2.271 2.52 4.622 3.72 6.972a106.47 106.47 0 0 0-4.15-2.46c-3.2-1.424-10.23-2.301-12.86.608a4.61 4.61 0 0 0-.918 1.697c-.183.624-.231 1.28-.143 1.923a4.61 4.61 0 0 0 .658 1.814 4.63 4.63 0 0 0 1.343 1.389c2.24 1.633 5.64 1.364 8.15.617 2.82-.856 7.62-5.04 8-5.388l1.64 3.227 5.34 10.548c.63 1.196 1.3 2.361 2 3.517-1.19-.728-3.37-1.993-3.57-2.092-3.2-1.425-10.23-2.301-12.85.607-.421.496-.734 1.074-.916 1.697s-.232 1.278-.144 1.921a4.62 4.62 0 0 0 .653 1.814 4.65 4.65 0 0 0 1.337 1.392c2.24 1.633 5.64 1.364 8.15.617s6.63-4.193 7.78-5.179c1.12 1.922 2.27 3.815 3.5 5.608.55.767 1.06 1.583 1.62 2.291l1.65 2.141 3.4 4.054 1.67 1.903c-1.09-.917-2.84-2.331-3-2.441-3-1.892-9.76-3.825-12.8-1.344-.493.426-.891.95-1.167 1.539a4.62 4.62 0 0 0-.436 1.88 4.61 4.61 0 0 0 .371 1.894 4.63 4.63 0 0 0 1.113 1.58c2 1.942 5.38 2.201 8 1.832 2.86-.408 8.07-3.685 8.71-4.094l4 4.413a238.15 238.15 0 0 0 10.18 10.22l4 3.725a1.38 1.38 0 0 0 .981.256c.348-.041.667-.213.892-.481a1.37 1.37 0 0 0-.103-1.876s-1.47-1.206-4.03-3.526z"/><path id="I" d="M331.123 300.073c.13 31.207 25.06 56.408 25.06 56.408s24.72-25.41 24.58-56.618-25.01-56.408-25.01-56.408-24.77 25.41-24.63 56.618z"/><path id="J" d="M314.133 348.244c12.11 13.527 32.62 14.941 32.62 14.941s.91-20.49-11.2-33.977-32.66-14.861-32.66-14.861-.87 20.449 11.24 33.897z"/><path id="K" d="M377.293 328.511c-12.6 13.039-12.44 33.548-12.44 33.548s20.58-.627 33.18-13.666 12.44-33.548 12.44-33.548-20.58.627-33.18 13.666z"/><path id="L" d="M252.583 189.497h-43.42c-.371 0-.727-.147-.99-.409s-.41-.616-.41-.986.148-.724.41-.986.619-.408.99-.408h43.42c.371 0 .728.147.99.408a1.39 1.39 0 0 1 0 1.972 1.4 1.4 0 0 1-.99.409z"/><path id="M" d="M252.583 217.397h-43.42c-.371 0-.727-.147-.99-.408s-.41-.616-.41-.986.148-.725.41-.986.619-.409.99-.409h43.42a1.4 1.4 0 0 1 .99.409 1.39 1.39 0 0 1 0 1.972c-.262.261-.619.408-.99.408z"/><path id="N" d="M318.263 189.497h-43.42a1.4 1.4 0 0 1-.99-.409 1.39 1.39 0 0 1 0-1.972c.262-.261.619-.408.99-.408h43.42c.371 0 .727.147.99.408s.41.616.41.986-.148.725-.41.986-.619.409-.99.409z"/><path id="O" d="M318.263 217.397h-43.42c-.371 0-.728-.147-.99-.408a1.39 1.39 0 0 1 0-1.972 1.4 1.4 0 0 1 .99-.409h43.42c.371 0 .727.147.99.409s.41.616.41.986-.148.724-.41.986-.619.408-.99.408z"/><path id="P" d="M318.263 318.062h-43.42c-.371 0-.728-.147-.99-.408s-.41-.617-.41-.987a1.39 1.39 0 0 1 .41-.986c.262-.261.619-.408.99-.408h43.42c.371 0 .727.147.99.408s.41.617.41.986-.148.725-.41.987-.619.408-.99.408z"/><path id="Q" d="M142.953 163.887c23.328 0 42.24-18.837 42.24-42.075s-18.912-42.074-42.24-42.074-42.24 18.838-42.24 42.075 18.911 42.075 42.24 42.075z"/><path id="R" d="M202.503 149.862c-3.52-10.23-4.11-15.778-4.4-18.696s-3.52-2.052-3.52-2.052-7 4.094-7 4.98 3.23 22.502 3.81 26.297c.352 2.225.549 4.471.59 6.724l-15.55-16.366c-2.46-2.461-4.41-4.562-6.5-5.817-1.13-.996-3.09-1.365-6.11-2.361-5.28-1.753-10.85-5.847-17.31-5.558a38.54 38.54 0 0 0-12.32 2.928l-15.84 7.302a11.48 11.48 0 0 0-2.13 1.235c-1.06-.13-3.27.438-5.79 6.066-3.51 7.889-19.35 28.637-22 35.939s2.93 14.612 9.09 20.45a175.61 175.61 0 0 1 12.61 13.736l7-8.587c.198 1.911.532 3.805 1 5.668.88 2.919 3.81 6.136 15.55 6.973s38.11 2.45 37.25-3.507c-1.21-8.466-.59-35.65-1.17-42.951a122.58 122.58 0 0 1 .29-14.045c1.35 1.704 4 4.861 5.85 6.106 2.64 1.753 13.8 9.961 18.2 11.734s10.56-1.165 13.2-6.972-1.28-18.996-4.8-29.226zm-95.62 48.5c-1.18-4.672-1.76-6.425-1.76-6.425s7.52-8.068 11.14-12.371c.49 11.544.8 24.175.46 26.028-.267 3.106-.197 6.232.21 9.323-1.96-2.68-9.05-12.531-10.05-16.555z"/></defs></svg>