<svg width="2000" height="203" viewBox="0 0 2000 203" fill="none" xmlns="http://www.w3.org/2000/svg">
<g clip-path="url(#clip0_153_433)">
<rect width="167.759" height="218.131" transform="matrix(1 0 0.377023 0.926204 40 0)" fill="#CF5754"/>
</g>
<g clip-path="url(#clip1_153_433)">
<rect width="167.759" height="218.131" transform="matrix(1 0 0.377023 0.926204 371 0)" fill="#CF5754"/>
</g>
<g clip-path="url(#clip2_153_433)">
<rect width="167.759" height="218.131" transform="matrix(1 0 0.377023 0.926204 700 0)" fill="#CF5754"/>
</g>
<g clip-path="url(#clip3_153_433)">
<rect width="167.759" height="218.131" transform="matrix(1 0 0.377023 0.926204 1029 0)" fill="#CF5754"/>
</g>
<g clip-path="url(#clip4_153_433)">
<rect width="167.759" height="218.131" transform="matrix(1 0 0.377023 0.926204 1358 0)" fill="#CF5754"/>
</g>
<g clip-path="url(#clip5_153_433)">
<rect width="167.759" height="218.131" transform="matrix(1 0 0.377023 0.926204 1687 0)" fill="#CF5754"/>
</g>
<defs>
<clipPath id="clip0_153_433">
<rect width="250" height="202.034" fill="white" transform="translate(40)"/>
</clipPath>
<clipPath id="clip1_153_433">
<rect width="250" height="202.034" fill="white" transform="translate(371)"/>
</clipPath>
<clipPath id="clip2_153_433">
<rect width="250" height="202.034" fill="white" transform="translate(700)"/>
</clipPath>
<clipPath id="clip3_153_433">
<rect width="250" height="202.034" fill="white" transform="translate(1029)"/>
</clipPath>
<clipPath id="clip4_153_433">
<rect width="250" height="202.034" fill="white" transform="translate(1358)"/>
</clipPath>
<clipPath id="clip5_153_433">
<rect width="250" height="202.034" fill="white" transform="translate(1687)"/>
</clipPath>
</defs>
</svg>
