<svg xmlns="http://www.w3.org/2000/svg" width="574" height="460" fill="none" xmlns:v="https://vecta.io/nano"><g clip-path="url(#A)"><path fill-rule="evenodd" d="M839.801 344.537h0l2.025 4.72 2.032 4.738 2.037 4.76 2.04 4.782 2.041 4.807 2.038 4.835 2.032 4.863 2.022 4.895 2.008 4.927 1.99 4.961 1.966 4.996 1.938 5.033 1.905 5.07 1.865 5.109 1.82 5.148 1.769 5.186 1.711 5.225 1.649 5.264 1.578 5.301 1.502 5.339 1.418 5.374 1.33 5.409 1.233 5.441 1.13 5.471 1.021 5.499.906 5.524.784 5.547.656 5.565.524 5.58.384 5.591.241 5.599.093 5.602-.059 5.6-.216 5.595-.375 5.583-.537 5.569-.701 5.548-.868 5.522-1.036 5.492-1.205 5.456-1.377 5.416-1.549 5.369-1.721 5.318-1.894 5.261-2.067 5.2-2.239 5.132-2.41 5.06-2.581 4.982-2.749 4.9-2.916 4.812-3.08 4.72-3.243 4.624-3.402 4.522-3.558 4.416-3.71 4.307-3.859 4.193-4.003 4.075-4.143 3.955-4.278 3.831-4.408 3.704-4.533 3.574-4.652 3.442-4.765 3.309-4.873 3.173-4.974 3.035-5.069 2.898-5.157 2.759-5.239 2.619-5.315 2.481-5.382 2.341-5.444 2.203-5.499 2.065-5.547 1.928-5.587 1.795-5.622 1.661-5.648 1.531-5.67 1.402-5.684 1.277-5.691 1.155-5.693 1.035-5.688.92-5.677.808-5.661.7-5.64.596-5.612.497-5.58.401-5.543.311-5.502.225-5.456.143-5.407.067-5.354-.004-5.298-.072-5.238-.133-5.177-.19-5.111-.242-5.043-.288-4.974-.329-4.902-.363-4.828-.393-4.752-.415-4.675-.433-4.597-.444-4.517-.45-4.438-.449-4.358-.442-4.277-.43-4.197-.411-4.118-.388-4.04-.357-3.961-.322-3.885-.281-3.809-.234-3.736-.181-3.664-.122-3.595-.058-3.526.013-3.462.089-3.398.172-3.338.262-3.282.357-3.227.46-3.177.567-3.131.679-3.09.796-3.052.916-3.022 1.04-2.994 1.166-2.974 1.294-2.959 1.423-2.95 1.553-2.946 1.682-2.949 1.81-2.957 1.938-2.972 2.062-2.994 2.184-3.02 2.303-3.052 2.417-3.091 2.528-3.134 2.631-3.184 2.731-3.237 2.823-3.297 2.909-3.36 2.987-3.427 3.059-3.499 3.121-3.574 3.175-3.651 3.221-3.733 3.258-3.816 3.285-3.9 3.303-3.987 3.312-4.075 3.311-4.162 3.3-4.251 3.28-4.339 3.249-4.427 3.21-4.513 3.161-4.598 3.102-4.681 3.035-4.762 2.959-4.84 2.873-4.916 2.78-4.988 2.679-5.057 2.569-5.122 2.454-5.183 2.33-5.239 2.201-5.292 2.066-5.339 1.924-5.382 1.779-5.42 1.629-5.452 1.474-5.481 1.316-5.504 1.155-5.521.992-5.534.826-5.541.659-5.545.492-5.542.324-5.537.157-5.528-.007-5.514-.168-5.498-.327-5.48-.482-5.459-.632-5.437-.778-5.413-.918-5.387-1.055-5.362-1.185-5.335-1.311-5.308-1.431-5.281-1.547-5.254-1.657-5.228-1.764-5.2-1.867-5.174-1.964-5.147-2.061-5.121-2.152-5.092-2.243-5.065-2.332-5.036-2.419-5.005-2.506-4.971-2.593-4.937-2.68-4.898-2.769-4.858-2.857-4.813-2.946-4.768-3.036-4.717-3.125-4.665-3.216-4.609-3.306-4.55-3.396-4.488-3.486-4.422-3.577-4.354-3.666-4.282-3.756-4.208-3.845-4.129-3.932-4.049-4.02-3.966-4.105-3.879-4.19-3.791-4.272-3.7-4.354-3.607-4.433-3.512-4.51-3.416-4.585-3.318-4.658-3.219-4.727-3.119-4.795-3.018-4.859-2.917-4.921-2.816-4.98-2.715-5.036-2.614-5.088-2.514-5.137-2.415-5.184-2.317-5.226-2.221-5.267-2.126-5.304-2.032-5.338-1.941-5.37-1.852-5.397-1.765-5.423-1.68-5.446-1.598-5.467-1.518-5.485-1.441-5.501-1.366-5.514-1.294-5.528-1.224-5.537-1.156-5.547-1.09-5.554-1.026-5.56-.964-5.566-.903-5.57-.844-5.573-.786-5.577-.729-5.579-.672-5.581-.615-5.582-.559-5.583-.501-5.585-.441-5.585-.379-5.585-.313-5.586-.242-5.586-.166-5.586-.084-5.584.005-5.582.1-5.578.203-5.574.314-5.566.432-5.557.558-5.544.692-5.528.834-5.51.983-5.486 1.139-5.459 1.301-5.427 1.469-5.389 1.642-5.347 1.819-5.3 2-5.246 2.183-5.187 2.368-5.123 2.553-5.053 2.736-4.977 2.918-4.896 3.096-4.81 3.272-4.719 3.443-4.623 3.61-4.524 3.773-4.419 3.929-4.31 4.08-4.199 4.224-4.083 4.361-3.966 4.49-3.845 4.611-3.724 4.724-3.599 4.829-3.474 4.924-3.349 5.01-3.223 5.087-3.099 5.154-2.974 5.211-2.851 5.257-2.731 5.295-2.612 5.321-2.497 5.338-2.386 5.346-2.277 5.342-2.175 5.33-2.075 5.308-1.982 5.277-1.895 5.238-1.813 5.189-1.739 5.133-1.67 5.069-1.608 4.997-1.555 4.92-1.507 4.836-1.469 4.746-1.438 4.651-1.414 4.551-1.399 4.449-1.391 4.341-1.392 4.233-1.399 4.121-1.415 4.009-1.438 3.896-1.468 3.782-1.505 3.669-1.549 3.557-1.599 3.447-1.654 3.34-1.717 3.235-1.783 3.133-1.854 3.037-1.928 2.943-2.008 2.855-2.089 2.772-2.173 2.695-2.258 2.625-2.345 2.559-2.432 2.502-2.52 2.449-2.607 2.403-2.695 2.363-2.783 2.328-2.869 2.3-2.957 2.277-3.044 2.259-3.129 2.247-3.213 2.241-3.298 2.24-3.379 2.244-3.459 2.254-3.537 2.269-3.613 2.289-3.687 2.315-3.756 2.344-3.825 2.379-3.888 2.419-3.949 2.463-4.007 2.511-4.059 2.564-4.11 2.621-4.155 2.68-4.198 2.744-4.236 2.81-4.271 2.88-4.302 2.953-4.329 3.028-4.353 3.105-4.371 3.187-4.386 3.27-4.394 3.354-4.398 3.442-4.397 3.532-4.388 3.622-4.375 3.715-4.356 3.808-4.33 3.903-4.297 3.999-4.258 4.094-4.213 4.19-4.16 4.286-4.101 4.382-4.035 4.477-3.961 4.57-3.881 4.664-3.794 4.755-3.7 4.845-3.6 4.932-3.493 5.017-3.379 5.1-3.259 5.179-3.133 5.256-3.001 5.329-2.863 5.398-2.72 5.464-2.571 5.526-2.417 5.583-2.259 5.636-2.096 5.684-1.929 5.727-1.758 5.767-1.584 5.8-1.407 5.828-1.227 5.852-1.044 5.869-.86 5.882-.674 5.89-.486 5.892-.298 5.888-.109 5.88.08 5.866.269 5.847.457 5.822.644 5.794.83 5.759 1.014 5.72 1.196 5.676 1.376 5.628 1.554 5.576 1.728 5.519 1.899 5.459 2.067 5.394 2.231 5.327 2.39 5.255 2.546 5.182 2.696 5.106 2.842 5.026 2.982 4.946 3.117 4.863 3.246 4.779 3.37 4.694 3.487 4.608 3.599 4.522 3.705 4.434 3.805 4.347 3.899 4.261 3.988 4.173 4.07 4.088 4.147 4.002 4.219 3.918 4.285 3.834 4.347 3.752 4.403 3.671 4.455 3.592 4.502 3.513 4.545 3.437 4.584 3.362 4.618 3.288 4.651 3.217 4.679 3.145 4.705 3.076 4.727 3.009 4.748 2.943 4.764 2.879 4.78 2.817 4.793 2.755 4.803 2.697 4.811 2.64 4.819 2.584 4.823 2.531 4.826 2.48 4.829 2.43 4.828 2.383 4.828 2.337 4.825 2.294 4.821 2.252 4.817 2.213 4.811 2.177 4.805 2.141 4.798 2.11 4.789 2.079 4.781 2.051 4.772 2.026 4.763 2.003 4.752 1.983 4.743 1.964 4.732 1.949 4.722 1.935 4.712 1.924 4.703 1.916 4.693 1.909 4.683 1.905 4.676 1.903 4.668 1.904 4.661 1.905 4.655 1.91 4.65 1.915 4.647 1.921 4.645 1.931 4.644 1.939 4.645 1.951 4.647 1.961 4.652 1.972 4.658 1.984 4.666 1.995 4.677 2.006 4.689 2.016 4.703" fill="#cf5754"/></g><defs><clipPath id="A"><path fill="#fff" d="M0 0h574v460H0z"/></clipPath></defs></svg>