<svg xmlns="http://www.w3.org/2000/svg" width="596" height="505" fill="none" xmlns:v="https://vecta.io/nano"><path fill-rule="evenodd" d="M587.869 284.749h0l.502 3.471.503 3.485.503 3.5.501 3.515.497 3.532.49 3.549.481 3.568.469 3.586.455 3.605.436 3.624.414 3.644.389 3.663.36 3.681.328 3.7.291 3.717.25 3.734.206 3.749.157 3.764.104 3.776.047 3.787-.014 3.796-.079 3.803-.149 3.807-.222 3.809-.298 3.808-.379 3.804-.464 3.798-.551 3.787-.641 3.773-.735 3.757-.832 3.736-.929 3.711-1.03 3.684-1.132 3.653-1.235 3.617-1.339 3.578-1.445 3.536-1.549 3.489-1.656 3.44-1.761 3.386-1.866 3.329-1.972 3.269-2.077 3.203-2.181 3.136-2.284 3.065-2.386 2.99-2.486 2.911-2.585 2.831-2.681 2.746-2.776 2.659-2.869 2.57-2.958 2.476-3.046 2.382-3.129 2.285-3.211 2.185-3.289 2.084-3.364 1.98-3.434 1.877-3.502 1.771-3.565 1.664-3.624 1.557-3.68 1.448-3.731 1.34-3.778 1.232-3.82 1.123-3.859 1.016-3.892.908-3.922.802-3.947.697-3.967.593-3.984.491-3.995.39-4.002.292-4.006.196-4.005.102-4 .011-3.99-.077-3.978-.162-3.961-.244-3.941-.323-3.918-.399-3.891-.47-3.861-.539-3.828-.604-3.792-.664-3.755-.722-3.714-.775-3.672-.824-3.627-.87-3.581-.911-3.534-.949-3.484-.984-3.435-1.014-3.383-1.04-3.331-1.063-3.279-1.082-3.225-1.095-3.171-1.107-3.118-1.112-3.063-1.114-3.01-1.112-2.956-1.105-2.902-1.095-2.85-1.081-2.799-1.062-2.747-1.04-2.698-1.013-2.65-.983-2.603-.95-2.558-.913-2.515-.872-2.474-.827-2.434-.78-2.397-.728-2.362-.674-2.331-.615-2.3-.553-2.274-.487-2.25-.417-2.229-.345-2.212-.267-2.198-.188-2.187-.105-2.18-.021-2.177.065-2.179.152-2.183.24-2.192.328-2.205.416-2.221.502-2.243.589-2.267.673-2.295.755-2.326.836-2.363.911-2.401.986-2.442 1.055-2.487 1.121-2.535 1.182-2.585 1.238-2.636 1.29-2.691 1.337-2.746 1.376-2.804 1.412-2.861 1.44-2.921 1.463-2.98 1.48-3.041 1.489-3.099 1.492-3.16 1.49-3.217 1.48-3.276 1.464-3.331 1.441-3.386 1.412-3.439 1.377-3.49 1.335-3.538 1.287-3.584 1.234-3.627 1.175-3.667 1.11-3.704 1.039-3.737.965-3.766.886-3.793.801-3.815.713-3.833.621-3.848.526-3.859.427-3.865.326-3.867.222-3.866.117-3.86.008-3.851-.1-3.837-.211-3.82-.322-3.8-.433-3.774-.545-3.747-.655-3.716-.766-3.683-.875-3.648-.982-3.61-1.086-3.572-1.187-3.532-1.286-3.492-1.382-3.452-1.474-3.41-1.563-3.37-1.648-3.33-1.729-3.289-1.808-3.251-1.882-3.213-1.954-3.175-2.022-3.139-2.088-3.103-2.15-3.068-2.211-3.033-2.269-2.999-2.325-2.965-2.38-2.931-2.433-2.896-2.486-2.861-2.538-2.823-2.589-2.784-2.641-2.744-2.692-2.701-2.743-2.657-2.795-2.61-2.845-2.561-2.895-2.511-2.946-2.458-2.995-2.403-3.045-2.346-3.093-2.287-3.141-2.226-3.188-2.162-3.235-2.097-3.28-2.03-3.324-1.962-3.367-1.892-3.409-1.82-3.45-1.747-3.488-1.672-3.526-1.597-3.562-1.521-3.596-1.444-3.628-1.366-3.659-1.289-3.688-1.211-3.714-1.133-3.739-1.055-3.762-.978-3.782-.901-3.802-.826-3.818-.751-3.834-.677-3.846-.605-3.858-.534-3.867-.465-3.874-.398-3.881-.332-3.885-.268-3.888-.206-3.889-.146-3.89-.088-3.888L0 307.975l.022-3.883.074-3.88.124-3.875.172-3.869.218-3.863.263-3.856.306-3.85.348-3.842.389-3.834.429-3.826.467-3.817.506-3.809.544-3.801.581-3.791.619-3.782.657-3.772.696-3.762.738-3.752.781-3.74.828-3.728.878-3.713.932-3.699.99-3.682 1.053-3.662 1.12-3.641 1.192-3.616 1.268-3.589 1.349-3.559 1.435-3.524 1.525-3.487 1.619-3.446 1.717-3.399 1.819-3.35 1.923-3.296 2.03-3.237 2.138-3.174 2.248-3.107 2.359-3.036 2.469-2.961 2.579-2.882 2.686-2.799 2.792-2.715 2.895-2.625 2.995-2.535 3.091-2.441 3.183-2.346 3.272-2.248 3.356-2.149 3.436-2.049 3.51-1.947 3.58-1.845 3.644-1.743 3.703-1.641 3.755-1.539 3.802-1.439 3.843-1.339 3.878-1.24 3.906-1.145 3.928-1.051 3.944-.96 3.953-.872 3.957-.788 3.955-.706 3.946-.63 3.931-.558 3.911-.49 3.886-.427 3.855-.369 3.818-.317 3.778-.271 3.733-.229 3.684-.194 3.631-.166 3.574-.142 3.514-.125 3.452-.114 3.387-.109 3.321-.111 3.252-.119 3.182-.131 3.113-.15 3.041-.175 2.971-.205 2.901-.24 2.831-.28 2.763-.324 2.696-.373 2.631-.426 2.568-.483 2.508-.542 2.451-.604 2.397-.669 2.345-.736 2.298-.804 2.254-.873 2.214-.944 2.179-1.013 2.147-1.083 2.12-1.152 2.097-1.22 2.078-1.287 2.063-1.353 2.052-1.418 2.045-1.481 2.041-1.544 2.041-1.605 2.045-1.665 2.052-1.723 2.062-1.779 2.077-1.833 2.093-1.885 2.114-1.935 2.136-1.982 2.163-2.027 2.193-2.069 2.224-2.108 2.258-2.144 2.295-2.178 2.335-2.207 2.376-2.234 2.419-2.258 2.465-2.278 2.512-2.295 2.56-2.309 2.611-2.321 2.662-2.329 2.715-2.334 2.769-2.336 2.823-2.335 2.879-2.33 2.936-2.321 2.992-2.308 3.05-2.292 3.108-2.271 3.165-2.246 3.222-2.217 3.28-2.183 3.337-2.145 3.392-2.102 3.448-2.055 3.502-2.004 3.555-1.948 3.606-1.887 3.656-1.822 3.704-1.752 3.749-1.679 3.794-1.601 3.835-1.518 3.873-1.432 3.91-1.342 3.943-1.249 3.973-1.151 4-1.051 4.024-.947 4.045-.84 4.062-.73 4.075-.618 4.085-.503 4.091-.386 4.093-.268 4.092-.147L421.691 0l4.077.097 4.065.221 4.047.346 4.027.47 4.002.595 3.974.72 3.942.845 3.907.969 3.867 1.092 3.825 1.214 3.778 1.335 3.73 1.454 3.678 1.571 3.622 1.687 3.564 1.8 3.504 1.911 3.441 2.02 3.375 2.125 3.307 2.228 3.238 2.328 3.166 2.425 3.094 2.518 3.019 2.608 2.944 2.695 2.867 2.777 2.791 2.856 2.713 2.93 2.636 3.001 2.559 3.068 2.482 3.13 2.405 3.189 2.33 3.243 2.254 3.294 2.18 3.341 2.107 3.384 2.035 3.423 1.965 3.458 1.895 3.491 1.828 3.519 1.763 3.545 1.698 3.568 1.635 3.588 1.575 3.605 1.515 3.619 1.458 3.631 1.403 3.641 1.348 3.649 1.295 3.655 1.244 3.66 1.195 3.662 1.146 3.664 1.1 3.663 1.055 3.662 1.012 3.659.969 3.656.93 3.65.89 3.645.853 3.639.817 3.631.783 3.624.75 3.614.719 3.606.689 3.596.662 3.586.634 3.576.61 3.565.587 3.554.565 3.543.546 3.533.526 3.521.511 3.511.495 3.499.481 3.489.47 3.479.46 3.469.451 3.46.444 3.45.438 3.442.435 3.435.432 3.427.43 3.421.431 3.415.432 3.412.434 3.407.438 3.405.442 3.404.448 3.404.452 3.405.459 3.407.466 3.41.471 3.415.478 3.422.485 3.429.49 3.437.993 6.907" fill="#cf5754"/></svg>