<svg xmlns="http://www.w3.org/2000/svg" xmlns:xlink="http://www.w3.org/1999/xlink" width="614" height="601" fill="none" xmlns:v="https://vecta.io/nano"><style><![CDATA[.B{fill:#fff}.C{stroke:#263238}.D{fill:#4675f4}.E{stroke-linejoin:round}.F{fill:#263238}.G{opacity:.5}.H{stroke-miterlimit:10}.I{opacity:.2}.J{stroke-linecap:round}]]></style><path fill-rule="evenodd" d="M613.99 296.89h0l.01 4.424-.029 4.424-.068 4.426-.108 4.426-.149 4.427-.189 4.428-.232 4.428-.275 4.429-.32 4.429-.365 4.428-.414 4.428-.462 4.427-.513 4.425-.566 4.422-.62 4.42-.677 4.415-.734 4.411-.795 4.404-.857 4.397-.921 4.388-.987 4.379-1.055 4.366-1.125 4.354-1.196 4.339-1.269 4.322-1.344 4.304-1.421 4.283-1.498 4.262-1.578 4.236-1.657 4.21-1.739 4.182-1.821 4.151-1.903 4.118-1.986 4.082-2.07 4.046-2.154 4.006-2.237 3.965-2.32 3.921-2.402 3.875-2.485 3.828-2.566 3.779-2.646 3.727-2.724 3.675-2.802 3.621-2.877 3.565-2.95 3.508-3.023 3.451-3.091 3.392-3.159 3.332-3.224 3.272-3.287 3.211-3.347 3.15-3.404 3.088-3.461 3.026-3.513 2.963-3.564 2.901-3.612 2.839-3.658 2.777-3.701 2.715-3.741 2.653-3.78 2.593-3.816 2.532-3.849 2.473-3.881 2.413-3.91 2.355-3.937 2.297-3.962 2.241-3.984 2.185-4.006 2.13-4.026 2.077-4.043 2.024-4.059 1.972-4.073 1.921-4.086 1.872-4.098 1.823-4.109 1.776-4.118 1.729-4.126 1.683-4.133 1.638-4.14 1.595-4.146 1.55-4.152 1.509-4.156 1.466-4.161 1.424-4.165 1.382-4.168 1.341-4.173 1.298-4.177 1.257-4.18 1.215-4.184 1.172-4.188 1.129-4.191 1.085-4.195 1.04-4.2.994-4.202.948-4.207.9-4.211.851-4.214.8-4.217.749-4.221.696-4.224.641-4.226.585-4.229.527-4.23.468-4.232.406-4.232.344-4.231.28-4.23.214-4.228.146-4.225.077-4.22.007-4.215-.065-4.208-.139-4.199-.213-4.19-.289-4.177-.366-4.165-.444-4.15-.522-4.134-.602-4.115-.682-4.094-.762-4.073-.843-4.048-.923-4.022-1.004-3.995-1.085-3.964-1.165-3.932-1.244-3.898-1.323-3.863-1.4-3.825-1.478-3.785-1.553-3.745-1.627-3.701-1.7-3.656-1.772-3.611-1.841-3.562-1.91-3.514-1.976-3.463-2.04-3.411-2.103-3.358-2.162-3.304-2.221-3.248-2.277-3.193-2.331-3.136-2.381-3.078-2.431-3.021-2.476-2.961-2.521-2.903-2.562-2.844-2.601-2.784-2.637-2.725-2.67-2.665-2.702-2.607-2.73-2.548-2.756-2.489-2.78-2.432-2.801-2.374-2.819-2.317-2.835-2.262-2.849-2.207-2.86-2.152-2.869-2.1-2.877-2.048-2.881-1.997-2.883-1.949-2.884-1.9-2.882-1.854-2.879-1.81-2.873-1.766-2.866-1.725-2.856-1.686-2.846-1.648-2.834-1.612-2.819-1.578-2.805-1.547-2.787-1.516-2.77-1.489-2.752-1.463-2.731-1.439-2.712-1.417-2.69-1.397-2.668-1.379-2.646-1.363-2.624-1.349-2.6-1.337-2.578-1.326-2.555-1.317-2.532-1.311-2.509-1.305-2.487-1.302-2.466-1.299-2.444-1.299-2.423-1.299-2.403-1.302-2.384-1.305-2.365-1.309-2.348-1.314-2.332-1.32-2.316-1.328-2.302-1.335-2.289-1.344-2.277-1.353-2.266-1.362-2.257-1.372-2.249-1.382-2.243-1.392-2.238-1.403-2.233-1.413-2.232-1.423-2.23-1.433-2.231-1.442-2.233-1.452-2.237-1.46-2.241-1.468-2.248-1.475-2.255-1.481-2.264-1.486-2.275-1.49-2.287-1.493-2.299-1.494-2.314-1.494-2.33-1.492-2.347-1.489-2.364-1.484-2.383-1.477-2.404-1.469-2.424-1.458-2.446-1.445-2.468-1.43-2.491-1.413-2.515-1.394-2.539-1.373-2.564-1.349-2.589-1.323-2.614-1.295-2.639-1.265-2.665-1.232-2.69-1.197-2.715-1.16-2.739-1.12-2.765-1.078-2.788-1.034-2.812-.988-2.835-.94-2.858-.89-2.878-.838-2.899-.784-2.919-.729-2.937-.673-2.955-.616-2.971-.557-2.986-.498-3-.438-3.013-.377-3.025-.316-3.035-.255-3.044-.193-3.053-.131-3.058-.07-3.065L0 254.761l.053-3.072.114-3.074.174-3.075.234-3.075.293-3.074.352-3.072.41-3.069.467-3.065.523-3.06.578-3.056.632-3.048.685-3.043.737-3.035.788-3.027.838-3.018.887-3.01.935-3 .982-2.991 1.028-2.981 1.073-2.97 1.117-2.96 1.161-2.949 1.203-2.938 1.245-2.927 1.285-2.915 1.326-2.904 1.365-2.891 1.404-2.88 1.442-2.868 1.48-2.854 1.518-2.842 1.556-2.829 1.593-2.816 1.631-2.801 1.668-2.788 1.705-2.773 1.741-2.758 1.777-2.744 1.814-2.728 1.849-2.712 1.885-2.697 1.921-2.68 1.956-2.664 1.991-2.648 2.026-2.631 2.06-2.614 2.094-2.597 2.128-2.58 2.162-2.562 2.196-2.544 2.229-2.526 2.262-2.509 2.295-2.49 2.328-2.471 2.361-2.453 2.394-2.434 2.426-2.415 2.459-2.395 2.491-2.375 2.523-2.355 2.555-2.335 2.587-2.315 2.619-2.293 2.651-2.272 2.684-2.25 2.716-2.228 2.747-2.205 2.78-2.182 2.811-2.159 2.843-2.135 2.875-2.11 2.907-2.086 2.938-2.061 2.969-2.035 3.001-2.009 3.032-1.983 3.063-1.956 3.094-1.929 3.125-1.902 3.156-1.873 3.186-1.845 3.217-1.815 3.247-1.786 3.278-1.755 3.308-1.724 3.338-1.692 3.367-1.66 3.398-1.626 3.427-1.593 3.456-1.558 3.485-1.522 3.514-1.486 3.543-1.448 3.571-1.41 3.599-1.371 3.626-1.331 3.654-1.29 3.68-1.248 3.706-1.206 3.733-1.162 3.757-1.118 3.782-1.073 3.806-1.027 3.83-.981 3.852-.933 3.875-.886 3.896-.838 3.917-.789 3.937-.74 3.956-.691 3.975-.641 3.993-.592 4.01-.542 4.027-.493 4.042-.443 4.058-.394 4.073-.345 4.086-.296 4.101-.248 4.113-.199 4.125-.151 4.137-.103 4.149-.055L307.994 0l4.17.041 4.18.089 4.189.136 4.198.184 4.206.231 4.215.279 4.222.326 4.229.374 4.236.421 4.243.469 4.248.516 4.254.564 4.258.612 4.263.66 4.267.708 4.27.757 4.273.806 4.275.855 4.277.904 4.278.954 4.278 1.005 4.278 1.055 4.277 1.107 4.274 1.158 4.272 1.211 4.268 1.264 4.263 1.317 4.257 1.372 4.251 1.427 4.241 1.483 4.232 1.539 4.222 1.597 4.208 1.655 4.194 1.714 4.179 1.774 4.161 1.835 4.141 1.897 4.12 1.959 4.097 2.022 4.072 2.086 4.044 2.15 4.014 2.215 3.983 2.281 3.948 2.347 3.912 2.414 3.873 2.481 3.832 2.548 3.789 2.616 3.742 2.683 3.694 2.75 3.643 2.818 3.59 2.885 3.534 2.951 3.477 3.018 3.416 3.083 3.354 3.148 3.29 3.212 3.223 3.276 3.154 3.338 3.085 3.399 3.012 3.458 2.939 3.516 2.863 3.574 2.787 3.628 2.71 3.683 2.631 3.734 2.552 3.784 2.472 3.831 2.392 3.878 2.311 3.922 2.231 3.963 2.151 4.003 2.071 4.04 1.991 4.075 1.913 4.108 1.835 4.14 1.758 4.168 1.681 4.195 1.607 4.219 1.533 4.243 1.461 4.264 1.389 4.283 1.319 4.301 1.251 4.316 1.185 4.331 1.119 4.344 1.055 4.355.993 4.366.933 4.374.874 4.382.817 4.389.761 4.395.708 4.4.655 4.404.604 4.408.555 4.41.507 4.413.461 4.415.415 4.416.371 4.418.328 4.419.286 4.419.245 4.42.205 4.421.165 4.422.126 4.422.087 4.422.048 4.424" fill="#0e2431"/><path d="M571.138 279.386a135.43 135.43 0 0 1-3.772 32.258 119.43 119.43 0 0 1-3.036 10.318l-1.042 2.911-.906 2.367-.26.646-1.008 2.435-.17.396-1.042 2.367-.476 1.031-.985 2.084-1.076 2.186-.397.77-.962 1.869-.782 1.439-3.772 6.569-1.631 2.639-.396.645-1.937 2.991-1.619 2.412-1.439 2.096-.317.441-1.529 2.175-1.926 2.65-.396.533a116.14 116.14 0 0 1-2.265 2.99l-1.371 1.767-2.503 3.205-2.446 3.035-.272.329-2.469 3.001-.748.907-2.265 2.74-6.717 7.816-14.056 15.732-12.119 12.787c-19.73 20.263-41.092 39.167-64.322 54.231-2.888 1.869-5.799 3.692-8.744 5.425l-3.228 1.892-.555.317-3.341 1.869c-1.076.611-2.266 1.257-3.398 1.857l-1.563.816c-2.266 1.178-4.531 2.31-6.796 3.398l-3.715 1.71a94.22 94.22 0 0 1-3.455 1.529l-1.415.6-3.183 1.314a164.97 164.97 0 0 1-6.207 2.367l-2.401.861-1.359.464-2.266.737-1.948.623h-.068c-1.276.4-2.556.777-3.839 1.132a194.02 194.02 0 0 1-6.094 1.654l-4.055.963-3.851.838-.305.056-4.033.771-2.061.351-2.084.328c-.623.102-1.257.193-1.88.272l-2.265.317a175.02 175.02 0 0 1-24.205 1.371h-1.45c-7.33-.146-14.646-.695-21.916-1.643l-1.597-.215-2.752-.385-2.141-.34c-3.024-.475-6.026-1.019-9.061-1.631a55.16 55.16 0 0 1-1.982-.407l-6.049-1.348-4.02-.986-2.005-.521-2.005-.532c-2.662-.714-5.312-1.484-7.928-2.265-3.066-.929-6.117-1.914-9.152-2.956l-3.307-1.133c-3.398-1.212-6.796-2.492-10.194-3.817l-1.846-.748-1.484-.645-.997-.453c-2.197-.997-4.53-2.164-7.158-3.477l-1.314-.68-4.904-2.628-11.326-6.444c-45.306-26.663-114.691-76.702-130.978-95.674l-2.435-2.922-1.846-2.345c-.6-.793-1.133-1.427-1.631-2.163s-.94-1.28-1.393-1.937l-1.28-1.823-.091-.136-1.518-2.266c-.498-.747-.951-1.472-1.404-2.265-.227-.351-.442-.713-.657-1.076l-1.495-2.514-1.552-2.798c-.883-1.642-1.733-3.296-2.526-4.972l-.612-1.303a103.57 103.57 0 0 1-4.236-10.522c-.442-1.246-.838-2.503-1.223-3.76-.487-1.62-.929-3.251-1.337-4.882l-.227-.974c-.204-.849-.396-1.71-.566-2.571-.261-1.201-.476-2.401-.68-3.613 0-.295-.102-.589-.136-.884-.102-.623-.193-1.246-.272-1.88l-.272-2.265c0-.261-.057-.51-.079-.759-.068-.646-.113-1.291-.17-1.925.006-.053.006-.106 0-.159a53.46 53.46 0 0 1-.125-2.265 1.43 1.43 0 0 1 0-.215 43.09 43.09 0 0 0-.068-2.413v-2.265c0-1.133.057-2.367.125-3.545 0-.771.102-1.541.17-2.266a74.89 74.89 0 0 1 .544-4.53c.113-.77.238-1.541.385-2.265a71.34 71.34 0 0 1 .985-4.588c1-3.965 2.307-7.846 3.908-11.609a81.85 81.85 0 0 1 4.066-8.314c.113-.226.249-.464.385-.691 6.105-10.748 14.407-20.285 23.785-29.12.997-.951 2.005-1.88 3.035-2.797l3.262-2.922.204-.182 5.335-4.53 8.438-6.864.283-.226 7.34-5.743 11.496-8.902 2.99-2.345c1.133-.861 2.175-1.722 3.251-2.582a242.14 242.14 0 0 0 27.024-25.643l4.689-5.199 2.198-2.503c10.341-11.779 19.957-23.695 30.66-34.942 2.552-2.68 5.165-5.323 7.838-7.928 2.265-2.164 4.53-4.293 6.954-6.377 2.662-2.571 5.414-4.961 8.325-7.226a160.8 160.8 0 0 1 12.788-8.993l3.318-2.084c112.935-70.224 196.059-47.276 251.513 0 4.206 3.609 8.253 7.301 12.142 11.077 2.355 2.265 4.632 4.632 6.795 7.011.25.249.476.51.714.781 1.555 1.654 3.066 3.319 4.531 4.995l1.302 1.495 1.926 2.266 2.321 2.775 1.439 1.766a258.82 258.82 0 0 1 8.846 11.553l1.676 2.334c3.874 5.436 7.475 10.929 10.817 16.389l1.415 2.333a52.95 52.95 0 0 1 1.394 2.345l1.347 2.321 1.326 2.322 1.291 2.266 1.257 2.265 1.235 2.265 1.2 2.265 1.133 2.266 1.132 2.265a253.76 253.76 0 0 1 4.225 8.857l1.937 4.372c2.82 6.479 5.233 12.674 7.204 18.439.004.027.004.053 0 .08l.555 1.642c.181.51.373 1.133.555 1.676l.407 1.28.601 1.914.611 2.073 1.133 3.817.849 3.239c0 .204.114.397.159.601s.079.339.124.509l.465 1.914a162.66 162.66 0 0 1 1.132 5.086l.555 2.775.102.521a73.81 73.81 0 0 1 .476 2.616c.204 1.133.397 2.345.566 3.511.148.884.272 1.779.397 2.674a1 1 0 0 0 .056.396l.227 1.79c.068.656.125.996.181 1.483l.533 5.392.102 1.223.135 2.05c0 .759.091 1.518.125 2.265 0 .589.057 1.133.079 1.756 0 .861.057 1.733.068 2.593l.046 3.217z" class="D"/><g opacity=".7" class="B"><path d="M571.138 279.386a135.43 135.43 0 0 1-3.772 32.258 119.43 119.43 0 0 1-3.036 10.318l-1.042 2.911-.906 2.367-.26.646-1.008 2.435-.17.396-1.042 2.367-.476 1.031-.985 2.084-1.076 2.186-.397.77-.962 1.869-.782 1.439-3.772 6.569-1.631 2.639-.396.645-1.937 2.991-1.619 2.412-1.439 2.096-.317.441-1.529 2.175-1.926 2.65-.396.533a116.14 116.14 0 0 1-2.265 2.99l-1.371 1.767-2.503 3.205-2.446 3.035-.272.329-2.469 3.001-.748.907-2.265 2.74-6.717 7.816-14.056 15.732-12.119 12.787c-19.73 20.263-41.092 39.167-64.322 54.231-2.888 1.869-5.799 3.692-8.744 5.425l-3.228 1.892-.555.317-3.341 1.869c-1.076.611-2.266 1.257-3.398 1.857l-1.563.816c-2.266 1.178-4.531 2.31-6.796 3.398l-3.715 1.71a94.22 94.22 0 0 1-3.455 1.529l-1.415.6-3.183 1.314a164.97 164.97 0 0 1-6.207 2.367l-2.401.861-1.359.464-2.266.737-1.948.623h-.068c-1.276.4-2.556.777-3.839 1.132a194.02 194.02 0 0 1-6.094 1.654l-4.055.963-3.851.838-.305.056-4.033.771-2.061.351-2.084.328c-.623.102-1.257.193-1.88.272l-2.265.317a175.02 175.02 0 0 1-24.205 1.371h-1.45c-7.33-.146-14.646-.695-21.916-1.643l-1.597-.215-2.752-.385-2.141-.34c-3.024-.475-6.026-1.019-9.061-1.631a55.16 55.16 0 0 1-1.982-.407l-6.049-1.348-4.02-.986-2.005-.521-2.005-.532c-2.662-.714-5.312-1.484-7.928-2.265-3.066-.929-6.117-1.914-9.152-2.956l-3.307-1.133c-3.398-1.212-6.796-2.492-10.194-3.817l-1.846-.748-1.484-.645-.997-.453c-2.197-.997-4.53-2.164-7.158-3.477l-1.314-.68-4.904-2.628-11.326-6.444c-45.306-26.663-114.691-76.702-130.978-95.674l-2.435-2.922-1.846-2.345c-.6-.793-1.133-1.427-1.631-2.163s-.94-1.28-1.393-1.937l-1.28-1.823-.091-.136-1.518-2.266c-.498-.747-.951-1.472-1.404-2.265-.227-.351-.442-.713-.657-1.076l-1.495-2.514-1.552-2.798c-.883-1.642-1.733-3.296-2.526-4.972l-.612-1.303a103.57 103.57 0 0 1-4.236-10.522c-.442-1.246-.838-2.503-1.223-3.76-.487-1.62-.929-3.251-1.337-4.882l-.227-.974c-.204-.849-.396-1.71-.566-2.571a65.53 65.53 0 0 1-.68-3.613c0-.295-.102-.589-.136-.884-.102-.623-.193-1.246-.272-1.88l-.272-2.265c0-.261-.057-.51-.079-.759-.068-.646-.113-1.291-.17-1.925.006-.053.006-.106 0-.159a53.46 53.46 0 0 1-.125-2.265 1.43 1.43 0 0 1 0-.215 43.09 43.09 0 0 0-.068-2.413c0-1.959 0-3.908.125-5.856 0-.77.102-1.54.17-2.265.136-1.518.317-3.035.544-4.53.113-.771.238-1.541.385-2.266a71.46 71.46 0 0 1 .985-4.587c1-3.965 2.307-7.847 3.908-11.609a81.75 81.75 0 0 1 4.066-8.314c.113-.226.249-.464.385-.691 6.105-10.749 14.407-20.285 23.785-29.12l1.608-1.506 1.427-1.291c1.133-.986 2.163-1.949 3.262-2.923l.204-.181 5.335-4.53 8.438-6.864.283-.227 7.34-5.742 3.692-2.854 7.804-6.049 2.99-2.344c1.133-.861 2.175-1.722 3.251-2.583a242.04 242.04 0 0 0 27.024-25.642l4.689-5.199 2.198-2.503c10.341-11.78 19.957-23.695 30.66-34.942a298.59 298.59 0 0 1 7.838-7.929c2.265-2.163 4.53-4.292 6.954-6.376 2.662-2.526 5.414-4.916 8.325-7.181a160.8 160.8 0 0 1 12.788-8.993l3.318-2.084c112.935-70.224 196.059-47.276 251.513 0 4.206 3.609 8.253 7.301 12.142 11.077 2.355 2.265 4.632 4.632 6.795 7.011.25.249.476.51.714.781 1.555 1.654 3.066 3.319 4.531 4.995l1.302 1.495 1.926 2.266 2.321 2.775 1.439 1.766a258.82 258.82 0 0 1 8.846 11.553l1.676 2.334c3.874 5.436 7.475 10.929 10.817 16.389l1.415 2.333a52.95 52.95 0 0 1 1.394 2.345l1.347 2.321 1.326 2.322 1.291 2.266 1.257 2.265 1.235 2.265 1.2 2.265 1.133 2.266 1.132 2.265a253.76 253.76 0 0 1 4.225 8.857l1.937 4.372c2.82 6.479 5.233 12.674 7.204 18.439.004.027.004.053 0 .08l.555 1.642c.181.51.373 1.133.555 1.676l.407 1.28.601 1.914.611 2.073 1.133 3.817.849 3.239c0 .204.114.397.159.601s.079.339.124.509l.465 1.914a162.66 162.66 0 0 1 1.132 5.086l.555 2.775.102.521a73.81 73.81 0 0 1 .476 2.616c.204 1.133.397 2.345.566 3.511.148.884.272 1.779.397 2.674a1 1 0 0 0 .056.396l.227 1.79c.068.656.125.996.181 1.483l.533 5.392.102 1.223.135 2.05c0 .759.091 1.518.125 2.265 0 .589.057 1.133.079 1.756 0 .861.057 1.733.068 2.593l.046 3.217z"/></g><path d="M61.929 297.995c-.171-.248-.227-.147 0 0z" class="F I"/><path d="M167.864 288.006c-.629 3.78-2.292 7.312-4.805 10.205a20.76 20.76 0 0 1-9.433 6.184l-2.809.917C140.714 319.617 123 325.7 107.902 316.854l-4.417-2.594-12.369-14.724h-.147c-3.919.815-8.347.215-11.247-2.549a3.85 3.85 0 0 1-2.194 2.792c-.563.255-1.179.371-1.796.338a3.85 3.85 0 0 1-3.059-1.804 3.85 3.85 0 0 1-.282-3.54 3.86 3.86 0 0 1 1.091-1.467c-2.492 2.198-6.343 1.19-8.744-1.212a75.55 75.55 0 0 1 2.265-19.583 78.97 78.97 0 0 1 3.828-11.553c1.197-2.845 2.555-5.621 4.066-8.313.113-.227.249-.465.385-.691a99.48 99.48 0 0 1 7.532-11.326l1.427-1.292 3.262-2.922.204-.181 5.335-4.531 8.438-6.863.283-.227 7.34-5.742 3.692-2.855a10.16 10.16 0 0 1 2.175.51c3.024 1.053 3.545 3.828 5.663 5.731 2.786 2.549 5.459-1.733 9.752-1.597 13.195.408 8.075 13.943 14.52 12.244 27.829-7.34 23.151 28.259 11.055 36.074 7.135 5.856 13.285 9.764 11.904 19.029z" fill="#000" class="I"/><g class="H"><path d="M108.026 321.849c25.922 0 46.937-20.756 46.937-46.359s-21.015-46.359-46.937-46.359S61.09 249.887 61.09 275.49s21.014 46.359 46.936 46.359z" class="B C"/><path d="M108.026 315.88c23.633 0 42.791-18.925 42.791-42.27s-19.158-42.27-42.791-42.27-42.791 18.925-42.791 42.27 19.158 42.27 42.791 42.27z" stroke="#fff" class="F"/></g><path d="M62.042 290.271c-2.696 1.676-3.466 7.305-1.348 9.752s6.184.555 7.011-3.251a1.27 1.27 0 0 0 .391.585c.183.154.405.253.642.287a1.27 1.27 0 0 0 1.232-.555c.214-.355.34-.756.367-1.17s-.044-.828-.209-1.208c-.125-.295-.204-.17 0 0 1.382 1.132 3.76-.102 4.089-2.447-1.008 6.23 4.655 11.666 8.823 8.495-1.235 2.65.385 6.128 2.537 6.796s4.463-.6 6.524-2.005 4.179-3.024 6.433-3.126c1.959-.091 3.783 1.019 5.663 1.676 5.958 2.073 12.935-.679 17.488-6.92 3.013 5.153 10.432 3.251 12.459-3.16.419 3.001 2.469 5.289 4.768 5.312s4.599-2.197 5.392-5.176c0 2.843 2.582 4.236 4.394 2.412 1.259-1.311 2.161-2.923 2.619-4.682a10.63 10.63 0 0 0-.002-5.364c3.08-.125 6.071-3.704 6.535-7.849s-1.62-8.314-4.599-9.129c5.12-2.118 9.062-9.061 9.311-16.186s-3.466-13.693-8.484-15.347c-.971-.387-2.034-.479-3.057-.266a5.32 5.32 0 0 0-2.696 1.467c-.601-4.044-2.436-7.657-5.143-9.469-4.304-2.911-10.295-.917-13.501 4.53a10.64 10.64 0 0 0 1.24-4.716 10.67 10.67 0 0 0-.99-4.775c-1.428-2.639-4.259-3.704-6.66-2.458-.51-4.338-3.863-7.419-7.136-6.58s-5.912 5.482-5.663 9.865c-.306-3.534-4.531-4.406-5.98-1.439.124.272-.068.114 0 0-2.084-4.372-6.32-6.614-10.251-5.334-4.179 1.37-7.69 6.614-8.234 12.345-1.408-1.275-3.255-1.957-5.154-1.904s-3.705.836-5.04 2.188c-3.092 2.786-4.882 8.087-4.338 12.821-3.251-3.205-8.721-1.45-10.953 3.511s-.702 11.983 3.07 14.067c-2.594.397-4.882 3.84-4.882 7.329s2.265 6.478 4.904 6.388c-2.628.226-5.108 3.33-5.493 6.852s1.382 7.068 3.919 7.838z" class="D"/><g class="B I"><path d="M105.184 274.029c-.601-.551-1.331-.944-2.122-1.142a4.91 4.91 0 0 0-2.409.009c-.884.346-1.663.916-2.259 1.655s-.989 1.621-1.139 2.559c-.362 2.05.589 4.315 2.152 4.7 1.914.476 3.874-1.665 5.822-1.427.685.163 1.356.382 2.005.657 2.797.782 5.663-1.733 7.996-4.089a11.12 11.12 0 0 0 2.265-2.82c.308-.566.493-1.19.543-1.832a4.6 4.6 0 0 0-.248-1.894c-.68-1.529-2.379-1.654-3.806-1.36a15.23 15.23 0 0 0-7.928 4.644l.249-1.721-1.121 2.061zm40.91-5.584a6.44 6.44 0 0 0-2.424-1.495c-.492-.114-1.007-.065-1.469.14s-.844.552-1.091.992a3.72 3.72 0 0 0-.362 2.231 3.71 3.71 0 0 0 .997 2.028c1.004.819 2.25 1.285 3.545 1.325 1.291.17 2.922.136 3.59-1.37a3.26 3.26 0 0 0 .172-1.705c-.095-.574-.342-1.111-.715-1.557-.698-.692-1.565-1.189-2.515-1.439l.272.85zm-64.039-23.14a12.45 12.45 0 0 0-3.541 3.591 12.46 12.46 0 0 0-1.828 4.7c-.204 1.065-.204 2.401.521 2.922a1.89 1.89 0 0 0 1.756 0l7.521-2.718a11.33 11.33 0 0 0-3.398 2.48 5.66 5.66 0 0 0-1.359 4.44c.123.8.538 1.526 1.166 2.037a3.26 3.26 0 0 0 2.232.727 7.29 7.29 0 0 0 4.157-2.356c1.516-1.268 2.483-3.075 2.696-5.04 0-2.039-1.925-3.817-3.183-2.435 2.978-1.249 5.715-3.009 8.087-5.199a9.74 9.74 0 0 0 2.367-2.922c.315-.594.505-1.246.558-1.917s-.033-1.344-.252-1.98c-2.447-5.765-5.833 3.115-7.419 3.987-2.979 1.654-6.264-2.559-10.08-.317zm-12.096 25.994a3.58 3.58 0 0 0-.099 1.705 3.59 3.59 0 0 0 .699 1.557 1.47 1.47 0 0 0 2.401-.77 9.18 9.18 0 0 0-4.531 3.5c-1.133 1.857-.872 4.972.781 5.561 1.031.374 2.141-.351 3.115-1.076a64.25 64.25 0 0 0 7.849-6.966 3.58 3.58 0 0 0 .317 2.997c.267.446.629.829 1.059 1.121a3.57 3.57 0 0 0 1.433.572c1.858.09 3.624-1.292 5.244-2.628 1.982-1.642 4.27-4.089 3.806-6.898a3.41 3.41 0 0 0-.586-1.445 3.39 3.39 0 0 0-1.17-1.031c-.465-.248-.981-.385-1.507-.399a3.41 3.41 0 0 0-1.527.315c-1.926.85-3.398 2.9-4.768 4.871 1.133-2.016-.351-4.814-2.186-5.018s-3.579 1.291-4.723 3.036c2.107-1.586 2.639-5.403-.136-5.664-1.835-.181-4.995 4.746-5.471 6.66zm57.243-12.006c-1.563-.657-3.557.77-4.01 2.866s.714 4.383 2.356 4.598a5.02 5.02 0 0 0-1.833.806c-.551.39-1.018.886-1.372 1.46-.492.71-.742 1.56-.714 2.423.055.55.309 1.06.713 1.435a2.27 2.27 0 0 0 1.484.604c1.069-.14 2.082-.562 2.934-1.223a4.96 4.96 0 0 0-2.888 1.234c-.431.442-.71 1.009-.798 1.62a2.9 2.9 0 0 0 .311 1.778c.589.725 1.574.533 2.39.193 1.943-.843 3.648-2.154 4.96-3.817.402.698 1.005 1.259 1.731 1.608a4 4 0 0 0 2.336.351c.857-.335 1.569-.961 2.012-1.769s.589-1.744.411-2.648a2.84 2.84 0 0 0-.891-1.5c-.447-.395-1.007-.639-1.6-.697a6.54 6.54 0 0 0-3.262.849 8.39 8.39 0 0 0 2.684-3.828c.419-1.631-.396-3.726-1.71-3.523-1.484.238-2.266 2.855-3.466 3.851-1.416-1.619 1.348-5.368-1.778-6.671zm-26.515-6.218c-1.699 1.552-2.345 4.451-2.266 7.034.068 2.854 1.031 5.844 3.07 6.864 2.673 1.336 6.105-1.733 6.671-5.471a9.16 9.16 0 0 0-3.862-8.971c-.588-.281-1.246-.38-1.89-.283a3.25 3.25 0 0 0-1.723.827zm18.937-4.236l.68.725c-.256-.413-.609-.757-1.028-1.001s-.893-.383-1.379-.402a2.97 2.97 0 0 0-1.405.293 2.98 2.98 0 0 0-1.104.917c-.681.903-1.061 1.997-1.085 3.127s.308 2.24.95 3.171a3.07 3.07 0 0 0 2.661.896c.483-.073.941-.26 1.337-.546s.718-.662.94-1.098c1.029.51 2.213.609 3.312.279a4.53 4.53 0 0 0 2.611-2.057c1.416-2.186 1.133-5.856-.668-7.09s-4.734.963-4.53 3.681l-.793-1.133-.499.238zm20.762 3.013a15.53 15.53 0 0 0-3.319 5.969c-.532 2.344.215 5.233 2.027 5.663s3.534-1.529 4.61-3.568a9.13 9.13 0 0 0 1.212-6.116c-.498-2.005-2.775-3.069-3.953-1.427l-.577-.521zm-29.778-12.108a2.6 2.6 0 0 0-1.772-1.764 2.61 2.61 0 0 0-2.441.541 5.78 5.78 0 0 0-1.427 5.663 4.45 4.45 0 0 0 3.794 3.296 4.18 4.18 0 0 0 3.918-2.915c.176-.554.234-1.139.171-1.717.395.645.981 1.152 1.678 1.448a3.63 3.63 0 0 0 2.207.205 10.13 10.13 0 0 0 4.111-2.197c1.745-1.371 3.613-3.398 3.478-5.946-.015-.872-.344-1.71-.927-2.359a3.62 3.62 0 0 0-2.245-1.175 5.79 5.79 0 0 0-2.445.672 5.81 5.81 0 0 0-1.927 1.65c-.963 1.076-1.767 2.401-2.809 3.398s-2.435 1.529-3.511.849l.147.351z"/></g><g class="C"><path d="M451.792 309.888H190.527V419.923H451.792V309.888Z" class="D E"/><g class="B H"><path d="M220.565 316.548h-24.578v13.603h24.578v-13.603zm225.179 66.327H407.03v13.603h38.714v-13.603zm0-49.338h-23.898v13.603h23.898v-13.603zM220.565 366.1h-24.578v13.603h24.578V366.1zm-4.678-16.389h-19.9v13.603h19.9v-13.603z"/><use xlink:href="#E"/><use xlink:href="#E" x="17.374"/><use xlink:href="#E" x="34.738"/><use xlink:href="#E" x="52.101"/><use xlink:href="#E" x="69.475"/><use xlink:href="#E" x="86.839"/><use xlink:href="#E" x="104.202"/><use xlink:href="#E" x="121.576"/><use xlink:href="#E" x="138.94"/><path d="M365.893 333.13h-13.602v13.603h13.602V333.13z"/><use xlink:href="#E" x="173.678"/><use xlink:href="#E" x="191.041"/><use xlink:href="#E" x="208.416"/><use xlink:href="#F"/><use xlink:href="#F" x="17.374"/><use xlink:href="#F" x="34.738"/><path d="M264.692 399.66h-16.604v13.603h16.604V399.66zm86.84 0h-83.079v13.603h83.079V399.66z"/><use xlink:href="#F" x="183.475"/><use xlink:href="#F" x="200.838"/><use xlink:href="#F" x="218.236"/><path d="M376.053 399.66h-21.124v13.603h21.124V399.66z"/><use xlink:href="#F" x="236.154"/><path d="M233.352 349.711H219.75v13.603h13.602v-13.603z"/><use xlink:href="#G"/><use xlink:href="#G" x="17.374"/><use xlink:href="#G" x="34.738"/><use xlink:href="#G" x="52.112"/><use xlink:href="#G" x="69.476"/><use xlink:href="#G" x="86.839"/><use xlink:href="#G" x="104.213"/><use xlink:href="#G" x="121.576"/><use xlink:href="#G" x="138.94"/><use xlink:href="#G" x="156.314"/><path d="M424.393 349.711h-13.602v13.603h13.602v-13.603zm21.351 0v30.196h-13.603v-16.582h-3.987v-13.614h17.59z"/><use xlink:href="#G" x="-13.377" y="16.582"/><path d="M254.703 366.293H241.1v13.603h13.603v-13.603z"/><use xlink:href="#G" x="21.35" y="16.582"/><use xlink:href="#G" x="38.724" y="16.582"/><use xlink:href="#G" x="56.088" y="16.582"/><use xlink:href="#G" x="73.463" y="16.582"/><use xlink:href="#G" x="90.826" y="16.582"/><use xlink:href="#G" x="108.189" y="16.582"/><use xlink:href="#G" x="125.564" y="16.582"/><path d="M393.643 366.293H380.04v13.603h13.603v-13.603z"/><use xlink:href="#G" x="160.29" y="16.582"/><use xlink:href="#G" x="177.664" y="16.582"/><use xlink:href="#G" x="-20.761" y="33.164"/><use xlink:href="#G" x="-3.398" y="33.164"/><use xlink:href="#G" x="13.976" y="33.164"/><use xlink:href="#G" x="31.34" y="33.164"/><use xlink:href="#G" x="48.703" y="33.164"/><path d="M316.793 382.875H303.19v13.603h13.603v-13.603z"/><use xlink:href="#G" x="83.441" y="33.164"/><use xlink:href="#G" x="100.815" y="33.164"/><path d="M368.894 382.875h-13.602v13.603h13.602v-13.603z"/><use xlink:href="#G" x="135.542" y="33.164"/><path d="M403.633 382.875H390.03v13.603h13.603v-13.603z"/><use xlink:href="#G" x="-13.377" y="-32.348"/><path d="M254.703 317.363H241.1v13.603h13.603v-13.603z"/><use xlink:href="#G" x="21.35" y="-32.348"/><use xlink:href="#G" x="38.724" y="-32.348"/><use xlink:href="#G" x="56.088" y="-32.348"/><use xlink:href="#G" x="73.463" y="-32.348"/><use xlink:href="#G" x="90.826" y="-32.348"/><use xlink:href="#G" x="108.189" y="-32.348"/><use xlink:href="#G" x="125.564" y="-32.348"/><path d="M393.643 317.363H380.04v13.603h13.603v-13.603z"/><use xlink:href="#G" x="160.29" y="-32.348"/><use xlink:href="#G" x="177.664" y="-32.348"/><use xlink:href="#G" x="195.028" y="-32.348"/><path d="M212.467 382.875h-16.48v13.603h16.48v-13.603z"/></g></g><path d="M190.527 310.59l5.46-1.812h252.26l3.59 1.789-261.31.023z" class="F"/><path d="M377.016 499.31l-5.312-31.997c-1.173-4.769-3.666-9.11-7.192-12.527-10.568-10.194-24.533-20.659-25.134-33.979-.917-20.388-4.1-19.81-3.76-24.85 1.38-2.407 2.595-4.904 3.636-7.476.657-1.976 1.172-3.998 1.54-6.048.216-1.006.801-1.896 1.639-2.493s1.87-.86 2.892-.735c1.435.19 2.776.819 3.839 1.801 1.869 1.993 2.9 4.63 2.877 7.362a31.47 31.47 0 0 1-1.132 7.997c1.778 4.505 2.921 9.235 3.398 14.056 1.211-3.738 2.129-7.51 3.341-11.236.249-.136.158-.431.396-.567-1.71-3.669-.26-3.465-3.647-11.541-5.663-13.592-12.051-26.696-16.593-43.776-.369-1.584-.334-3.236.102-4.803 1.642-4.881 6.671-3.76 8.868-.917.575.75 1.034 1.582 1.36 2.469a131.88 131.88 0 0 0 10.839 20.897l12.334 18.802s4.293-3.523 4.95-5.097c.646-1.586.963-14.351.963-14.351s-.974 2.39-3.138 2.266c-1.563-.114-4.734.793-6.988-1.744-.875-1.026-1.373-2.321-1.41-3.668s.389-2.668 1.206-3.74l5.584-7.543a8.47 8.47 0 0 1 4.235-1.759c1.547-.186 3.115.058 4.532.705 3.605 1.814 6.928 4.141 9.865 6.909 2.948-.083 5.879.482 8.585 1.654 3.953 1.903 8.098 7.362 8.098 7.362s4.61.283 6.683 1.79c.521.374 7.555 11.326 5.018 19.855-1.507 5.085-2.436 12.459-3.115 14.452l-3.455 49.938 6.966 32.846-14.894 8.303c-5.441 3.034-11.137 5.584-17.024 7.622l-10.952 3.761z" fill="#000" class="I"/><path d="M419.308 440.956l.136-50.074c.544-2.016.985-9.446 2.141-14.622 1.97-8.676-5.777-19.141-6.32-19.481-2.175-1.348-6.796-1.325-6.796-1.325s-4.531-5.176-8.574-6.796c-2.775-1.006-5.736-1.392-8.676-1.133a41.5 41.5 0 0 0-10.307-6.241c-1.457-.55-3.037-.689-4.567-.401s-2.952.991-4.109 2.032l-5.063 7.929c-.747 1.124-1.086 2.47-.96 3.814s.708 2.604 1.651 3.571c2.424 2.389 5.527 1.268 7.09 1.268 2.163 0 2.979-2.446 2.979-2.446s.532 12.753 0 14.373c-.555 1.619-4.61 5.414-4.61 5.414l-13.591-17.93c-4.669-6.329-8.752-13.069-12.199-20.138-.391-.86-.906-1.657-1.529-2.367-2.379-2.696-7.464-3.477-8.789 1.495a9.85 9.85 0 0 0 .215 4.802c5.663 16.741 12.889 29.392 19.47 42.576 3.908 7.826 2.458 7.736 4.406 11.27-.227.158-.113.453-.363.6-.951 3.806-1.619 7.623-2.582 11.428a52.11 52.11 0 0 0-4.338-13.795c.55-2.651.752-5.362.6-8.065-.17-2.731-1.387-5.291-3.398-7.147-1.126-.91-2.507-1.448-3.952-1.54a4.13 4.13 0 0 0-2.868.914c-.806.656-1.336 1.591-1.482 2.62-.227 2.067-.605 4.115-1.132 6.127-.868 2.635-1.913 5.208-3.126 7.702 0 5.052 3.126 4.225 5.402 24.545 1.767 15.856 22.155 26.288 33.254 37.716l11.825 37.219c13.842-5.599 27.104-12.537 39.597-20.716l-9.435-33.198z" class="B"/><mask id="A" maskUnits="userSpaceOnUse" x="337" y="334" width="92" height="161"><path d="M419.308 440.956l.136-50.074c.544-2.016.985-9.446 2.141-14.622 1.97-8.676-5.777-19.141-6.32-19.481-2.175-1.348-6.796-1.325-6.796-1.325s-4.531-5.176-8.574-6.796c-2.775-1.006-5.736-1.392-8.676-1.133a41.5 41.5 0 0 0-10.307-6.241c-1.457-.55-3.037-.689-4.567-.401s-2.952.991-4.109 2.032l-5.063 7.929c-.747 1.124-1.086 2.47-.96 3.814s.708 2.604 1.651 3.571c2.424 2.389 5.527 1.268 7.09 1.268 2.163 0 2.979-2.446 2.979-2.446s.532 12.753 0 14.373c-.555 1.619-4.61 5.414-4.61 5.414l-13.591-17.93c-4.669-6.329-8.752-13.069-12.199-20.138-.391-.86-.906-1.657-1.529-2.367-2.379-2.696-7.464-3.477-8.789 1.495a9.85 9.85 0 0 0 .215 4.802c5.663 16.741 12.889 29.392 19.47 42.576 3.908 7.826 2.458 7.736 4.406 11.27-.227.158-.113.453-.363.6-.951 3.806-1.619 7.623-2.582 11.428a52.11 52.11 0 0 0-4.338-13.795c.55-2.651.752-5.362.6-8.065-.17-2.731-1.387-5.291-3.398-7.147-1.126-.91-2.507-1.448-3.952-1.54a4.13 4.13 0 0 0-2.868.914c-.806.656-1.336 1.591-1.482 2.62-.227 2.067-.605 4.115-1.132 6.127-.868 2.635-1.913 5.208-3.126 7.702 0 5.052 3.126 4.225 5.402 24.545 1.767 15.856 22.155 26.288 33.254 37.716l11.825 37.219c13.842-5.599 27.104-12.537 39.597-20.716l-9.435-33.198z" class="B"/></mask><g mask="url(#A)"><use xlink:href="#H" class="D"/><use xlink:href="#H" class="D"/><use xlink:href="#H" class="B G"/><use xlink:href="#I" class="D"/><use xlink:href="#I" class="D"/><g class="G B"><use xlink:href="#I"/></g><use xlink:href="#J" class="D"/><use xlink:href="#K" class="D"/><g class="G B"><use xlink:href="#J"/><use xlink:href="#K"/></g><use xlink:href="#L" class="D"/><use xlink:href="#L" class="B G"/><path d="M351.474 413.546c.135-.246.256-.499.363-.759a.86.86 0 0 0-.28.333c-.064.132-.092.279-.083.426z" class="D"/><path d="M354.838 396.002c-.226-2.786.17-5.595.057-8.393s-.849-5.742-2.888-7.668c-2.922-2.752-10.93-1.348-8.246 3.885a3.4 3.4 0 0 0 4.157 1.552 3.03 3.03 0 0 0 1.416-4.089c1.574 2.493 2.351 5.407 2.228 8.353a14.51 14.51 0 0 1-2.919 8.138 13.16 13.16 0 0 1 3.194 15.008 1.65 1.65 0 0 1 1.869 0 5.66 5.66 0 0 1 1.438 2.559c.397.918 1.133 1.869 2.13 1.801 1.359-3.341.917-7.135 0-10.624s-2.152-6.886-2.436-10.522zm29.302-52.52a11.33 11.33 0 0 0-5.358-2.266l5.358 2.266z" class="D"/><path d="M397.459 378.922c-.43-1.926-1.325-3.715-1.857-5.663-1.235-4.429-.453-9.163-1.019-13.728a23.7 23.7 0 0 0-8.416-15.234l-2.027-.861a11.43 11.43 0 0 1 4.077 5.935c1.574 5.414 2.062 11.055 2.764 16.65a223.15 223.15 0 0 0 4.7 25.688c1.348-4.168 2.719-8.54 1.778-12.787zm-21.565-20.139a7.12 7.12 0 0 0 2.39-4.655c.157-1.592.116-3.198-.124-4.78a1.59 1.59 0 0 1-.693.875c-.329.198-.719.269-1.097.201a4.02 4.02 0 0 1-2.141-1.948l-.407 1.416-.17-.77-.544.691c.804 2.265 1.586 4.904.34 6.977a8.2 8.2 0 0 1-2.549 2.356 4.31 4.31 0 0 0 2.556.62 4.3 4.3 0 0 0 2.439-.983z" class="D"/><path d="M378.091 348.782l.068.568a.91.91 0 0 0-.068-.568z" class="D"/><use xlink:href="#M" class="D"/><path d="M418.311 390.724c2.026-4.998 3.223-10.293 3.545-15.676.217-4.975-1.018-9.907-3.556-14.192-.657-1.053-3.398-5.402-4.859-5.051-2.662.634.826 5.255 1.438 6.41 2.265 4.361 4.655 8.971 4.531 13.898-.114 3.794-1.711 7.362-2.991 10.93a23.59 23.59 0 0 0-1.597 7.77c-.192.294-.373.6-.589.872a11.63 11.63 0 0 1-7.112 4.7l3.284-10.194c.397-1.212.533-2.865-.17-3.703a3.17 3.17 0 0 0 .351-1.473c-.155-.921-.482-1.804-.962-2.605-1.518-3.262-1.008-7.056-.635-10.635.453-4.417.623-8.959-.668-13.207s-4.293-8.189-8.506-9.593l1.133 1.132-1.427-1.042 2.65 5.528-.974 1.393c1.461-.77 3.33.34 3.998 1.846.524 1.573.637 3.253.329 4.882a97.62 97.62 0 0 0 1.336 27.477c-.058 2.114-.617 4.183-1.631 6.037a5.94 5.94 0 0 1-2.38 2.368c-1.004.545-2.144.788-3.283.702a5.96 5.96 0 0 0-2.186-6.037c-2.265 3.171-.929 8.098-.589 11.711a127.39 127.39 0 0 0 2.639 16.265 52.57 52.57 0 0 1 2.888-13.592l3.693 13.422c-.06-1.258.18-2.512.702-3.658a2.73 2.73 0 0 1 3.126-1.45c.451.245.848.578 1.169.978s.559.861.7 1.355c3.206 7.752 3.996 16.291 2.265 24.499 1.518.849 3.534-.17 4.383-1.688.701-1.602.978-3.357.804-5.097l-.849-45.282zm-38.396 4.791c-.725 1.268 2.265 6.32 2.73 7.52l7.486 18.292a86.57 86.57 0 0 0-5.799-23.423c-.509-1.257-2.979-4.915-4.417-2.389z" class="D"/><use xlink:href="#N" class="D"/><g class="G B"><path d="M351.474 413.546a7.76 7.76 0 0 0 .362-.759.87.87 0 0 0-.28.333c-.063.132-.092.279-.082.426z"/><path d="M354.838 396.002c-.227-2.786.17-5.595.057-8.393s-.85-5.742-2.889-7.668c-2.922-2.752-10.93-1.348-8.245 3.885a3.4 3.4 0 0 0 4.157 1.552c.364-.172.691-.415.96-.715a3 3 0 0 0 .608-1.031 3.01 3.01 0 0 0-.153-2.343 14.5 14.5 0 0 1-.691 16.491c2.035 1.854 3.438 4.298 4.011 6.99a13.16 13.16 0 0 1-.817 8.018c.276-.189.601-.29.935-.29a1.65 1.65 0 0 1 .934.29 5.66 5.66 0 0 1 1.439 2.559c.396.918 1.132 1.869 2.129 1.801 1.359-3.341.918-7.135 0-10.624s-2.152-6.886-2.435-10.522zm29.301-52.52c-1.558-1.209-3.405-1.99-5.357-2.266l5.357 2.266z"/><path d="M397.459 378.922c-.43-1.926-1.325-3.715-1.858-5.663-1.234-4.429-.453-9.163-1.019-13.728-.771-5.962-3.779-11.407-8.415-15.234l-2.028-.861c1.963 1.488 3.394 3.569 4.078 5.935 1.574 5.414 2.061 11.055 2.763 16.65 1.064 8.647 2.634 17.224 4.701 25.688 1.348-4.168 2.718-8.54 1.778-12.787zm-21.565-20.139c1.358-1.192 2.212-2.856 2.39-4.655.157-1.592.115-3.198-.125-4.78a1.58 1.58 0 0 1-1.789 1.076 4.02 4.02 0 0 1-2.141-1.948l-.408 1.416-.17-.77-.543.691c.804 2.265 1.585 4.904.339 6.977-.671.958-1.54 1.762-2.548 2.356.766.468 1.66.685 2.556.62s1.748-.409 2.439-.983z"/><path d="M378.091 348.782l.068.568a.91.91 0 0 0-.068-.568z"/><use xlink:href="#M"/><path d="M418.31 390.724c2.026-4.998 3.224-10.293 3.546-15.676.217-4.975-1.019-9.907-3.557-14.192-.657-1.053-3.398-5.402-4.859-5.051-2.662.634.827 5.255 1.439 6.41 2.265 4.361 4.655 8.971 4.53 13.898-.113 3.794-1.71 7.362-2.99 10.93a23.54 23.54 0 0 0-1.597 7.77c-.193.294-.374.6-.589.872-1.691 2.41-4.233 4.09-7.113 4.7l3.285-10.194c.396-1.212.532-2.865-.17-3.703.234-.456.354-.961.351-1.473-.156-.921-.482-1.804-.963-2.605-1.518-3.262-1.008-7.056-.634-10.635.453-4.417.623-8.959-.668-13.207s-4.293-8.189-8.506-9.593l1.132 1.132-1.427-1.042 2.65 5.528-.974 1.393c1.461-.77 3.33.34 3.999 1.846.524 1.573.637 3.253.328 4.882a97.58 97.58 0 0 0 1.337 27.477c-.058 2.114-.617 4.183-1.631 6.037-.55 1.002-1.376 1.824-2.38 2.368a5.95 5.95 0 0 1-3.284.702c.251-1.11.178-2.269-.21-3.338a5.95 5.95 0 0 0-1.976-2.699c-2.265 3.171-.928 8.098-.589 11.711.528 5.473 1.41 10.906 2.639 16.265a52.61 52.61 0 0 1 2.889-13.592l3.692 13.422c-.06-1.258.181-2.512.702-3.658.275-.565.736-1.017 1.306-1.281s1.212-.324 1.82-.169a3.87 3.87 0 0 1 1.17.978c.321.401.558.861.699 1.355a41.62 41.62 0 0 1 2.265 24.499c1.518.849 3.534-.17 4.384-1.688.7-1.602.977-3.357.804-5.097l-.85-45.282zm-38.396 4.791c-.724 1.268 2.266 6.32 2.73 7.52l7.487 18.292a86.61 86.61 0 0 0-5.799-23.423c-.51-1.257-2.979-4.915-4.418-2.389z"/><use xlink:href="#N"/></g></g><path d="M342.176 391.812a14.45 14.45 0 0 0-3.319 3.726l3.319-3.726z" class="B"/><g class="C H"><path d="M389.226 494.881l-11.825-37.219c-11.1-11.428-31.487-21.882-33.254-37.716-2.266-20.32-5.403-19.493-5.403-24.544 1.214-2.495 2.258-5.068 3.126-7.702.527-2.012.906-4.06 1.133-6.128.146-1.029.675-1.964 1.482-2.619a4.12 4.12 0 0 1 2.867-.915 6.99 6.99 0 0 1 3.953 1.541c2.011 1.856 3.228 4.416 3.398 7.147.151 2.702-.051 5.413-.6 8.064 2.08 4.374 3.54 9.018 4.338 13.795.962-3.805 1.631-7.622 2.582-11.428.249-.147.136-.442.362-.6-1.948-3.534-.498-3.398-4.405-11.27-6.581-13.184-13.796-25.835-19.47-42.576a9.85 9.85 0 0 1-.216-4.802c1.326-4.972 6.411-4.191 8.79-1.495.623.71 1.138 1.507 1.529 2.367 3.447 7.069 7.53 13.809 12.198 20.138l13.592 17.93s4.055-3.794 4.61-5.414c.532-1.62 0-14.373 0-14.373s-.816 2.446-2.979 2.446c-1.563 0-4.667 1.133-7.091-1.268a5.9 5.9 0 0 1-1.65-3.57c-.126-1.344.213-2.691.959-3.815l5.063-7.928a8.48 8.48 0 0 1 4.109-2.033c1.531-.288 3.111-.149 4.567.402a41.43 41.43 0 0 1 10.307 6.24 20.26 20.26 0 0 1 8.676 1.133c4.078 1.642 8.574 6.796 8.574 6.796s4.61 0 6.796 1.325c.544.34 8.291 10.805 6.32 19.481-1.132 5.177-1.597 12.607-2.14 14.623l-.136 50.073 9.355 33.187m-36.244-124.816c1.994 7.387 3.029 15.001 3.08 22.652-.064 1.282.073 2.567.408 3.806a3.78 3.78 0 0 0 .962 1.632c.453.454 1.015.785 1.632.962m9.899-21.611c3.398 7.09-.079 22.936.17 24.046.106.564.331 1.098.662 1.567s.757.862 1.253 1.151"/><path d="M379.281 348.375l-1.133 7.113c-1.32-1.133-2.401-2.518-3.179-4.074s-1.237-3.251-1.351-4.987m-16.039 62.374l-2.457 1.03m3.081.929c-.391 1.891-.391 3.841 0 5.731m14.316-26.888l2.707 4.881m2.548-22.754l2.696-3.806m35.169 21.679l-.816 2.978m-5.776-11.145l2.39-7.611m5.584-5.901c.717-.373 1.552-.447 2.324-.207a3.07 3.07 0 0 1 1.798 1.487m-20.399-14.271a5.85 5.85 0 0 1 5.448 1.246m-55.895 6.308a8.28 8.28 0 0 1 3.193-2.166 8.27 8.27 0 0 1 3.829-.484m-17.25-18.711a7.61 7.61 0 0 1 5.664-1.337m-3.557 52.023a14.45 14.45 0 0 0-3.319 3.726m4.406-8.869c1.79-1.28 4.644 1.574 6.286.113.291-.328.495-.724.592-1.152a2.6 2.6 0 0 0-.037-1.294c-.242-.843-.353-1.717-.328-2.594m43.991-2.933a20.51 20.51 0 0 1 1.246 14.52m11.916-7.532c.351 2.145-.049 4.345-1.133 6.229"/></g><path d="M297.414 402.798a6.86 6.86 0 0 1-.102 2.356c-.736 3.398-2.866 13.342-3.647 18.779-.929 6.637-11.655 27.183-11.655 27.183l-14.905 18.666c-2.47 3.137-6.377 15.857-9.696 27.931-4.19-1.269-8.343-2.636-12.459-4.1-3.398-1.212-6.796-2.492-10.193-3.817-6.062-2.519-11.97-5.393-17.692-8.608 1.88-6.796 3.137-12.086 3.115-12.391-.057-.714 4.032-8.586 4.032-8.586l-3.568-46.981-2.107-7.147a53.64 53.64 0 0 1-2.072-11.327c-.443-5.828.05-11.69 1.461-17.363l6.15-9.129 2.877-.215 8.902-12.459s4.814-1.45 6.049 2.174-4.01 10.398-4.01 10.398l-1.801 11.179 4.281 10.466 2.266.815s.747-18.428.238-22.109l4.643-16.751c1.393-2.744 2.626-5.565 3.693-8.45.861-2.82 5.923-5.663 8.834-.668.494.906.79 1.907.868 2.936a7.26 7.26 0 0 1-.415 3.033l-2.174 6.173s-1.133 14.248-1.416 14.645 2.095 21.214 2.095 21.214l1.858.827.657-19.878 3.862-18.677s-.317-8.982 6.014-7.929a4.89 4.89 0 0 1 2.772.737c.83.516 1.486 1.27 1.883 2.163 1.688 3.228.08 24.725.08 24.725l1.563 22.223 2.503 17.136 2.945-11.745s.17-16.831 10.794-18.269c0 0 3.16-.567 3.805 1.63s-1.574 6.683-1.257 10.987c.283 3.058.714 6.467.929 8.223z" fill="#000" class="I"/><path d="M294.186 381.991c-.487-2.265-3.67-1.914-3.67-1.914-10.703.634-12.142 17.409-12.142 17.409l-3.839 11.485-1.133-17.284.113-22.279s3.24-21.316 1.801-24.658c-.328-.921-.926-1.723-1.716-2.3a4.88 4.88 0 0 0-2.712-.939c-6.23-1.563-6.592 7.419-6.592 7.419l-5.256 18.326-2.163 19.764-1.79-.951s-.849-20.977-.487-21.328 2.515-14.486 2.515-14.486l2.639-5.992a7.28 7.28 0 0 0 .644-2.996c0-1.033-.219-2.054-.644-2.995-2.526-5.143-7.781-2.741-8.869 0-1.276 2.795-2.713 5.514-4.304 8.143l-6.003 16.412c.227 3.715-1.903 22.041-1.903 22.041l-2.163-.985-3.477-10.76 2.65-11.021s5.743-6.343 4.78-10.058-5.867-2.627-5.867-2.627l-9.865 11.711h-2.888l-6.796 8.619c-3.062 9.239-3.601 19.128-1.563 28.645l1.563 7.283v47.072s-4.667 7.543-4.667 8.257c0 .328-1.925 6.275-4.61 13.693 11.746 6.909 21.86 12.255 29.03 15.076a340.13 340.13 0 0 0 10.194 3.817c4.304-12.086 9.332-25.009 12.107-28.033l16.288-17.488s12.243-19.674 13.682-26.209c1.133-5.369 4.055-15.121 5.051-18.462.233-.758.325-1.553.272-2.345-.079-1.766-.249-5.198-.249-8.222-.045-4.293 2.515-8.608 2.039-10.84z" class="B"/><mask id="B" maskUnits="userSpaceOnUse" x="205" y="335" width="90" height="159"><path d="M294.186 381.991c-.487-2.265-3.67-1.914-3.67-1.914-10.703.634-12.142 17.409-12.142 17.409l-3.839 11.485-1.133-17.284.113-22.279s3.24-21.316 1.801-24.658c-.328-.921-.926-1.723-1.716-2.3a4.88 4.88 0 0 0-2.712-.939c-6.23-1.563-6.592 7.419-6.592 7.419l-5.256 18.326-2.163 19.764-1.79-.951s-.849-20.977-.487-21.328 2.515-14.486 2.515-14.486l2.639-5.992a7.28 7.28 0 0 0 .644-2.996c0-1.033-.219-2.054-.644-2.995-2.526-5.143-7.781-2.741-8.869 0-1.276 2.795-2.713 5.514-4.304 8.143l-6.003 16.412c.227 3.715-1.903 22.041-1.903 22.041l-2.163-.985-3.477-10.76 2.65-11.021s5.743-6.343 4.78-10.058-5.867-2.627-5.867-2.627l-9.865 11.711h-2.888l-6.796 8.619c-3.062 9.239-3.601 19.128-1.563 28.645l1.563 7.283v47.072s-4.667 7.543-4.667 8.257c0 .328-1.925 6.275-4.61 13.693 11.746 6.909 21.86 12.255 29.03 15.076a340.13 340.13 0 0 0 10.194 3.817c4.304-12.086 9.332-25.009 12.107-28.033l16.288-17.488s12.243-19.674 13.682-26.209c1.133-5.369 4.055-15.121 5.051-18.462.233-.758.325-1.553.272-2.345-.079-1.766-.249-5.198-.249-8.222-.045-4.293 2.515-8.608 2.039-10.84z" class="B"/></mask><g mask="url(#B)"><use xlink:href="#O" class="D"/><use xlink:href="#P" class="D"/><path d="M244.383 393.125a10.02 10.02 0 0 0-2.265 4.735c.462-.522 1.029-.939 1.665-1.224a1.68 1.68 0 0 1 1.008-.082 1.67 1.67 0 0 1 .872.513c.249.34.34.838.725 1.031.206.085.436.09.645.015a.9.9 0 0 0 .488-.423 2.59 2.59 0 0 0 .283-1.246 6.87 6.87 0 0 0-.136-2.458c-.1-.402-.303-.771-.589-1.071s-.645-.52-1.042-.639c-.199-.044-.406-.047-.606-.007s-.39.121-.557.238a1.47 1.47 0 0 0-.414.443 1.46 1.46 0 0 0-.201.572l.124-.397zm15.733 3.896c-1.238 1.668-2.054 3.612-2.378 5.664.826-.201 1.586-.611 2.208-1.19a4.37 4.37 0 0 1 2.266-1.132c.206-.026.415-.01.615.046a1.58 1.58 0 0 1 .55.279 1.6 1.6 0 0 1 .401.469c.101.182.165.381.189.587a10.66 10.66 0 0 1 .091-2.876 6.06 6.06 0 0 0-.204-2.855c-.161-.456-.456-.854-.845-1.14a2.42 2.42 0 0 0-1.341-.468 1.53 1.53 0 0 0-.672.201c-.205.119-.379.284-.509.482s-.212.424-.239.66.002.473.084.696l-.216.577z" class="D"/><use xlink:href="#Q" class="D"/><use xlink:href="#O" class="B G"/><g class="G B"><use xlink:href="#P"/><path d="M244.384 393.125c-1.163 1.349-1.945 2.983-2.265 4.735.461-.522 1.029-.939 1.665-1.224a1.68 1.68 0 0 1 1.008-.082c.336.077.641.256.872.513.249.34.34.838.725 1.031.205.085.435.09.645.015a.9.9 0 0 0 .487-.423 2.57 2.57 0 0 0 .283-1.246c.103-.821.057-1.653-.135-2.458a2.4 2.4 0 0 0-.59-1.071 2.39 2.39 0 0 0-1.041-.639c-.2-.044-.406-.047-.606-.007a1.48 1.48 0 0 0-.558.238c-.167.118-.308.268-.414.443a1.48 1.48 0 0 0-.201.572l.125-.397zm15.733 3.896c-1.239 1.668-2.055 3.612-2.379 5.664.826-.201 1.587-.611 2.209-1.19a4.37 4.37 0 0 1 2.265-1.132c.206-.026.415-.01.615.046s.387.151.551.279a1.58 1.58 0 0 1 .4.469 1.59 1.59 0 0 1 .19.587 10.66 10.66 0 0 1 .09-2.876 6.06 6.06 0 0 0-.204-2.855c-.161-.456-.455-.854-.845-1.14a2.42 2.42 0 0 0-1.34-.468 1.53 1.53 0 0 0-.672.201c-.205.119-.38.284-.51.482s-.211.424-.238.66a1.51 1.51 0 0 0 .083.696l-.215.577z"/><use xlink:href="#Q"/></g></g><path d="M205.739 474.72c2.684-7.419 4.61-13.365 4.61-13.694 0-.713 4.666-8.256 4.666-8.256v-47.073l-1.563-7.283c-2.038-9.517-1.498-19.405 1.563-28.644l6.796-8.619h2.888l9.809-11.734s4.915-1.133 5.867 2.627-4.78 10.058-4.78 10.058l-2.65 11.021 3.477 10.76 2.163.985s2.129-18.326 1.903-22.041l6.003-16.412a79.88 79.88 0 0 0 4.304-8.143c1.133-2.741 6.343-5.143 8.868 0 .425.941.645 1.962.645 2.995a7.28 7.28 0 0 1-.645 2.996l-2.639 5.992s-2.152 14.124-2.514 14.486.487 21.328.487 21.328l1.79.951 2.163-19.764 5.255-18.326s.363-8.982 6.592-7.419a4.88 4.88 0 0 1 2.713.939c.789.577 1.387 1.379 1.716 2.3 1.438 3.342-1.801 24.658-1.801 24.658l-.079 22.301 1.132 17.284 3.84-11.485s1.438-16.774 12.142-17.408c0 0 3.182-.329 3.67 1.914s-2.085 6.547-2.085 10.862c0 3.024.17 6.456.25 8.223.052.791-.04 1.586-.272 2.344-.997 3.398-3.874 13.094-5.052 18.462-1.438 6.536-13.682 26.209-13.682 26.209l-16.287 17.488c-2.775 3.024-7.804 15.948-12.108 28.033" class="C H"/><path d="M238.46 386.635a6.79 6.79 0 0 1-1.608 6.456" class="B"/><path d="M238.46 386.635a6.79 6.79 0 0 1-1.608 6.456" class="C H"/><use xlink:href="#R" class="B"/><g class="C H"><use xlink:href="#R"/><path d="M265.315 349.938a11.12 11.12 0 0 1 5.664 0l.056-1.586m-20.591-5.482c.547.372 1.185.588 1.845.623a3.63 3.63 0 0 0 1.901-.422c.583-.312 1.07-.777 1.408-1.345s.514-1.219.509-1.88m35.27 42.338a6.94 6.94 0 0 0-3.891 2.648 6.95 6.95 0 0 0-1.308 4.521l2.775.839"/></g><path d="M254.929 383.566c.125 1.903-.113 6.445 0 8.347z" class="B"/><path d="M254.929 383.566c.125 1.903-.113 6.445 0 8.347" class="C H"/><path d="M257.013 386.205l-.691 9.332v-1.189" class="B"/><path d="M257.013 386.205l-.691 9.332v-1.189" class="C H"/><path d="M274.297 412.448a15.56 15.56 0 0 1-1.065 10.262z" class="B"/><g class="C"><path d="M274.297 412.448a15.56 15.56 0 0 1-1.065 10.262m-27.648-26.584c-2.469 2.707-2.106 9.209-.362 12.777m18.609-8.302c.017 3.039-1.056 5.985-3.024 8.302m-33.209-11.53c-.411 2.759.188 5.575 1.688 7.928m-12.199.578a9.66 9.66 0 0 0 1.745 6.048m12.663-58.263a3.59 3.59 0 0 1 3.964.635l1.393-1.847m6.264 9.526a4.71 4.71 0 0 1 5.991 1.008m12.153 4.655a7.58 7.58 0 0 1 3.238-.65c1.114.023 2.209.292 3.207.786m-46.823 9.367a6.13 6.13 0 0 1 2.535-2.344c1.052-.522 2.232-.731 3.4-.601m-13.535 13.773a3.22 3.22 0 0 1 .811-1.98c.489-.548 1.15-.913 1.874-1.033" class="H"/><path d="M505.128 306.581c25.928 0 46.948-21.02 46.948-46.948s-21.02-46.948-46.948-46.948-46.948 21.019-46.948 46.948 21.019 46.948 46.948 46.948z" class="E"/></g><path d="M558.271 260.868c-10.013 16.411-13.592 14.192-47.707 30.581-17.34 8.313-34.092-18.383-22.754-45.781.555-1.337 5.448-8.099 5.448-8.099a25.01 25.01 0 0 1 6.628-12.055c3.293-3.319 7.451-5.649 12.002-6.725s9.311-.854 13.742.64 8.354 4.2 11.325 7.811c3.256-2.792 7.13-4.768 11.302-5.765a26.99 26.99 0 0 1 12.687.034 136.55 136.55 0 0 1 1.133 3.397l.407 1.28c.431 1.326.838 2.651 1.212 3.987.755 2.537 1.45 5.09 2.084 7.657-3.667-1.185-7.645-.946-11.145.668-2.503 1.223-4.598 3.239-7.203 4.236s-6.207.431-7.204-2.175c1.257 5.233 6.796 3.67 12.029 4.701 8.155 1.574 10.227 8.699 6.014 15.608z" fill="#000" class="I"/><g class="B"><g class="C E"><path d="M542.856 252.769s8.404-1.132 12.391-.532a7.64 7.64 0 0 1 4.881 2.764c.343.431.544.957.578 1.506l.453 6.569c.026.37-.025.741-.15 1.09s-.321.668-.575.938c-1.642 1.71-6.592 4.825-21.248 5.946-20.648 1.574 3.67-18.281 3.67-18.281z"/><path d="M536.706 235.791a31.37 31.37 0 0 1 6.886 20.003c0 7.826-9.061 34.556-32.269 37.818-24.567 3.398-44.32-17.578-40.106-42.881 2.922-17.533 45.769-39.45 65.489-14.94z"/></g><path d="M506.691 287.734c19.685 0 35.644-15.107 35.644-33.741s-15.959-33.742-35.644-33.742-35.644 15.107-35.644 33.742 15.958 33.741 35.644 33.741z"/></g><path d="M506.623 283.452c16.164 0 29.267-12.398 29.267-27.692s-13.103-27.693-29.267-27.693-29.268 12.398-29.268 27.693 13.104 27.692 29.268 27.692z" class="F"/><path d="M542.335 253.993c0-18.632-15.959-33.73-35.644-33.73s-35.644 15.143-35.644 33.73m61.898 22.833c6.006-6.084 9.382-14.284 9.401-22.834m-60.618 24.08a36.56 36.56 0 0 0 24.917 9.662c5.739.013 11.402-1.301 16.548-3.84m-46.608-11.836l1.473 2.039m-7.011-20.105c-.002 4.998 1.162 9.927 3.398 14.396" class="C E J"/><path d="M558.996 263.235s-6.354-4.451-16.672-.419z" class="B"/><path d="M558.996 263.235s-6.354-4.451-16.672-.419" class="C E J"/><path d="M553.537 266.316c-4.312 1.143-8.73 1.838-13.184 2.072z" class="B"/><path d="M553.537 266.316c-4.312 1.143-8.73 1.838-13.184 2.072" class="C E J"/><path d="M556.832 264.911c-.485.351-1.019.63-1.585.827z" class="B"/><path d="M556.832 264.911c-.485.351-1.019.63-1.585.827" class="C E J"/><path d="M562.484 226.152l-.407-1.28c-2.164-6.705-4.95-14.067-8.337-21.837l-1.936-4.372-.759.068c-3.251.329-6.672.736-9.345 2.583s-4.27 5.742-2.537 8.517 6.151 4.281 5.448 7.419c-7.26 4.089-16.117 3.613-24.193 5.663-4.873 1.243-9.464 3.407-13.523 6.377-1.282.955-2.507 1.984-3.67 3.081a14.49 14.49 0 0 0-1.495 1.608c-.696.815-1.141 1.814-1.28 2.877-.283 3.024 2.469 5.085 5.403 6.399.123.048.228.132.303.242a.66.66 0 0 1 0 .74.66.66 0 0 1-.303.241c-1.935.689-3.727 1.726-5.29 3.058-.213.193-.358.45-.411.732s-.013.575.116.832a1.31 1.31 0 0 0 .595.592c.258.126.551.165.833.11h.453c1.148-.095 2.304.044 3.398.408a4.11 4.11 0 0 1 3.069 3.239c.181 2.265-2.435 4.372-5.833 4.632-.827.08-.192 1.065 1.02 1.269a18.13 18.13 0 0 0 7.248-.589c2.843-.68 5.879-1.665 7.487-4.1.663-1.076.905-2.359.68-3.602-.064-.808-.395-1.571-.94-2.17s-1.275-.999-2.073-1.137c5.255-.622 10.451-1.664 15.54-3.115l1.597-.487c1.554-.398 3.034-1.044 4.383-1.914a6.11 6.11 0 0 0 1.914-2.107c1.133-2.265-.487-5.878-3.001-5.403 7.305-2.865 15.03-4.53 22.414-7.181l3.432-1.393z" class="B"/><path d="M506.488 128.18a143.89 143.89 0 0 1-22.54 15.856c-41.239 24.397-87.824 39.008-135.213 46.133s-95.64 6.909-143.392 2.978c-9.378-.77-18.915-1.721-27.534-5.504-7.306-3.217-13.932-8.812-16.99-16.05 10.341-11.779 19.957-23.694 30.661-34.941 2.552-2.681 5.165-5.324 7.838-7.929 2.265-2.163 4.53-4.292 6.954-6.377 2.741-2.344 5.493-4.734 8.404-6.999 4.021-3.126 8.257-6.128 12.787-8.993l3.319-2.084c112.935-70.224 196.059-47.276 251.513 0 4.206 3.609 8.253 7.301 12.142 11.077 2.355 2.265 4.632 4.632 6.795 7.011.25.249.476.51.714.781l4.542 5.041z" fill="#000" class="I"/><g class="C E"><path d="M510.95 116.921l-379.965 1.733 5.743-8.619c1.362-2.038 3.205-3.708 5.366-4.864a14.92 14.92 0 0 1 7.025-1.762h343.822c2.226 0 4.424.5 6.431 1.463a14.88 14.88 0 0 1 5.167 4.098l6.411 7.951z" class="B"/><path d="M327.588 173.87H306.77c-21.362 0-38.679 17.317-38.679 38.679v20.818c0 21.362 17.317 38.68 38.679 38.68h20.818c21.362 0 38.68-17.318 38.68-38.68v-20.818c0-21.362-17.318-38.679-38.68-38.679z" fill="#757575"/><path d="M285.93 231.261v13.954c0 2.103.835 4.119 2.322 5.606s3.503 2.322 5.606 2.322h47.877c2.093 0 4.101-.827 5.586-2.302a7.93 7.93 0 0 0 2.342-5.57c.057-6.286.396-14.01.396-14.01H285.93z" fill="#999"/><path d="M461.159 235.916H181.161c-1.44.003-2.848-.427-4.04-1.235s-2.113-1.957-2.643-3.296l-43.187-110.873c-.261-.669-.356-1.391-.275-2.104s.333-1.396.737-1.99.946-1.079 1.58-1.416a4.41 4.41 0 0 1 2.058-.516h371.504c.72-.001 1.429.173 2.066.508a4.41 4.41 0 0 1 1.588 1.415c.407.594.662 1.278.744 1.993a4.43 4.43 0 0 1-.275 2.11l-43.187 110.839a7.16 7.16 0 0 1-2.632 3.312c-1.19.815-2.598 1.251-4.04 1.253z" fill="#bfbfbf"/></g><path d="M463.232 226.266H178.409L139.22 121.508h363.02l-39.008 104.758zm-113.501 9.503h-63.495v4.349h63.495v-4.349z" class="F"/><path d="M421.63 221.814H220.497c-1.132 0-2.152-.498-2.356-1.132l-28.61-90.939c-.317-1.02.578-1.847 2.005-1.847h259.056c1.427 0 2.265.827 1.993 1.847l-28.599 90.939c-.204.577-1.257 1.132-2.356 1.132z" class="D"/><path d="M420.883 219.696H221.245l-24.318-79.862h248.274l-24.318 79.862z" class="F"/><g class="B"><path d="M249.901 159.667h-37.796c-.94 0-1.552.498-1.371 1.132a2.05 2.05 0 0 0 1.994 1.133h37.581c.928 0 1.585-.498 1.483-1.133s-.962-1.132-1.891-1.132zm1.257 6.897h-32.145c-.917 0-1.529.487-1.359 1.133.182.35.462.639.807.83s.737.277 1.13.246h31.963c.917 0 1.563-.487 1.461-1.076s-.963-1.133-1.857-1.133z"/><path d="M252.381 173.224h-36.47c-.907 0-1.495.476-1.337 1.042a1.99 1.99 0 0 0 .807.809c.342.185.731.266 1.119.233h36.244c.895 0 1.54-.464 1.438-1.042s-.894-1.042-1.801-1.042z" class="G"/><path d="M253.559 179.658h-21.418c-.884 0-1.495.453-1.359 1.008s.962 1.008 1.846 1.008h21.305c.883 0 1.517-.453 1.415-1.008s-.906-1.008-1.789-1.008zm1.144 6.207h-35.248c-.861 0-1.45.441-1.291.985s.974.963 1.846.963h35.044c.872 0 1.495-.431 1.404-.963s-.883-.985-1.755-.985zm1.099 6.014H227.35c-.861 0-1.438.419-1.302.94s.94.94 1.789.94h28.316c.85 0 1.461-.419 1.371-.94s-.861-.94-1.722-.94zm1.064 5.81h-27.987c-.849 0-1.416.408-1.28.906s.918.918 1.756.918h27.851c.838 0 1.439-.408 1.348-.918s-.838-.906-1.688-.906zm1.031 5.618h-30.581c-.827 0-1.393.397-1.257.884s.906.883 1.733.883h30.388c.827 0 1.427-.396 1.337-.883s-.782-.884-1.62-.884z"/><path d="M258.905 208.755h-19.73c-.816 0-1.382.385-1.269.861s.872.849 1.676.849h19.629c.815 0 1.404-.385 1.325-.849s-.815-.861-1.631-.861zm-10.318-56.246h-28.169c-.951 0-1.585.521-1.415 1.132a2.04 2.04 0 0 0 2.004 1.133h27.999c.951 0 1.62-.51 1.506-1.133-.157-.37-.429-.679-.776-.883a1.88 1.88 0 0 0-1.149-.249z" class="G"/><path d="M247.216 145.09h-39.212c-.962 0-1.597.543-1.404 1.212a2.17 2.17 0 0 0 2.084 1.2h38.974c.963 0 1.654-.543 1.529-1.2a1.91 1.91 0 0 0-1.971-1.212zm12.652 68.943h-32.495c-.804 0-1.348.374-1.223.827s.883.827 1.687.827h32.337c.793 0 1.382-.363 1.302-.827s-.804-.827-1.608-.827z"/><path d="M263.175 162.181h7.329l-.363-2.797h-7.385l.419 2.797zm1.019 6.818h7.204l-.351-2.707h-7.26l.407 2.707zm.986 6.57h7.079l-.34-2.605h-7.124l.385 2.605zm.951 6.354h6.966l-.34-2.514h-7l.374 2.514zm.929 6.139h6.841l-.328-2.435h-6.875l.362 2.435zm.884 5.935h6.728l-.306-2.356h-6.773l.351 2.356zm.871 5.742h6.615l-.295-2.276h-6.659l.339 2.276zm.828 5.55h6.513l-.284-2.197h-6.558l.329 2.197zm.815 5.392h6.411l-.284-2.141h-6.456l.329 2.141zm-8.347-55.556h7.464l-.374-2.9h-7.521l.431 2.9zm-1.099-7.328h7.6l-.385-3.013h-7.668l.453 3.013zm10.227 68.105h6.309l-.272-2.073h-6.354l.317 2.073z" class="G"/><path d="M309.874 204.191c0-.487.634-.884 1.461-.884h108.529c.826 0 1.381.397 1.246.884a1.84 1.84 0 0 1-1.745.883H311.391c-.827 0-1.506-.396-1.517-.883zm111.088-4.678h-60.097c-.839 0-1.473-.408-1.416-.918s.781-.906 1.631-.906h60.403c.838 0 1.405.408 1.257.906a1.84 1.84 0 0 1-.754.721c-.315.163-.671.231-1.024.197z"/><path d="M346.605 199.513h-18.666c-.838 0-1.518-.408-1.506-.918s.691-.906 1.54-.906h18.768c.838 0 1.495.408 1.45.906s-.748.918-1.586.918z" class="G"/><path d="M385.613 193.759h-84.767c-.849 0-1.563-.419-1.597-.94s.635-.94 1.495-.94h85.22c.849 0 1.472.419 1.37.94s-.861.94-1.721.94z"/><path d="M283.121 191.879h6.048c.849 0 1.586.419 1.631.94s-.612.94-1.461.94h-6.015c-.849 0-1.585-.419-1.642-.94s.589-.94 1.439-.94z" class="G"/><path d="M397.879 186.85c-.113.532-.906.963-1.778.963h-79.873c-.872 0-1.574-.431-1.586-.963s.691-.985 1.552-.985h80.315c.872 0 1.484.441 1.37.985zm-115.393-.985h22.653c.872 0 1.597.441 1.62.985s-.668.963-1.529.963h-22.54c-.86 0-1.608-.431-1.676-.963s.6-.985 1.472-.985zm-.668-6.207h87.145c.884 0 1.54.453 1.461 1.008s-.849 1.008-1.733 1.008h-86.658c-.872 0-1.642-.453-1.699-1.008s.601-1.008 1.484-1.008zm56.575-4.35c-.895 0-1.597-.464-1.574-1.042s.77-1.042 1.676-1.042h45.974c.906 0 1.552.476 1.45 1.042s-.907 1.042-1.801 1.042h-45.725zm-57.254-2.084h39.789c.906 0 1.631.476 1.631 1.042s-.736 1.042-1.631 1.042h-39.563c-.906 0-1.676-.464-1.744-1.042s.612-1.042 1.518-1.042zm148.658-4.496H320.26c-.907 0-1.654-.487-1.654-1.076s.736-1.133 1.654-1.133h110.148c.918 0 1.518.487 1.348 1.133a2.05 2.05 0 0 1-.82.828c-.348.191-.744.277-1.139.248zm1.948-6.819h-96.376c-.928 0-1.665-.498-1.642-1.132s.793-1.133 1.722-1.133h96.942c.929 0 1.54.498 1.359 1.133-.185.366-.474.668-.831.87s-.765.293-1.174.262z"/><path d="M433.784 154.83H413.6c-.951 0-1.597-.509-1.45-1.132.177-.37.463-.677.819-.88a2.01 2.01 0 0 1 1.175-.253h20.263c.951 0 1.574.521 1.381 1.133-.188.363-.478.663-.834.864s-.762.295-1.17.268z" class="G"/><path d="M399.476 154.83h-74.108c-.94 0-1.71-.509-1.699-1.132s.77-1.133 1.722-1.133h74.55c.951 0 1.608.521 1.483 1.133a1.94 1.94 0 0 1-.792.879c-.349.203-.753.291-1.156.253zm-114.577 53.925h68.445c.815 0 1.438.385 1.382.861s-.736.849-1.552.849h-68.06c-.815 0-1.518-.385-1.574-.849s.566-.861 1.359-.861zm.589 5.278h105.154c.793 0 1.37.374 1.268.827s-.815.827-1.619.827H285.669c-.804 0-1.495-.363-1.54-.827s.555-.827 1.359-.827zm110.308-66.531h-53.529c-.963 0-1.71-.543-1.676-1.2s.838-1.212 1.812-1.212h53.846c.974 0 1.653.544 1.529 1.212-.162.384-.44.706-.796.922a1.97 1.97 0 0 1-1.186.278z"/><path d="M327.09 147.502h-48.703c-.963 0-1.813-.543-1.881-1.2s.646-1.212 1.62-1.212h48.986c.963 0 1.745.544 1.733 1.212s-.792 1.2-1.755 1.2zm41.454 61.253c.816 0 1.427.385 1.359.861s-.781.849-1.597.849h-5.255c-.804 0-1.416-.385-1.359-.849s.759-.861 1.574-.861h5.278zm-64.911-4.564c0 .487-.623.883-1.45.883h-7.203c-.827 0-1.529-.396-1.563-.883s.6-.884 1.427-.884h7.237c.827 0 1.53.385 1.552.884zm86.929-23.525c-.102.555-.906 1.008-1.778 1.008h-8.427c-.883 0-1.517-.453-1.438-1.008s.883-1.008 1.767-1.008h8.472c.883 0 1.518.453 1.404 1.008zm26.289 5.198c.872 0 1.461.442 1.314.986-.177.321-.444.582-.768.754a1.88 1.88 0 0 1-1.056.209h-6.716c-.873 0-1.461-.431-1.337-.963.169-.327.431-.596.755-.772a1.84 1.84 0 0 1 1.057-.214h6.751zm-109.854-17.136c-.906 0-1.665-.487-1.699-1.076s.702-1.133 1.62-1.133h7.147c.917 0 1.665.487 1.676 1.133s-.725 1.076-1.631 1.076h-7.113z" class="G"/><path d="M209.658 133.854c.172.381.242.801.203 1.217a2.42 2.42 0 0 1-.425 1.159c-.24.342-.565.617-.943.796s-.796.257-1.213.226a5.03 5.03 0 0 1-2.749-1.019c-.795-.605-1.392-1.433-1.714-2.379a2.41 2.41 0 0 1-.202-1.211c.038-.414.182-.812.419-1.154a2.42 2.42 0 0 1 .934-.798 2.41 2.41 0 0 1 1.205-.235c1.002.052 1.965.404 2.765 1.009a5.01 5.01 0 0 1 1.72 2.389zm9.22.057a2.49 2.49 0 0 1 .152 1.232c-.054.418-.213.814-.461 1.153a2.49 2.49 0 0 1-.961.787c-.382.177-.802.255-1.222.226-.985-.056-1.929-.411-2.707-1.018a4.84 4.84 0 0 1-1.642-2.38 2.51 2.51 0 0 1-.146-1.225c.055-.414.212-.807.457-1.145a2.5 2.5 0 0 1 .949-.788c.376-.18.792-.262 1.209-.24.99.046 1.942.397 2.725 1.005a4.8 4.8 0 0 1 1.647 2.393zm9.322-.057a2.58 2.58 0 0 1 .104 1.245c-.067.417-.237.811-.494 1.147a2.56 2.56 0 0 1-.976.779c-.384.176-.806.254-1.228.227-.976-.046-1.912-.4-2.675-1.01s-1.313-1.446-1.573-2.388a2.58 2.58 0 0 1 .393-2.381 2.59 2.59 0 0 1 .969-.78c.382-.177.801-.258 1.221-.237a4.6 4.6 0 0 1 2.687 1.001c.766.611 1.316 1.451 1.572 2.397z"/><path opacity=".1" d="M139.22 121.508l30.524 81.584 36.822-81.584H139.22zm51.501 104.758l61.083-104.758h63.937l-89.897 104.758h-35.123zm152.576-105.279l-95.209 105.279h14.667l98.619-104.758-18.077-.521zM362.1 226.266l104.632-104.758h14.77L373.618 226.266H362.1z"/><path d="M220.225 271.729h-23.888c-1.501 0-2.942.597-4.004 1.659s-1.659 2.503-1.659 4.005v11.62c0 1.502.597 2.943 1.659 4.005s2.503 1.659 4.004 1.659h6.241l4.735 10.726 6.671-10.726h6.241c1.502 0 2.942-.597 4.004-1.659s1.659-2.503 1.659-4.005v-11.7c-.021-1.488-.627-2.908-1.687-3.953a5.66 5.66 0 0 0-3.976-1.631z" class="C E"/></g><path d="M204.957 278.378c0-.3.119-.588.331-.801a1.13 1.13 0 0 1 .801-.332c.287 0 .564.108.774.304s.339.463.359.75c0 .3-.12.588-.332.801a1.13 1.13 0 0 1-1.933-.722zm.249 2.367h1.823v7.77h-1.823v-7.77zm6.207-.407v.464h2.129v1.461h-2.072v6.252h-1.824v-6.252h-1.28v-1.461h1.28v-.487c-.029-.368.024-.738.155-1.084a2.51 2.51 0 0 1 .6-.915 2.53 2.53 0 0 1 .932-.574c.349-.12.721-.162 1.088-.123.58-.024 1.155.122 1.654.419l-.51 1.371a1.8 1.8 0 0 0-1.008-.317c-.748 0-1.144.419-1.144 1.246z" class="F"/><path d="M292.962 273.349h-23.921c-1.502 0-2.942.597-4.004 1.659s-1.659 2.502-1.659 4.004v11.632c0 1.502.597 2.943 1.659 4.005s2.502 1.659 4.004 1.659h6.252l4.723 10.726 6.672-10.726h6.252c1.502 0 2.942-.597 4.004-1.659s1.659-2.503 1.659-4.005v-11.677a5.66 5.66 0 0 0-5.641-5.618z" class="B C E"/><path d="M274.093 286.839h-6.105c.117.568.44 1.072.906 1.417s1.042.506 1.62.452c.391.014.78-.054 1.143-.2a2.78 2.78 0 0 0 .963-.65l.974 1.133c-.588.585-1.331.99-2.141 1.167a4.37 4.37 0 0 1-2.433-.165c-.779-.286-1.46-.787-1.964-1.446s-.809-1.448-.88-2.274a3.86 3.86 0 0 1 1.141-2.859 3.87 3.87 0 0 1 2.868-1.117c.53-.022 1.058.068 1.551.264a3.78 3.78 0 0 1 1.309.872c.371.379.658.832.842 1.329s.262 1.027.228 1.556l-.022.521zm-6.117-1.201h4.463c-.054-.536-.313-1.032-.721-1.383a2.11 2.11 0 0 0-1.476-.508 2.14 2.14 0 0 0-2.266 1.891zm7.861-6.286h1.812v10.794h-1.812v-10.794zm3.398 10.024l.691-1.382c.815.499 1.751.766 2.707.77 1.132 0 1.631-.317 1.631-.86 0-1.484-4.803-.091-4.803-3.183 0-1.473 1.326-2.435 3.398-2.435 1.01-.016 2.009.213 2.911.668l-.702 1.382c-.687-.399-1.471-.599-2.265-.578-1.133 0-1.631.363-1.631.872 0 1.575 4.802.17 4.802 3.217 0 1.45-1.336 2.401-3.522 2.401a6.11 6.11 0 0 1-3.217-.872zm15.596-2.537h-6.104c.117.568.439 1.072.905 1.417s1.043.506 1.62.452a2.8 2.8 0 0 0 1.144-.2c.363-.147.691-.368.963-.65l.974 1.133c-.588.585-1.331.99-2.141 1.167s-1.655.12-2.433-.165-1.46-.787-1.964-1.446-.809-1.448-.881-2.274c-.016-.53.077-1.057.274-1.548a3.88 3.88 0 0 1 2.186-2.168 3.87 3.87 0 0 1 1.55-.26c.53-.022 1.058.068 1.551.264a3.79 3.79 0 0 1 1.309.872c.371.379.657.832.842 1.329s.262 1.027.228 1.556l-.023.521zm-6.116-1.201h4.406c-.054-.536-.313-1.032-.721-1.383a2.11 2.11 0 0 0-1.476-.508 2.14 2.14 0 0 0-1.475.513c-.409.351-.671.843-.734 1.378z" class="F"/><path d="M363.481 272.67h-23.899a5.66 5.66 0 0 0-5.663 5.606v11.632c0 1.502.597 2.943 1.659 4.005s2.502 1.659 4.004 1.659h6.252l4.723 10.726 6.672-10.726h6.252c1.502 0 2.942-.597 4.004-1.659s1.659-2.503 1.659-4.005v-11.632a5.66 5.66 0 0 0-5.663-5.606z" class="B C E"/><path d="M345.063 281.278v.464h2.13v1.461h-2.084v6.252h-1.813v-6.252h-1.279v-1.461h1.279v-.487c-.028-.367.025-.736.154-1.081s.334-.656.598-.913.58-.454.928-.575.718-.164 1.084-.127a2.88 2.88 0 0 1 1.642.419l-.509 1.371c-.292-.205-.64-.316-.997-.317-.736 0-1.133.419-1.133 1.246zm2.606 4.292c-.032-.826.184-1.643.621-2.345a4.14 4.14 0 0 1 1.827-1.597 4.15 4.15 0 0 1 2.408-.3c.815.143 1.568.526 2.164 1.1a4.14 4.14 0 0 1 1.177 2.122c.172.809.098 1.651-.212 2.417a4.15 4.15 0 0 1-1.53 1.885c-.686.461-1.494.707-2.321.705a3.91 3.91 0 0 1-1.582-.24 3.92 3.92 0 0 1-1.355-.852c-.388-.374-.694-.824-.9-1.322a3.91 3.91 0 0 1-.297-1.573zm6.444 0a2.27 2.27 0 0 0-.461-1.209c-.268-.349-.633-.613-1.048-.759a2.27 2.27 0 0 0-2.408.595c-.3.323-.5.726-.574 1.16s-.021.881.154 1.285a2.27 2.27 0 0 0 .833.99c.368.243.798.372 1.239.374a2.27 2.27 0 0 0 .908-.188c.287-.124.544-.306.757-.535a2.26 2.26 0 0 0 .479-.794c.103-.294.145-.607.121-.919zm8.065-3.975v1.733a2.93 2.93 0 0 0-.419 0 2.12 2.12 0 0 0-.929.135c-.295.114-.562.292-.779.523a2.13 2.13 0 0 0-.558 1.743v3.772h-1.823v-7.77h1.733v1.132c.312-.435.732-.781 1.219-1.003a3.06 3.06 0 0 1 1.556-.265z" class="F"/><path d="M432.979 271.729H409.08c-1.502 0-2.942.597-4.004 1.659s-1.659 2.503-1.659 4.005v11.62c0 1.502.597 2.943 1.659 4.005s2.502 1.659 4.004 1.659h6.252l4.723 10.726 6.672-10.726h6.252c1.502 0 2.942-.597 4.004-1.659s1.659-2.503 1.659-4.005v-11.7c-.021-1.488-.627-2.908-1.687-3.953a5.66 5.66 0 0 0-3.976-1.631z" class="B C E"/><path d="M417.926 280.36h6.705v1.484h-6.705v-1.484zm0 3.523h6.705v1.461h-6.705v-1.461z" class="F"/><path d="M256.65 258.274h-23.853c-1.502 0-2.942.597-4.005 1.659a5.66 5.66 0 0 0-1.658 4.004v11.621c0 1.502.596 2.943 1.658 4.005s2.503 1.658 4.005 1.658h6.252l4.723 10.726 6.671-10.726h6.253a5.66 5.66 0 0 0 4.004-1.658c1.062-1.062 1.659-2.503 1.659-4.005v-11.666c-.006-.744-.159-1.479-.449-2.164a5.65 5.65 0 0 0-1.242-1.827 5.66 5.66 0 0 0-1.847-1.213c-.689-.279-1.427-.42-2.171-.414z" class="B C E"/><path d="M239.083 263.099h3.477v1.461h-1.665v10.703h1.665v1.461h-3.477v-13.625zm7.985 13.625v-1.461h1.643V264.56h-1.643v-1.461h3.455v13.591l-3.455.034z" class="F"/><path d="M327.689 257.085H303.79a5.66 5.66 0 0 0-4.004 1.658c-1.062 1.062-1.659 2.503-1.659 4.005v11.621c0 1.502.597 2.942 1.659 4.004s2.502 1.659 4.004 1.659h6.252l4.735 10.726 6.671-10.726h6.241c1.502 0 2.942-.597 4.004-1.659s1.659-2.502 1.659-4.004v-11.666c-.012-1.495-.614-2.923-1.675-3.976s-2.494-1.642-3.988-1.642z" class="B C E"/><path d="M310.881 268.683c.577.181.86.577.86 1.483v2.764c-.028.155-.018.314.029.465a.97.97 0 0 0 .241.398c.111.111.248.194.398.241s.31.057.465.029h.306v1.461h-.736a2.16 2.16 0 0 1-.978-.079c-.316-.101-.604-.273-.842-.503a2.16 2.16 0 0 1-.534-.823c-.113-.311-.152-.645-.116-.974v-2.99c0-.487-.249-.702-.656-.702h-.476v-1.484h.476c.407 0 .656-.215.656-.702v-2.99c-.036-.33.003-.663.116-.974a2.16 2.16 0 0 1 .534-.823c.238-.23.526-.402.842-.503a2.16 2.16 0 0 1 .978-.079h.736v1.461h-.306c-.155-.028-.314-.018-.465.029a.96.96 0 0 0-.398.241c-.111.112-.194.248-.241.398s-.057.31-.029.465v2.764c0 .838-.283 1.234-.86 1.427zm11.1-.748v1.45h-.499c-.396 0-.645.215-.645.702v2.99a2.17 2.17 0 0 1-.116.978 2.16 2.16 0 0 1-.537.824 2.15 2.15 0 0 1-.846.502c-.317.1-.653.126-.982.075h-.736v-1.427h.306a.99.99 0 0 0 .462-.034c.149-.048.284-.131.395-.242s.194-.246.241-.395a.99.99 0 0 0 .035-.462v-2.763c0-.907.26-1.303.838-1.484-.578-.193-.838-.589-.838-1.495v-2.764a.99.99 0 0 0-.035-.462c-.047-.149-.13-.284-.241-.395s-.246-.193-.395-.241a.99.99 0 0 0-.462-.035h-.306v-1.461h.736c.329-.05.665-.025.982.075s.606.272.846.502.424.512.537.825.153.647.116.977v2.99c0 .487.249.702.645.702l.499.068z" class="F"/><path d="M397.98 254.729h-23.898c-1.502 0-2.943.596-4.005 1.658s-1.659 2.503-1.659 4.005v11.621c0 1.502.597 2.942 1.659 4.004s2.503 1.659 4.005 1.659h6.24l4.735 10.726 6.671-10.726h6.252c1.502 0 2.943-.597 4.005-1.659a5.66 5.66 0 0 0 1.658-4.004v-11.689c-.018-1.49-.622-2.913-1.682-3.961s-2.491-1.634-3.981-1.634z" class="B C E"/><path d="M385.08 263.337a1.2 1.2 0 0 1 .306-.923c.112-.124.249-.224.403-.291s.318-.103.486-.103a1.2 1.2 0 0 1 .486.103c.153.067.29.167.403.291a1.2 1.2 0 0 1 .251.429c.052.159.071.327.055.494.016.167-.003.335-.055.494a1.2 1.2 0 0 1-.251.429 1.21 1.21 0 0 1-.403.291 1.2 1.2 0 0 1-.486.103c-.168 0-.333-.035-.486-.103a1.19 1.19 0 0 1-.403-.291 1.2 1.2 0 0 1-.306-.923zm2.39 5.538a3.41 3.41 0 0 1-.34 1.258l-.748 2.05h-1.132l.589-2.266c-.21-.088-.389-.239-.512-.431a1.13 1.13 0 0 1-.179-.645c0-.313.125-.615.346-.836s.524-.347.837-.347.615.125.837.347a1.18 1.18 0 0 1 .347.836l-.045.034z" class="F"/><path d="M304.561 457.968h23.887a5.66 5.66 0 0 0 4.004-1.658c1.062-1.062 1.659-2.503 1.659-4.005V440.73c0-1.502-.597-2.943-1.659-4.005a5.66 5.66 0 0 0-4.004-1.658h-6.241l-1.823-10.726-9.583 10.726h-6.24c-1.502 0-2.943.596-4.005 1.658s-1.659 2.503-1.659 4.005v11.621a5.66 5.66 0 0 0 5.664 5.617z" class="B C E"/><path d="M312.954 444.15l-5.018 1.926 5.018 1.869v1.529l-6.705-2.605v-1.575l6.705-2.605v1.461zm5.3-5.289h1.62l-4.803 13.716h-1.619l4.802-13.716zm8.676 6.376v1.575l-6.705 2.605v-1.518l5.018-1.869-5.018-1.88v-1.472l6.705 2.559z" class="F"/><path d="M152.652 373.304h23.887a5.67 5.67 0 0 0 3.985-1.638c1.06-1.05 1.663-2.476 1.678-3.968v-11.633c0-1.501-.596-2.942-1.658-4.004s-2.503-1.659-4.005-1.659h-6.241l1.36-10.726-12.765 10.726h-6.241c-1.502 0-2.942.597-4.005 1.659s-1.658 2.503-1.658 4.004v11.633c.015 1.492.618 2.918 1.678 3.968a5.67 5.67 0 0 0 3.985 1.638z" class="B C E"/><path d="M159.73 365.942c0-.3.12-.588.332-.801a1.13 1.13 0 0 1 .801-.332c.3 0 .589.12.801.332s.332.501.332.801-.12.589-.332.801-.501.332-.801.332-.588-.12-.801-.332a1.13 1.13 0 0 1-.332-.801zm.102-9.163h2.152l-.362 6.796h-1.438l-.352-6.796zm4.033 2.605h6.705v1.461h-6.705v-1.461zm0 3.523h6.705v1.461h-6.705v-1.461z" class="F"/><use xlink:href="#S" class="B"/><mask id="C" maskUnits="userSpaceOnUse" x="481" y="324" width="55" height="84"><path d="M535.211 360.131c-.006 4.502-.385 8.995-1.133 13.433-3.285 19.606-13.592 33.9-25.779 33.9-1.089.001-2.174-.113-3.239-.34-13.309-2.82-23.627-22.777-23.627-46.993 0-26.141 12.029-35.394 26.866-35.394s26.912 9.208 26.912 35.394z" class="B"/></mask><g mask="url(#C)"><use xlink:href="#T" class="D"/><use xlink:href="#T" class="B G"/></g><use xlink:href="#S" class="C H"/><path d="M522.808 384.177c-1.786 6.055-4.789 11.682-8.823 16.537z" class="B"/><path d="M522.808 384.177c-1.786 6.055-4.789 11.682-8.823 16.537m9.673-19.821l-.465 1.903" class="C H"/><path d="M523.589 360.064c1.416 6.048 1.597 12.319.533 18.439z" class="B"/><path d="M523.589 360.064c1.416 6.048 1.597 12.319.533 18.439m-42.632-18.371s30.581-12.074 53.755 0" class="C H"/><path d="M508.367 324.737s3.058 11.326 3.398 29.754z" class="B"/><g class="C"><path d="M508.367 324.737s3.058 11.326 3.398 29.754" class="H"/><path d="M512.637 338.476c.385 3.522-.227 6.512-1.371 6.694s-2.389-2.526-2.775-6.037.216-6.524 1.36-6.706 2.389 2.571 2.786 6.049z" fill="#bfbfbf" class="E"/><path d="M496.316 416.525h-35.859a8.78 8.78 0 0 1-8.71-7.6c-.075-.399-.109-.805-.102-1.211V323.23a6.35 6.35 0 0 1 .102-1.223c.285-2.106 1.326-4.036 2.928-5.432a8.77 8.77 0 0 1 5.782-2.157h101.62a8.68 8.68 0 0 1 4.224 1.133" class="H"/></g><defs ><path id="E" d="M209.59 333.13h-13.603v13.603h13.603V333.13z"/><path id="F" d="M209.59 399.66h-13.603v13.603h13.603V399.66z"/><path id="G" d="M250.716 349.711h-13.603v13.603h13.603v-13.603z"/><path id="H" d="M413.509 372.919c.489-1.52 1.386-2.875 2.593-3.919a3.32 3.32 0 0 1 4.338.147l-2.695-7.736a11.97 11.97 0 0 0-3.149-5.301c-1.608-1.313-4.259-1.585-5.663 0a61.21 61.21 0 0 1 .317 17.907c-.419 3.217-.963 6.909 1.2 9.322.601.487 1.643-.385 1.258-1.053-.182-.318-.816-.34-1.133-.318a57.49 57.49 0 0 1 2.934-9.049z"/><path id="I" d="M395.432 367.55c-.018 2.182.187 4.361.612 6.501a8.08 8.08 0 0 0 1.277 2.982 8.11 8.11 0 0 0 2.347 2.24c-1.133-4.214-.521-8.688.091-13.003l1.132-7.928c.056-.928.332-1.828.804-2.628a2.04 2.04 0 0 1 2.39-.861c-1.132.657-2.571-.226-3.25-1.336a33.3 33.3 0 0 0-1.733-3.489c-1.518-1.948-4.757-2.378-7-1.857.668 6.512 3.069 12.696 3.33 19.379z"/><path id="J" d="M376.947 350.085a3.97 3.97 0 0 1-1.2-2.379 3.42 3.42 0 0 0-1.326-2.265c-3.477 2.209-1.574 8.676-5.096 10.817-.68.419-1.552.656-1.926 1.359-.147.331-.189.699-.123 1.055a1.79 1.79 0 0 0 .497.938 3.39 3.39 0 0 0 1.925.906 7.76 7.76 0 0 0 4.156-.568c1.306-.568 2.431-1.484 3.252-2.648 1.382-1.903 2.333-4.961 1.653-7.215-.273.166-.586.254-.906.254s-.633-.088-.906-.254z"/><path id="K" d="M340.782 392.434c0 .238-.102.544.091.702s.691-.136.917-.453a6.06 6.06 0 0 1 3.017-2.18c1.21-.393 2.512-.395 3.723-.006.917 0 1.234-1.416.634-2.106-.342-.307-.745-.538-1.182-.678a3.26 3.26 0 0 0-1.355-.138 4.93 4.93 0 0 1-2.673-.442 2.65 2.65 0 0 1-1.133-2.854l-2.039 8.155z"/><path id="L" d="M386.903 349.224c-1.982-.261-4.078-.317-5.81-1.325-2.152-1.269-3.636-3.964-6.139-4.078-2.266-.102-3.885 1.937-5.142 3.772.012-1.389.445-2.742 1.242-3.881s1.919-2.008 3.22-2.496a11.08 11.08 0 0 1 8.098.317 30.38 30.38 0 0 1 7.023 4.384c.919.61 1.724 1.376 2.378 2.265 2.798 4.451-3.126 1.28-4.87 1.042z"/><path id="M" d="M372.167 371.707c-3.964-7.804-7.928-15.608-12.312-23.196a75.01 75.01 0 0 0-8.653-12.652c-1.518-1.688-5.844-5.607-8.234-3.024-1.597 1.721.498 4.848-1.461 6.716.453 0 2.662-.215 2.899.08a34.44 34.44 0 0 1 7.6 21.961c1.597-1.257 3.795.487 5.041 2.096a369.93 369.93 0 0 1 21.52 30.694c-1.292-4.678-1.326-9.65-2.707-14.294-.977-2.899-2.213-5.704-3.693-8.381z"/><path id="N" d="M383.788 363.212c-.43.646-1.03 1.438-1.766 1.212s-.816-1.133-.805-1.846l.216-12.72c-3.398 2.458-2.991 5.663-3.228 9.333-.136 2.118.475 12.233-.975 13.467 3.394-2.896 6.247-6.37 8.427-10.262-.589-.487-1.449.17-1.869.816z"/><path id="O" d="M220.678 377.257c1.835-2.265 5.595-3.16 7.725-1.133 1.099 1.273 1.776 2.857 1.937 4.531.153 1.678.743 3.287 1.71 4.666 1.132 1.28 3.273 1.779 4.417.555l.465 7.442c2.646-4.622 3.993-9.875 3.896-15.2 0-2.571-.442-5.188.158-7.702s2.537-4.938 5.12-5.063c2.854-.125 5.108 2.65 5.663 5.459s-.091 5.663-.26 8.54a25.98 25.98 0 0 0 2.446 12.697l1.801-3.647 1.62 7.317 1.404-16.095c.039-1.522.373-3.023.985-4.417a3.92 3.92 0 0 1 1.481-1.673c.646-.403 1.395-.608 2.155-.592 2.039.204 3.217 2.378 3.896 4.304 5.109 14.441 3.002 30.286.839 45.441 1.415.26 2.616-1.133 2.967-2.571.16-1.427.414-2.842.759-4.236.532-1.348 2.163-2.447 3.398-1.677 1.789 1.133.543 4.599 2.412 5.562.593-4.506 2.362-8.776 5.131-12.38 1.257-1.631 3.138-3.251 5.131-2.73a4.04 4.04 0 0 1 1.837 1.308c.475.602.769 1.327.847 2.09.216 1.518 2.413-4.757 2.028-3.273.861-8.733-.861-9.65 0-18.394.158-1.574 2.707-4.304 1.619-5.459s-4.111-2.719-5.482-2.084-5.81 2.854-6.693 4.066c-5.573 7.69-5.188 18.813-6.921 28.146-1.484-14.226-2.945-28.69-.34-42.746 1.439-7.758 4.089-15.857 1.586-23.321-1.133-3.398-4.179-6.796-7.724-6.184-2.855.521-4.531 3.398-5.743 6.071-3.896 8.948-5.663 18.666-7.339 28.316l6.365-29.052a19.65 19.65 0 0 0 .657-7.634c-.464-2.537-2.197-5.018-4.712-5.55s-4.983.951-6.864 2.673c-6.795 6.161-9.242 15.562-11.439 24.42a17.59 17.59 0 0 0 1.314-7.147c-.238-2.424-1.779-4.893-4.157-5.426-3.092-.668-5.89 2.084-7.249 4.927s-2.016 6.139-4.179 8.438c-1.575-1.767-4.531-1.665-6.502-.351-1.887 1.457-3.321 3.422-4.134 5.663-3.551 7.992-5.058 16.743-4.383 25.462a9.32 9.32 0 0 1 3.813-4.118 9.33 9.33 0 0 1 5.486-1.183l-.668-5.787"/><path id="P" d="M228.142 395.685l-.295 4.281a2.05 2.05 0 0 1 .556-.736 2.06 2.06 0 0 1 .821-.42 2.05 2.05 0 0 1 .922-.021 2.07 2.07 0 0 1 .839.384 4.69 4.69 0 0 1 .713-2.65c.363-.861.397-2.084-.442-2.492s-1.97.657-2.503 1.631c0-.351-.079-.702-.124-1.064l-.487 1.087z"/><path id="Q" d="M216.838 402.707a11.33 11.33 0 0 0-1.325 5.324 1.86 1.86 0 0 1 1.665-1.654 3.71 3.71 0 0 1 2.413.646 6.54 6.54 0 0 0 .158-2.605c-.072-.429-.267-.828-.56-1.15s-.673-.551-1.093-.663c-.873-.136-1.824.691-1.586 1.529l-.261-.645.589-.782z"/><path id="R" d="M220.157 402.47c1.551-2.402 3.069-5.72 2.65-8.552-.815-5.561-3.398-11.96-2.265-17.465l2.186-10.545"/><path id="S" d="M535.211 360.131c-.006 4.502-.385 8.995-1.133 13.433-3.285 19.606-13.592 33.9-25.779 33.9-1.089.001-2.174-.113-3.239-.34-13.309-2.82-23.627-22.777-23.627-46.993 0-26.141 12.029-35.394 26.866-35.394s26.912 9.208 26.912 35.394z"/><path id="T" d="M525.504 360.426c.997 14.022-1.405 28.112-5.448 41.579 10.126-8.314 14.781-21.384 18.994-33.786 3.058-9.005 6.15-18.293 5.595-27.784s-5.663-19.379-14.543-22.653a19.4 19.4 0 0 0-13.738.216c-7.465 3.001-3.398 5.425-.238 10.794a73.17 73.17 0 0 1 9.378 31.634z"/></defs></svg>