<svg xmlns="http://www.w3.org/2000/svg" width="80" height="80" fill="none" xmlns:v="https://vecta.io/nano"><path d="M78.491 36.295L43.571 1.502C42.605.54 41.294 0 39.928 0s-2.677.54-3.644 1.502L29.023 8.73l9.2 9.164c4.832-1.626 9.407 2.983 7.748 7.77l8.868 8.833c6.113-2.099 10.925 5.514 6.334 10.084-4.73 4.712-12.537-.511-10-6.642l-8.277-8.234v21.674c4.518 2.23 3.975 7.444 1.621 9.783-1.15 1.145-2.709 1.788-4.335 1.788s-3.185-.643-4.335-1.788c-3.137-3.131-1.977-8.344 2.009-9.961V29.322c-3.714-1.514-4.393-5.468-3.329-8.004l-9.07-9.045-23.95 23.86C.543 37.096 0 38.401 0 39.763s.543 2.667 1.509 3.63l34.93 34.793c.966.962 2.277 1.502 3.643 1.502s2.677-.54 3.643-1.502l34.766-34.631c.966-.963 1.509-2.268 1.509-3.63s-.543-2.667-1.509-3.63z" fill="#cf5754"/></svg>