<svg xmlns="http://www.w3.org/2000/svg" width="50" height="50" fill="none" xmlns:v="https://vecta.io/nano"><g clip-path="url(#A)"><path d="M44.643 0H5.357A5.36 5.36 0 0 0 0 5.357v39.286A5.36 5.36 0 0 0 5.357 50h39.286A5.36 5.36 0 0 0 50 44.643V5.357A5.36 5.36 0 0 0 44.643 0zM30.949 42.824c-.937.167-1.283-.413-1.283-.893l.022-6.172c0-1.741-.58-2.846-1.261-3.426 4.129-.458 8.482-1.027 8.482-8.158 0-2.031-.725-3.047-1.908-4.353.19-.48.826-2.455-.19-5.022-1.551-.48-5.1 1.998-5.1 1.998-1.473-.413-3.069-.625-4.643-.625s-3.17.212-4.643.625c0 0-3.549-2.478-5.1-1.998-1.016 2.556-.391 4.531-.19 5.022-1.183 1.306-1.741 2.322-1.741 4.353 0 7.098 4.163 7.701 8.292 8.159-.536.48-1.016 1.306-1.183 2.489-1.06.48-3.772 1.306-5.391-1.551-1.016-1.763-2.846-1.908-2.846-1.908-1.808-.022-.123 1.138-.123 1.138 1.205.558 2.054 2.701 2.054 2.701 1.083 3.315 6.261 2.199 6.261 2.199l.022 4.531c0 .48-.335 1.06-1.283.893-7.366-2.467-12.522-9.476-12.522-17.667 0-10.246 7.835-18.025 18.08-18.025s18.549 7.779 18.549 18.025c.011 8.192-4.989 15.212-12.355 17.667zM20 36.005c-.212.045-.413-.045-.435-.19-.022-.167.123-.312.335-.357.212-.022.413.067.435.212.034.145-.112.29-.335.335zm-1.06-.1c0 .145-.167.268-.391.268-.245.022-.413-.101-.413-.268 0-.145.167-.268.391-.268.212-.022.413.1.413.268zm-1.529-.123c-.045.145-.268.212-.458.145-.212-.045-.357-.212-.312-.357s.268-.212.458-.167c.223.067.368.234.313.38zm-1.373-.603c-.1.123-.312.1-.48-.067-.167-.145-.212-.357-.1-.458.1-.123.313-.1.48.067.145.145.201.368.1.458zm-1.016-1.016c-.1.067-.29 0-.413-.167s-.123-.357 0-.435c.123-.1.313-.022.413.145.123.167.123.368 0 .458zm-.725-1.083c-.101.1-.268.045-.391-.067-.123-.145-.145-.312-.045-.391.101-.1.268-.045.391.067.123.145.145.313.045.391zm-.748-.826c-.045.1-.19.123-.312.045-.145-.067-.212-.19-.167-.29.045-.067.167-.1.313-.045.145.078.212.201.167.29z" fill="#cf5754"/></g><defs><clipPath id="A"><path fill="#fff" d="M0 0h50v50H0z"/></clipPath></defs></svg>