<svg xmlns="http://www.w3.org/2000/svg" width="80" height="80" fill="none" xmlns:v="https://vecta.io/nano"><path d="M40 0C17.91 0 0 18.119 0 40.468c0 18.962 12.907 34.829 30.307 39.22-.187-.546-.307-1.18-.307-1.966v-6.917h-5.027c-2.737 0-5.17-1.19-6.35-3.403-1.31-2.458-1.537-6.218-4.783-8.518-.963-.765-.23-1.639.88-1.521 2.05.587 3.75 2.01 5.35 4.121 1.593 2.114 2.343 2.593 5.32 2.593 1.443 0 3.603-.084 5.637-.408 1.093-2.809 2.983-5.396 5.293-6.616-13.32-1.386-19.677-8.09-19.677-17.192 0-3.919 1.65-7.709 4.453-10.903-.92-3.17-2.077-9.635.353-12.096 5.993 0 9.617 3.932 10.487 4.994 2.987-1.035 6.267-1.622 9.713-1.622 3.453 0 6.747.587 9.74 1.629.86-1.056 4.487-5.001 10.493-5.001 2.44 2.465 1.27 8.957.34 12.12 2.787 3.187 4.427 6.967 4.427 10.879 0 9.095-6.347 15.796-19.647 17.188 3.66 1.932 6.33 7.362 6.33 11.452v9.22c0 .351-.077.604-.117.904C68.803 73.098 80 58.125 80 40.468 80 18.119 62.09 0 40 0z" fill="#cf5754"/></svg>