<svg xmlns="http://www.w3.org/2000/svg" width="129" height="66" fill="none" xmlns:v="https://vecta.io/nano"><path d="M72.753 41.398h3.797c2.172 0 3.258.742 3.258 2.227 0 1.063-.383 1.891-1.148 2.484-.75.594-1.812.891-3.187.891h-4.453c-1.625 0-2.883-.336-3.773-1.008-.875-.687-1.312-1.664-1.312-2.93 0-.812.328-2 .984-3.562l6.023-14.109-4.523 4.852C67.339 31.414 66.316 32 65.347 32c-1.266 0-2.086-.867-2.461-2.602l-.656-2.906-5.719 14.109c-1.969 4.844-3.469 8.133-4.5 9.867-1.031 1.75-2.367 3.266-4.008 4.547-2.375 1.844-5.102 2.766-8.18 2.766-3.281 0-5.945-1.039-7.992-3.117-2.047-2.062-3.07-4.758-3.07-8.086 0-4.359 1.609-8.195 4.828-11.508 1.734-1.766 3.898-3.188 6.492-4.266 2.594-1.094 5.148-1.641 7.664-1.641 1.281 0 2.305.273 3.07.82s1.148 1.273 1.148 2.18c0 .953-.406 1.727-1.219 2.32-.469.344-1.375.578-2.719.703-3.109.281-5.617.992-7.523 2.133-1.578.953-2.836 2.195-3.773 3.727-.922 1.531-1.383 3.133-1.383 4.805 0 1.781.453 3.18 1.359 4.195.906 1.031 2.148 1.547 3.727 1.547 1.891 0 3.531-.813 4.922-2.438 1.406-1.609 2.945-4.461 4.617-8.555l9.305-22.898c.813-2.016 1.906-3.023 3.281-3.023.875 0 1.562.281 2.062.844.516.562.961 1.547 1.336 2.953l1.43 5.391 7.031-6.914c1.547-1.516 2.992-2.273 4.336-2.273.938 0 1.727.289 2.367.867.656.563.984 1.25.984 2.063 0 .516-.125 1.078-.375 1.688l-.539 1.313-8.437 20.789z" fill="#ff5c58"/><path d="M10.992 31.719l9.563 8.672-4.664 5.203L1.43 32l14.133-14.695 5.039 4.758-9.609 9.656zM91.261 50h-6.914l13.922-33.609h6.914L91.261 50zm17.625-27.937l5.039-4.758L128.058 32l-14.461 13.594-4.664-5.203 9.563-8.672-9.61-9.656z" fill="#f0f8ff"/></svg>