<svg xmlns="http://www.w3.org/2000/svg" width="172" height="59" fill="none" xmlns:v="https://vecta.io/nano"><path d="M97.157 36.349h5.063c2.896 0 4.343.989 4.343 2.969 0 1.417-.51 2.521-1.531 3.313-1 .792-2.416 1.188-4.25 1.188h-5.937c-2.167 0-3.844-.448-5.031-1.344-1.167-.917-1.75-2.219-1.75-3.906 0-1.083.438-2.667 1.313-4.75l8.031-18.812-6.031 6.469c-1.437 1.563-2.802 2.344-4.094 2.344-1.687 0-2.781-1.156-3.281-3.469l-.875-3.875-7.625 18.813c-2.625 6.458-4.625 10.844-6 13.156-1.375 2.333-3.156 4.354-5.344 6.063-3.167 2.458-6.802 3.688-10.906 3.688-4.375 0-7.927-1.385-10.656-4.156-2.729-2.75-4.094-6.344-4.094-10.781 0-5.812 2.146-10.927 6.438-15.344 2.313-2.354 5.198-4.25 8.656-5.687 3.458-1.458 6.865-2.187 10.219-2.187 1.708 0 3.073.364 4.094 1.094s1.531 1.698 1.531 2.906c0 1.271-.542 2.302-1.625 3.094-.625.458-1.833.771-3.625.938-4.146.375-7.49 1.323-10.031 2.844-2.104 1.271-3.781 2.927-5.031 4.969-1.229 2.042-1.844 4.177-1.844 6.406 0 2.375.604 4.24 1.813 5.594 1.208 1.375 2.865 2.063 4.969 2.063 2.521 0 4.708-1.083 6.563-3.25 1.875-2.146 3.927-5.948 6.156-11.406L79.189 4.756C80.272 2.068 81.73.724 83.564.724c1.167 0 2.083.375 2.75 1.125.688.75 1.281 2.063 1.781 3.938l1.906 7.188 9.375-9.219c2.062-2.021 3.99-3.031 5.781-3.031 1.25 0 2.302.385 3.156 1.156.875.75 1.313 1.667 1.313 2.75 0 .688-.167 1.438-.5 2.25l-.719 1.75-11.25 27.719z" fill="#4675f4"/><path d="M14.656 25.625l12.75 11.563-6.219 6.938L1.906 26 20.75 6.406l6.719 6.344-12.813 12.875zM122.117 50h-9.219l18.563-44.812h9.219L122.117 50zm23.5-37.25l6.719-6.344L171.18 26l-19.282 18.125-6.218-6.937 12.75-11.562-12.813-12.875z" fill="#f0f8ff"/></svg>