<svg xmlns="http://www.w3.org/2000/svg" width="60" height="60" fill="none" xmlns:v="https://vecta.io/nano"><path d="M30 45a15 15 0 0 0 15-15 15 15 0 0 0-15-15 15 15 0 0 0-15 15 15 15 0 0 0 15 15zm0-45c.497 0 .974.198 1.326.549s.549.829.549 1.326v7.5c0 .497-.198.974-.549 1.326s-.829.549-1.326.549-.974-.197-1.326-.549-.549-.829-.549-1.326v-7.5c0-.497.198-.974.549-1.326S29.503 0 30 0zm0 48.75c.497 0 .974.197 1.326.549s.549.828.549 1.326v7.5c0 .497-.198.974-.549 1.326S30.497 60 30 60s-.974-.197-1.326-.549-.549-.828-.549-1.326v-7.5c0-.497.198-.974.549-1.326s.829-.549 1.326-.549zM60 30c0 .497-.197.974-.549 1.326s-.828.549-1.326.549h-7.5c-.497 0-.974-.198-1.326-.549s-.549-.829-.549-1.326.197-.974.549-1.326.828-.549 1.326-.549h7.5c.497 0 .974.198 1.326.549S60 29.503 60 30zm-48.75 0c0 .497-.197.974-.549 1.326s-.829.549-1.326.549h-7.5c-.497 0-.974-.198-1.326-.549S0 30.497 0 30s.198-.974.549-1.326.829-.549 1.326-.549h7.5c.497 0 .974.198 1.326.549s.549.829.549 1.326zM51.214 8.786c.352.352.549.828.549 1.326s-.197.974-.549 1.326l-5.302 5.306a1.88 1.88 0 0 1-.609.406c-.228.094-.472.143-.718.142-.498 0-.975-.198-1.326-.55-.174-.174-.312-.381-.406-.609s-.142-.472-.142-.718c0-.497.198-.975.55-1.326l5.303-5.302c.352-.352.828-.549 1.326-.549s.974.197 1.326.549zM16.74 43.26c.352.352.549.828.549 1.326s-.198.974-.549 1.326l-5.302 5.302c-.354.342-.827.531-1.319.526s-.962-.201-1.31-.549-.545-.818-.549-1.309.185-.965.526-1.319l5.302-5.303c.352-.352.829-.549 1.326-.549s.974.197 1.326.549zm34.474 7.954c-.352.352-.828.549-1.326.549s-.974-.197-1.326-.549l-5.303-5.302c-.341-.354-.53-.827-.526-1.319s.202-.962.549-1.31.818-.545 1.31-.549.965.185 1.319.526l5.302 5.303c.352.352.549.828.549 1.326s-.197.974-.549 1.326zM16.74 16.744c-.352.352-.828.549-1.326.549s-.974-.197-1.326-.549l-5.302-5.306c-.179-.173-.322-.38-.42-.609s-.15-.475-.152-.724.045-.496.14-.726.233-.44.41-.616.385-.315.616-.41.477-.142.726-.14.495.054.724.152.436.241.609.42l5.302 5.302c.175.174.313.381.408.609s.143.472.143.719-.049.491-.143.719-.233.435-.408.609z" fill="#000"/></svg>