<svg xmlns="http://www.w3.org/2000/svg" width="50" height="50" fill="none" xmlns:v="https://vecta.io/nano"><path d="M15.706 50c18.869 0 29.191-19.241 29.191-35.898l-.019-1.623c2.01-1.79 3.744-4.007 5.122-6.546-1.877 1.019-3.866 1.69-5.903 1.992 2.145-1.578 3.752-4.061 4.522-6.988-2.016 1.47-4.222 2.501-6.522 3.05C40.551 1.96 38.504.618 36.275.167s-4.517.016-6.509 1.328-3.577 3.395-4.509 5.927-1.16 5.372-.648 8.08c-4.079-.252-8.069-1.556-11.712-3.828S6.04 6.213 3.463 2.314c-1.308 2.781-1.708 6.07-1.117 9.201s2.128 5.866 4.298 7.652c-1.626-.068-3.217-.606-4.644-1.569v.173c.003 2.913.823 5.736 2.321 7.991s3.584 3.804 5.904 4.385a8.26 8.26 0 0 1-2.703.442c-.644.002-1.286-.071-1.919-.219.656 2.508 1.932 4.7 3.651 6.271s3.793 2.44 5.934 2.486c-3.636 3.514-8.127 5.421-12.75 5.411A16.1 16.1 0 0 1 0 44.366C4.692 48.047 10.142 50.002 15.706 50z" fill="#cf5754"/></svg>