<svg xmlns="http://www.w3.org/2000/svg" width="80" height="80" fill="none" xmlns:v="https://vecta.io/nano"><path d="M0 8.854v61.979c0 4.892 3.978 8.854 8.889 8.854h62.222c4.911 0 8.889-3.962 8.889-8.854V8.854C80 3.962 76.022 0 71.111 0H8.889C3.978 0 0 3.962 0 8.854zM47.404 41.84h-9.413v28.993h-7.587V41.84h-9.218v-6.424h26.218v6.424zm1.476 27.337v-7.752s4.249 3.192 9.351 3.192 4.902-3.32 4.902-3.776c0-4.821-14.449-4.821-14.449-15.499 0-14.525 21.053-8.792 21.053-8.792l-.262 6.902s-3.529-2.346-7.52-2.346-5.427 1.89-5.427 3.909c0 5.211 14.582 4.688 14.582 15.176 0 16.15-22.231 8.987-22.231 8.987z" fill="#cf5754"/></svg>