<svg xmlns="http://www.w3.org/2000/svg" width="233" height="271" fill="none" xmlns:v="https://vecta.io/nano"><path d="M232.429 168.69L103.951 40.213c-3.749.341-7.497 1.022-11.246 2.045l138.02 138.019c.681-4.089 1.363-7.838 1.704-11.587zm-33.056-95.42c-10.565-10.564-22.833-18.743-36.465-24.537l61.342 61.342c-6.134-13.973-14.313-26.241-24.877-36.806zM35.112 237.189c10.564 10.564 22.833 18.743 36.464 24.537l-61.342-61.342c6.134 13.972 14.313 26.241 24.878 36.805zm150.629 11.587L23.525 86.56l-5.453 7.838 159.49 159.49c3.067-1.364 5.793-3.068 8.179-5.112zm-43.962 19.766L3.759 130.522l-2.045 11.246 128.819 128.818c3.748-.34 7.497-1.022 11.246-2.044zm74.292-52.823L56.582 56.23l-7.838 5.453 162.215 162.216 5.112-8.179z" fill="#010101"/><path d="M230.714 128.478L102.237 0a65.01 65.01 0 0 0-11.246 2.045L228.67 140.064l2.044-11.586zm-33.397-95.081c-10.564-10.564-22.833-18.743-36.464-24.537l61.342 61.342c-5.794-13.972-14.314-26.241-24.878-36.805zM33.398 197.317c10.565 10.564 22.833 18.743 36.465 24.537L8.52 160.512c5.793 13.972 14.313 26.241 24.878 36.805zm150.287 11.587L21.47 46.688l-5.453 7.838 159.489 159.49c3.068-1.364 5.794-3.068 8.179-5.112zm-43.621 19.766L2.045 90.65 0 101.896l128.478 128.478c3.748-.341 7.838-.682 11.586-1.704zm74.293-52.823L54.867 16.358l-7.838 5.453 162.216 162.216 5.112-8.179z" fill="#9200ff"/></svg>